SplineFontDB: 3.0
FontName: LinLibertineSlantedOB
FullName: Linux Libertine Slanted O Bold
FamilyName: Linux Libertine Slanted O
Weight: Bold
Copyright: Linux Libertine by Philipp H. Poll,\nOpen Font under Terms of following Free Software Licenses:\nGPL (General Public License) with font-exception and OFL (Open Font License).\nCreated with FontForge (http://fontforge.sf.net)\nSept 2003, 2004, 2005, 2006, 2007, 2008, 2009, 2010, 2011
UComments: "2003-08-29: Created.+AAoA-2004-07-25: v(1.0) release candidate+AAoA-2005-12-28: v(1.1.0) stable+AAoA-2006-01-01: v(2.0.0) stable+AAoA-2006-09-05: v(2.2.0) stable+AAoA-2006-12-04: v(2.3.0) stable+AAoA-2007-03-11: v(2.4.0) stable+AAoA-2007-06-11: v(2.6.0) stable+AAoA-2007-12-00: v(2.7.0) stable+AAoA-2008-06-00: v(2.8.14) stable+AAoA" 
Version: 4.9.1
ItalicAngle: 0
UnderlinePosition: -98
UnderlineWidth: 40
Ascent: 754
Descent: 246
LayerCount: 2
Layer: 0 0 "Back"  1
Layer: 1 0 "Fore"  0
NeedsXUIDChange: 1
XUID: [1021 993 1524925707 4740893]
FSType: 0
OS2Version: 0
OS2_WeightWidthSlopeOnly: 0
OS2_UseTypoMetrics: 0
CreationTime: 1156455862
ModificationTime: 1294501347
PfmFamily: 17
TTFWeight: 700
TTFWidth: 5
LineGap: 0
VLineGap: 0
OS2TypoAscent: 894
OS2TypoAOffset: 0
OS2TypoDescent: -246
OS2TypoDOffset: 0
OS2TypoLinegap: 0
OS2WinAscent: 894
OS2WinAOffset: 0
OS2WinDescent: 246
OS2WinDOffset: 0
HheadAscent: 894
HheadAOffset: 0
HheadDescent: -246
HheadDOffset: 0
OS2FamilyClass: 261
OS2Vendor: 'PfEd'
Lookup: 3 0 0 "'aalt' Alle Alternativen zeigen"  {"LinLibertine-'aalt' Alle Alternativen zeigen 1"  } ['aalt' ('DFLT' <'dflt' > 'cyrl' <'dflt' > 'grek' <'dflt' > 'latn' <'AZE ' 'CRT ' 'DEU ' 'MOL ' 'ROM ' 'TRK ' 'dflt' > ) ]
Lookup: 1 0 0 "'locl' Localized Forms Romaenisch"  {"'locl' Localized Forms Romaenisch 1"  } ['locl' ('latn' <'MOL ' 'ROM ' > ) ]

StartChar: exclam
Encoding: 33 33 0
Width: 266
Flags: HW
HStem: -10 139<82 185> 638 20G<118.5 152.5>
VStem: 60 146<11.9591 106.904> 62 144<431.981 638.446> 104 58<188.926 423.897>
LayerCount: 2
Fore
SplineSet
272.862 658 m 0
 309.862 658 339.761 634 328.921 583 c 0
 321.481 548 305.404 510 292.39 477 c 0
 255.28 379.1 221.304 279 209.888 230 c 0
 205.449 211 196.061 188 172.961 188 c 0
 146.86 188 148.212 208 154.438 242 c 0
 163.178 289.7 174.863 409.6 177.027 480 c 0
 177.467 515 176.631 544 184.921 583 c 0
 196.823 639 241.862 658 272.862 658 c 0
72.3281 58 m 0
 80.6182 97 121.42 129 161.42 129 c 0
 201.42 129 227.043 99 218.753 60 c 0
 210.676 22 169.874 -10 129.874 -10 c 0
 89.874 -10 64.251 20 72.3281 58 c 0
EndSplineSet
EndChar

StartChar: quotedbl
Encoding: 34 34 1
Width: 376
Flags: HW
HStem: 421 224
VStem: 63 110<498.128 631.224> 204 110<498.128 631.224>
LayerCount: 2
Fore
SplineSet
197.36 411 m 1
 183.211 415 l 1
 183.211 415 187.346 585 188.621 591 c 0
 193.51 614 222.099 645 265.099 645 c 0
 307.099 645 306.061 626 302.234 608 c 0
 299.046 593 224.636 417 224.636 417 c 1
 197.36 411 l 1
338.36 411 m 1
 324.211 415 l 1
 324.211 415 328.346 585 329.621 591 c 0
 334.51 614 363.099 645 406.099 645 c 0
 448.099 645 447.061 626 443.234 608 c 0
 440.046 593 365.636 417 365.636 417 c 1
 338.36 411 l 1
EndSplineSet
EndChar

StartChar: numbersign
Encoding: 35 35 2
Width: 463
Flags: HW
HStem: 187 66<27 117 182 270 331 441> 360 66<53 144 208 295 358 466> 579 20G<177 238 328 385>
DStem2: 89 14 144 14 0.158649 0.987335<8.72568 175.251 250.727 350.344 425.661 592.345> 241 14 294 14 0.155356 0.987859<8.23384 175.405 250.08 350.188 425.174 592.19>
LayerCount: 2
Fore
SplineSet
331.776 253 m 1
 371.521 360 l 1
 277.521 360 l 1
 263.656 323 249.642 290 235.776 253 c 1
 331.776 253 l 1
424.521 360 m 1
 384.776 253 l 1
 502.776 253 l 1
 480.748 187 l 1
 361.748 187 l 1
 338.995 127 319.304 72 296.976 14 c 1
 243.976 14 l 1
 309.748 187 l 1
 213.748 187 l 1
 189.995 127 170.304 72 146.976 14 c 1
 91.9756 14 l 1
 156.748 187 l 1
 57.748 187 l 1
 80.7764 253 l 1
 180.776 253 l 1
 194.642 290 207.656 323 220.521 360 c 1
 120.521 360 l 1
 143.549 426 l 1
 243.549 426 l 1
 265.877 484 286.993 541 309.321 599 c 1
 365.321 599 l 1
 298.549 426 l 1
 395.549 426 l 1
 417.877 484 437.993 541 460.321 599 c 1
 512.321 599 l 1
 448.549 426 l 1
 565.549 426 l 1
 542.521 360 l 1
 424.521 360 l 1
EndSplineSet
EndChar

StartChar: dollar
Encoding: 36 36 3
Width: 438
VWidth: 999
Flags: HW
HStem: -13 40<157.025 291.972> -1 21G<61 72> 445 21G<339 392> 573 38<168.192 293.834>
VStem: 44 47<100.855 156.447> 45 90<416.427 531.87> 207 43<-86 669> 331 98<73.9232 206.753>
LayerCount: 2
Fore
SplineSet
99.3379 11 m 0
 82.3379 11 82.7871 -1 60.7871 -1 c 1
 69.0771 38 73.4053 96 77.1592 156 c 1
 124.797 159 l 1
 127.672 94.9004 146.171 37.5 213.016 28.2998 c 1
 265.729 276.3 l 1
 202.671 301.9 118.8 347.2 143.414 463 c 0
 162.714 553.8 263.596 601.7 336.617 609.8 c 1
 349.2 669 l 1
 392.2 669 l 1
 379.766 610.5 l 1
 430.456 608.1 470.915 598.5 497.959 602 c 1
 490.756 554 489.491 501 487.438 449 c 1
 440.588 445 l 1
 437.626 464 l 1
 432.623 532.2 422.516 565.1 371.519 571.7 c 1
 325.628 355.8 l 1
 385.491 335.4 487.155 273.6 464.497 167 c 0
 446.748 83.5 386.835 -3.59961 247.386 -12.2998 c 1
 231.72 -86 l 1
 188.72 -86 l 1
 204.386 -12.2998 l 1
 148.515 -8.40039 119.138 11 99.3379 11 c 0
304.818 257.9 m 1
 256.186 29.0996 l 1
 294.831 35.9004 344.029 61.2998 359.907 136 c 0
 371.471 190.4 348.843 231.2 304.818 257.9 c 1
286.22 372.7 m 1
 328.434 571.3 l 1
 281.476 563.5 247.464 529.1 234.477 468 c 0
 226.378 429.9 255.035 393 286.22 372.7 c 1
EndSplineSet
EndChar

StartChar: percent
Encoding: 37 37 4
Width: 637
VWidth: 999
Flags: HW
HStem: -19 39<464.6 519.99> 214 36<494.292 553.315> 297 39<145.6 200.99> 474 45<285.497 457.718> 530 36<175.292 234.315>
VStem: 51 93<336.471 492.517> 243 42<385.167 510.902> 370 93<20.4706 176.517> 562 42<69.1669 208.803>
DStem2: 96 -4 150 -16 0.588938 0.808178<22.1045 620.449 651.051 709.262>
LayerCount: 2
Fore
SplineSet
474.266 53 m 0
 471.438 39.7002 470.251 20 487.251 20 c 0
 507.951 20 531.201 36.7002 549.754 60 c 0
 572.39 88.4004 588.952 126.8 595.371 157 c 0
 606.424 209 582.487 214 568.487 214 c 0
 548.587 214 525.447 191.7 509.435 162 c 0
 490.943 127.7 480.77 83.5996 474.266 53 c 0
389.343 91 m 0
 406.348 171 476.139 250 565.139 250 c 0
 613.139 250 653.101 231 637.797 159 c 0
 616.754 60 545.961 -19 466.961 -19 c 0
 434.661 -19 407.468 -10.5 395.338 11 c 0
 385.164 29 381.479 54 389.343 91 c 0
222.434 369 m 0
 219.606 355.7 218.419 336 235.419 336 c 0
 256.119 336 279.369 352.7 297.921 376 c 0
 320.558 404.4 337.12 442.8 343.539 473 c 0
 354.592 525 330.655 530 316.655 530 c 0
 296.755 530 273.615 507.7 257.602 478 c 0
 239.111 443.7 228.938 399.6 222.434 369 c 0
137.511 407 m 0
 154.515 487 224.307 566 313.307 566 c 0
 339.307 566 362.917 560.4 376.71 543.9 c 1
 418.19 542.4 456.917 519 474.316 519 c 0
 516.316 519 584.592 525 634.944 569 c 1
 677.481 548 l 1
 146.599 -16 l 1
 95.1494 -4 l 1
 567.641 497 l 1
 525.239 481 484.752 474 454.752 474 c 0
 433.252 474 405.901 482.7 388.748 492.8 c 1
 388.279 487.3 387.304 481.3 385.965 475 c 0
 364.921 376 294.129 297 215.129 297 c 0
 182.829 297 155.636 305.5 143.506 327 c 0
 133.332 345 129.646 370 137.511 407 c 0
EndSplineSet
EndChar

StartChar: parenleft
Encoding: 40 40 5
Width: 315
Flags: HW
HStem: -213 21G<154.5 286.75>
VStem: 36 115<108.014 396.52>
LayerCount: 2
Fore
SplineSet
89.7764 253 m 0
 128.462 435 268.021 607 423.041 720 c 1
 443.813 686 l 1
 406.374 651 260.892 517 204.776 253 c 0
 148.662 -11 235.18 -145 259.527 -181 c 1
 222.726 -213 l 1
 37.3867 -17 80.2119 208 89.7764 253 c 0
EndSplineSet
Substitution2: "LinLibertine-'case' Versalformen 1" parenleft.sc
Substitution2: "LinLibertine-'c2sc' Versale nach Kapitaelchen 1" parenleft.sc
Substitution2: "LinLibertine-'sinf' Wissenschaftliche Indices 1" parenleft.inferior
Substitution2: "LinLibertine-'sups' Hochgestellte 1" parenleft.superior
AlternateSubs2: "LinLibertine-'aalt' Alle Alternativen zeigen 1" parenleft.sc
EndChar

StartChar: parenright
Encoding: 41 41 6
Width: 315
VWidth: 999
Flags: HW
HStem: 696 21<28.25 160.5>
VStem: 164 115<107.48 395.986>
LayerCount: 2
Fore
SplineSet
332.352 251 m 0
 293.666 69 154.106 -103 -0.912109 -216 c 1
 -21.6855 -182 l 1
 15.7539 -147 161.236 -13 217.352 251 c 0
 273.467 515 186.949 649 162.602 685 c 1
 199.403 717 l 1
 384.742 521 341.917 296 332.352 251 c 0
EndSplineSet
Substitution2: "LinLibertine-'case' Versalformen 1" parenright.sc
Substitution2: "LinLibertine-'c2sc' Versale nach Kapitaelchen 1" parenright.sc
Substitution2: "LinLibertine-'sinf' Wissenschaftliche Indices 1" parenright.inferior
Substitution2: "LinLibertine-'sups' Hochgestellte 1" parenright.superior
AlternateSubs2: "LinLibertine-'aalt' Alle Alternativen zeigen 1" parenright.sc
EndChar

StartChar: asterisk
Encoding: 42 42 7
Width: 433
VWidth: 999
Flags: HW
HStem: 571 69<77.0607 155.725 271.439 350.068>
VStem: 114 99<486.481 523.5> 173 78<621.002 713.184>
LayerCount: 2
Fore
SplineSet
317.307 566 m 1
 304.732 568 292.795 573 277.37 571 c 0
 230.669 563 194.669 563 204.234 608 c 0
 207.21 622 220.036 640 244.036 640 c 0
 278.036 640 288.021 607 327.983 588 c 1
 332.485 628 311.8 653 317.326 679 c 0
 321.79 700 345.615 718 363.615 718 c 0
 381.615 718 401.277 707 396.176 683 c 0
 390.438 656 359.36 618 350.983 588 c 1
 400.021 607 418.461 642 451.461 642 c 0
 482.461 642 485.36 618 483.234 608 c 0
 476.857 578 440.732 568 405.732 568 c 0
 386.732 568 369.732 568 351.095 565 c 1
 377.442 529 428.867 531 418.027 480 c 0
 414.201 462 393.863 451 379.863 451 c 0
 330.863 451 347.041 513 330.331 552 c 1
 295.767 507 297.863 451 238.863 451 c 0
 221.863 451 212.626 464 215.814 479 c 0
 227.293 533 276.229 528 317.307 566 c 1
EndSplineSet
EndChar

StartChar: plus
Encoding: 43 43 8
Width: 537
Flags: HW
HStem: 195 74<61 232 306 477> 413 20G<232 306>
VStem: 232 74<32 195 269 433>
LayerCount: 2
Fore
SplineSet
363.178 269 m 1
 534.178 269 l 1
 518.448 195 l 1
 347.448 195 l 1
 312.802 32 l 1
 238.802 32 l 1
 273.448 195 l 1
 102.448 195 l 1
 118.178 269 l 1
 289.178 269 l 1
 324.037 433 l 1
 398.037 433 l 1
 363.178 269 l 1
EndSplineSet
Substitution2: "LinLibertine-'sinf' Wissenschaftliche Indices 1" plus.inferior
Substitution2: "LinLibertine-'sups' Hochgestellte 1" plus.superior
AlternateSubs2: "LinLibertine-'aalt' Alle Alternativen zeigen 1" plus.superior plus.inferior uni2098
EndChar

StartChar: slash
Encoding: 47 47 9
Width: 316
Flags: HW
VStem: 2 300
DStem2: 2 -21 65 -21 0.319461 0.947599<20.126 741.875>
LayerCount: 2
Fore
SplineSet
446.964 682 m 1
 60.5361 -21 l 1
 -2.46387 -21 l 1
 383.964 682 l 1
 446.964 682 l 1
EndSplineSet
Ligature2: "LinLibertine-'frac' Brueche 1" uni2215
AlternateSubs2: "LinLibertine-'aalt' Alle Alternativen zeigen 1" uni2215
EndChar

StartChar: one
Encoding: 49 49 10
Width: 514
Flags: HW
HStem: -2 34<128.617 207.874 396.126 475.383> 590 20G<353 362.5>
VStem: 237 130<54.7283 488.997>
LayerCount: 2
Fore
SplineSet
392.932 122 m 2
 375.29 39 422.439 35 476.802 32 c 1
 485.526 26 480.851 4 469.575 -2 c 1
 387.787 -1 343 0 303 0 c 0
 263 0 133.575 -2 133.575 -2 c 1
 124.851 4 129.526 26 140.802 32 c 1
 196.439 35 245.29 39 262.932 122 c 2
 329.462 435 l 2
 340.09 485 334.94 489 321.94 489 c 0
 307.94 489 271.515 487 212.626 464 c 1
 200.752 474 197.038 490.4 199.767 507 c 1
 294.418 543 367.52 567 434.471 595 c 0
 459.81 606 477.659 610 487.659 610 c 0
 496.659 610 503.81 606 501.046 593 c 2
 501.046 593 480.931 536 469.665 483 c 2
 392.932 122 l 2
EndSplineSet
Substitution2: "LinLibertine-'onum' Minuskelziffern 1" one.taboldstyle
Substitution2: "LinLibertine-'pnum' Proportionalziffern 1" one.fitted
Substitution2: "LinLibertine-'sinf' Wissenschaftliche Indices 1" one.inferior
Substitution2: "LinLibertine-'sups' Hochgestellte 1" one.superior
AlternateSubs2: "LinLibertine-'aalt' Alle Alternativen zeigen 1" one.oldstyle one.superior one.fitted
EndChar

StartChar: two
Encoding: 50 50 11
Width: 514
Flags: HW
HStem: 0 79<178 374.152> 569 41<185.516 293.076>
VStem: 50 106<433.121 521.41> 325 131<378.151 531.314> 415 45<125.321 166.906>
LayerCount: 2
Fore
SplineSet
146.501 454 m 0
 159.679 516 243.659 610 386.659 610 c 0
 493.659 610 575.244 561 552.288 453 c 0
 532.732 361 425.231 295.6 332.676 229 c 2
 263.248 179 l 2
 221.328 148.8 208.995 127 194.792 79 c 1
 335.792 79 l 2
 380.792 79 415.531 106 451.984 174 c 1
 474.984 174 483.135 170 494.859 164 c 1
 475.743 107 449.077 38 429 0 c 1
 41 0 l 1
 53.7529 60 75.1455 97.5996 216.574 205 c 2
 317.941 282 l 2
 390.844 338 406.196 382 420.438 449 c 0
 440.206 542 401.944 569 369.944 569 c 0
 305.944 569 267.167 523 262.278 500 c 0
 259.94 489 261.239 481 262.752 474 c 0
 263.839 465 264.351 458 263.288 453 c 0
 256.699 422 223.022 400 194.022 400 c 0
 158.022 400 141.187 429 146.501 454 c 0
EndSplineSet
Substitution2: "LinLibertine-'onum' Minuskelziffern 1" two.taboldstyle
Substitution2: "LinLibertine-'pnum' Proportionalziffern 1" two.fitted
Substitution2: "LinLibertine-'sinf' Wissenschaftliche Indices 1" two.inferior
Substitution2: "LinLibertine-'sups' Hochgestellte 1" two.superior
AlternateSubs2: "LinLibertine-'aalt' Alle Alternativen zeigen 1" two.oldstyle two.superior two.fitted
EndChar

StartChar: three
Encoding: 51 51 12
Width: 514
Flags: HW
HStem: -10 41<184.08 290.732> 299 40<157.581 212.299> 433 21G<77 118> 570 40<188.427 297.054>
VStem: 55 103<443.276 535.993> 313.9 118.1<424.486 554.717> 338 129<128.18 260.312>
LayerCount: 2
Fore
SplineSet
369.157 570 m 0
 335.157 570 287.348 554.9 263.003 494 c 0
 250.201 462 232.037 433 188.037 433 c 0
 155.037 433 156.201 462 159.177 476 c 0
 161.94 489 172.042 513 194.931 536 c 0
 230.795 573 281.659 610 396.659 610 c 0
 534.659 610 545.293 533 535.94 489 c 0
 526.8 446 497.573 412 462.897 390 c 0
 443.347 378 436.283 373 413.158 363 c 1
 495.883 357 529.491 294 514.188 222 c 0
 502.072 165 471.294 119 433.643 83 c 0
 370.889 23 283.874 -10 214.874 -10 c 0
 165.874 -10 115.638 3 83.4639 21 c 0
 63.8018 32 55.9902 47 60.4541 68 c 0
 64.0674 85 87.5938 111 118.594 111 c 0
 155.594 111 167.918 89 175.729 74 c 0
 185.115 57 200.589 31 239.589 31 c 0
 276.589 31 350.115 57 374.56 172 c 0
 400.066 292 330.255 307 278.255 307 c 0
 263.255 307 250.83 305 228.555 299 c 1
 224.042 306 224.593 318 226.719 328 c 0
 227.568 332 228.206 335 230.057 339 c 1
 326.999 359.9 403.387 421 419.562 497.1 c 0
 429.467 543.7 411.357 570 369.157 570 c 0
EndSplineSet
Substitution2: "LinLibertine-'onum' Minuskelziffern 1" three.taboldstyle
Substitution2: "LinLibertine-'pnum' Proportionalziffern 1" three.fitted
Substitution2: "LinLibertine-'sinf' Wissenschaftliche Indices 1" three.inferior
Substitution2: "LinLibertine-'sups' Hochgestellte 1" three.superior
AlternateSubs2: "LinLibertine-'aalt' Alle Alternativen zeigen 1" three.oldstyle three.superior three.fitted
EndChar

StartChar: four
Encoding: 52 52 13
Width: 514
Flags: HW
HStem: -2 34<162.617 236.64 409.36 483.383> 162 47<77.76 261 385 495.734> 590 20G<256.75 385>
VStem: 261 124<50.5764 162 209 500.976>
LayerCount: 2
Fore
SplineSet
367.491 501 m 1
 299.187 429 189.173 292.5 121.424 209 c 1
 305.424 209 l 1
 367.491 501 l 1
527.424 209 m 2
 538.424 209 541.149 203 539.023 193 c 0
 536.473 181 517.435 162 503.435 162 c 2
 419.435 162 l 1
 410.932 122 l 2
 393.29 39 430.439 35 484.802 32 c 1
 493.526 26 488.851 4 477.575 -2 c 1
 395.787 -1 364 0 324 0 c 0
 284 0 167.575 -2 167.575 -2 c 1
 158.851 4 163.526 26 174.802 32 c 1
 230.439 35 269.29 39 286.932 122 c 2
 295.435 162 l 1
 118.435 162 l 2
 94.4346 162 90.8594 164 86.9219 169 c 2
 75.748 187 l 1
 72.0859 198 65.7871 206 66.6367 210 c 0
 67.2744 213 73.2559 219.5 76.4004 223 c 0
 185.15 346.5 328.816 519 424.659 610 c 1
 514.659 610 l 1
 429.424 209 l 1
 527.424 209 l 2
EndSplineSet
Substitution2: "LinLibertine-'onum' Minuskelziffern 1" four.taboldstyle
Substitution2: "LinLibertine-'pnum' Proportionalziffern 1" four.fitted
Substitution2: "LinLibertine-'sinf' Wissenschaftliche Indices 1" four.inferior
Substitution2: "LinLibertine-'sups' Hochgestellte 1" four.superior
AlternateSubs2: "LinLibertine-'aalt' Alle Alternativen zeigen 1" four.oldstyle four.superior four.fitted
EndChar

StartChar: five
Encoding: 53 53 14
Width: 514
Flags: HW
HStem: -10 44<195.942 282.402> 338 56<151.952 286.102> 508 92<169.148 424.888> 514 99<166.618 254.085 258.796 313.01 316.675 430>
VStem: 323 136<118.328 295.998>
LayerCount: 2
Fore
SplineSet
362.961 188 m 0
 384.216 288 358.844 338 311.844 338 c 0
 261.844 338 242.356 331 163.617 304 c 1
 152.518 312 l 1
 255.659 610 l 1
 311.81 606 342.534 600 383.534 600 c 0
 443.534 600 481.81 606 556.297 613 c 1
 576.534 600 l 1
 539.254 514 l 1
 477.404 510 458.979 508 422.979 508 c 0
 380.979 508 310.404 510 279.041 513 c 1
 266.239 481 250.037 433 231.984 381 c 1
 257.26 387 321.747 394 352.747 394 c 0
 470.747 394 526.806 319 505.55 219 c 0
 480.043 99 369.874 -10 236.874 -10 c 0
 189.074 -10 130.169 -2.5 95.8262 18 c 0
 73.4531 31.2998 63.3926 53.5996 67.0918 71 c 0
 71.7676 93 92.082 118 128.082 118 c 0
 165.082 118 186.043 99 194.792 79 c 0
 205.699 54.0996 220.227 34 240.227 34 c 0
 295.227 34 342.13 90 362.961 188 c 0
EndSplineSet
Substitution2: "LinLibertine-'onum' Minuskelziffern 1" five.taboldstyle
Substitution2: "LinLibertine-'pnum' Proportionalziffern 1" five.fitted
Substitution2: "LinLibertine-'sinf' Wissenschaftliche Indices 1" five.inferior
Substitution2: "LinLibertine-'sups' Hochgestellte 1" five.superior
AlternateSubs2: "LinLibertine-'aalt' Alle Alternativen zeigen 1" five.oldstyle five.superior five.fitted
EndChar

StartChar: six
Encoding: 54 54 15
Width: 514
Flags: HW
HStem: -10 39<224.347 310.848> 315 50<204.23 295.75> 569 41<339.203 447.96>
VStem: 44 126<115.719 300.126> 343 134<109.662 262.764>
LayerCount: 2
Fore
SplineSet
232.429 289 m 1
 229.091 278 223.776 253 221.438 242 c 0
 184.454 68 231.164 29 281.164 29 c 0
 317.164 29 359.579 78 382.535 186 c 0
 395.183 245.5 369.955 315 311.955 315 c 0
 293.955 315 275.924 312.5 232.429 289 c 1
570.944 569 m 1
 513.307 566 442.394 557 373.191 509 c 0
 317.95 470.7 269.554 402.5 246.75 330.5 c 1
 286.788 349.5 331.945 362 356.583 365 c 1
 519.339 361.5 530.776 253 520.361 204 c 0
 501.551 115.5 416.874 -10 260.874 -10 c 0
 159.874 -10 50.8018 32 96.2891 246 c 0
 116.694 342 170.755 447.2 261.041 513 c 0
 350.964 578.5 431.703 605.5 573.659 610 c 1
 579.419 600.4 576.638 581.2 570.944 569 c 1
EndSplineSet
Substitution2: "LinLibertine-'onum' Minuskelziffern 1" six.taboldstyle
Substitution2: "LinLibertine-'pnum' Proportionalziffern 1" six.fitted
Substitution2: "LinLibertine-'sinf' Wissenschaftliche Indices 1" six.inferior
Substitution2: "LinLibertine-'sups' Hochgestellte 1" six.superior
AlternateSubs2: "LinLibertine-'aalt' Alle Alternativen zeigen 1" six.oldstyle six.superior six.fitted
EndChar

StartChar: seven
Encoding: 55 55 16
Width: 514
Flags: HW
HStem: -12 21G<121 229> 498 102<126.882 378.94>
VStem: 60 35<413.4 453.601>
LayerCount: 2
Fore
SplineSet
289.854 498 m 2
 256.854 498 221.365 491 182.36 411 c 1
 147.998 414 l 1
 167.052 466 198.669 563 209.872 611 c 0
 210.51 614 211.51 614 214.51 614 c 0
 231.659 610 231.534 600 265.534 600 c 2
 600.534 600 l 1
 604.621 591 l 1
 417.806 319 331.922 169 228.575 -2 c 1
 124.449 -12 l 1
 121 0 l 1
 229.565 143.8 389.725 361.9 484.753 498 c 1
 289.854 498 l 2
EndSplineSet
Substitution2: "LinLibertine-'onum' Minuskelziffern 1" seven.taboldstyle
Substitution2: "LinLibertine-'pnum' Proportionalziffern 1" seven.fitted
Substitution2: "LinLibertine-'sinf' Wissenschaftliche Indices 1" seven.inferior
Substitution2: "LinLibertine-'sups' Hochgestellte 1" seven.superior
AlternateSubs2: "LinLibertine-'aalt' Alle Alternativen zeigen 1" seven.oldstyle seven.superior seven.fitted
EndChar

StartChar: nine
Encoding: 57 57 17
Width: 514
VWidth: 487
Flags: HW
HStem: -10 41<74.0399 182.797> 235 50<226.25 317.77> 571 39<211.152 297.653>
VStem: 45 134<337.236 490.338> 352 126<299.874 484.281>
LayerCount: 2
Fore
SplineSet
417.105 311 m 1
 420.443 322 425.757 347 428.096 358 c 0
 465.08 532 418.37 571 368.37 571 c 0
 332.37 571 289.954 522 266.998 414 c 0
 254.352 354.5 279.578 285 337.578 285 c 0
 355.578 285 373.61 287.5 417.105 311 c 1
78.5889 31 m 1
 136.227 34 207.14 43 276.343 91 c 0
 331.584 129.3 379.979 197.5 402.784 269.5 c 1
 362.745 250.5 317.589 238 292.951 235 c 1
 130.194 238.5 118.757 347 129.173 396 c 0
 147.983 484.5 232.659 610 388.659 610 c 0
 489.659 610 598.732 568 553.245 354 c 0
 532.84 258 478.778 152.8 388.492 87 c 0
 298.57 21.5 217.831 -5.5 75.874 -10 c 1
 70.1152 -0.400391 72.8965 18.7998 78.5889 31 c 1
EndSplineSet
Substitution2: "LinLibertine-'onum' Minuskelziffern 1" nine.taboldstyle
Substitution2: "LinLibertine-'pnum' Proportionalziffern 1" nine.fitted
Substitution2: "LinLibertine-'sinf' Wissenschaftliche Indices 1" nine.inferior
Substitution2: "LinLibertine-'sups' Hochgestellte 1" nine.superior
AlternateSubs2: "LinLibertine-'aalt' Alle Alternativen zeigen 1" nine.oldstyle nine.superior nine.fitted
EndChar

StartChar: colon
Encoding: 58 58 18
Width: 256
VWidth: 999
Flags: HW
HStem: 39 111<85.9218 174.078> 302 111<85.9218 174.078>
VStem: 74 112<50.8467 138.078 313.847 401.078>
LayerCount: 2
Fore
SplineSet
137.158 363 m 0
 145.447 402 186.25 434 226.25 434 c 0
 266.25 434 291.873 404 283.583 365 c 0
 275.506 327 234.704 295 194.704 295 c 0
 154.704 295 129.081 325 137.158 363 c 0
74.4541 68 m 0
 82.7432 107 123.545 139 163.545 139 c 0
 203.545 139 229.169 109 220.879 70 c 0
 212.802 32 172 0 132 0 c 0
 92 0 66.377 30 74.4541 68 c 0
EndSplineSet
EndChar

StartChar: less
Encoding: 60 60 19
Width: 512
Flags: HW
DStem2: 42 262 153 240 0.939793 0.341743<96.7987 435.295> 153 240 42 218 0.939793 -0.341743<0 338.496>
LayerCount: 2
Fore
SplineSet
204.014 240 m 1
 497.357 124 l 1
 484.179 62 l 1
 88.3369 218 l 1
 97.6895 262 l 1
 559.849 418 l 1
 546.67 356 l 1
 204.014 240 l 1
EndSplineSet
EndChar

StartChar: equal
Encoding: 61 61 20
Width: 551
Flags: HW
HStem: 142 56<59 493> 266 57<59 493>
LayerCount: 2
Fore
SplineSet
535.086 198 m 1
 523.183 142 l 1
 89.1826 142 l 1
 101.086 198 l 1
 535.086 198 l 1
561.656 323 m 1
 549.54 266 l 1
 115.54 266 l 1
 127.656 323 l 1
 561.656 323 l 1
EndSplineSet
Substitution2: "LinLibertine-'sinf' Wissenschaftliche Indices 1" equal.inferior
Substitution2: "LinLibertine-'sups' Hochgestellte 1" equal.superior
AlternateSubs2: "LinLibertine-'aalt' Alle Alternativen zeigen 1" equal.superior
EndChar

StartChar: greater
Encoding: 62 62 21
Width: 512
Flags: HW
DStem2: 42 416 42 354 0.939088 -0.343676<21.3079 358.865> 42 122 42 60 0.940496 0.339806<0 337.555>
LayerCount: 2
Fore
SplineSet
409.589 238 m 1
 117.245 354 l 1
 130.424 416 l 1
 526.052 259 l 1
 516.699 215 l 1
 54.7529 60 l 1
 67.9316 122 l 1
 409.589 238 l 1
EndSplineSet
EndChar

StartChar: question
Encoding: 63 63 22
Width: 430
Flags: HW
HStem: -10 139<143 246> 622 36<147.137 252.31>
VStem: 26 101<502.614 588.742> 121 146<11.9591 106.904> 160 65<182.871 308> 286 115<434.339 583.679>
LayerCount: 2
Fore
SplineSet
248.157 570 m 0
 243.693 549 251.418 543 245.679 516 c 0
 240.365 491 213.965 475 183.965 475 c 0
 159.965 475 131.216 495 139.293 533 c 0
 146.732 568 170.699 590.9 210.572 619 c 0
 245.965 643.9 294.862 658 355.862 658 c 0
 469.862 658 527.896 597 508.341 505 c 0
 492.612 431 419.834 385 361.97 348 c 0
 329.719 328 288.979 301 273.676 229 c 2
 270.912 216 l 2
 265.599 191 259.186 182 230.686 182 c 0
 204.186 182 201.236 194 205.912 216 c 2
 209.101 231 l 2
 217.815 272 229.931 329 314.747 394 c 0
 356.337 425 384.201 462 394.829 512 c 0
 407.157 570 394.311 622 338.21 622 c 0
 294.21 622 254.108 598 248.157 570 c 0
133.328 58 m 0
 141.618 97 182.42 129 222.42 129 c 0
 262.42 129 288.043 99 279.753 60 c 0
 271.676 22 230.874 -10 190.874 -10 c 0
 150.874 -10 125.251 20 133.328 58 c 0
EndSplineSet
EndChar

StartChar: at
Encoding: 64 64 23
Width: 988
Flags: HW
HStem: -160 39<407.274 632.859> 24 42<411.002 490.994 622.002 711.275> 381 34<502.903 579.761> 584 37<401.936 597.238>
VStem: 92 94<102.389 345.27> 297 117<85.0796 246.981> 805 85<185.855 389.903>
LayerCount: 2
Fore
SplineSet
654.019 320 m 0
 661.458 355 662.984 381 637.984 381 c 0
 623.984 381 592.142 380.8 548.907 343 c 0
 493.861 294.8 462.25 227 448.859 164 c 0
 438.869 117 438.304 72 485.304 72 c 0
 515.304 72 552.743 107 598.023 193 c 0
 615.038 226 648.917 296 654.019 320 c 0
657.005 80 m 0
 654.241 67 661.028 66 672.028 66 c 0
 709.028 66 832.42 129 863.028 273 c 0
 910.003 494 745.133 584 628.133 584 c 0
 473.133 584 283.563 459 234.463 228 c 0
 203.005 80 251.28 -121 495.28 -121 c 0
 572.28 -121 648.382 -97 721.223 -46 c 1
 736.059 -75 l 1
 661.643 -124 590.991 -160 467.991 -160 c 0
 230.991 -160 90.5117 -7 138.975 221 c 0
 182.975 428 391.998 621 644.998 621 c 0
 870.998 621 991.177 476 951.004 287 c 0
 921.246 147 777.102 24 643.102 24 c 0
 611.102 24 578.739 27 568.29 39 c 0
 556.56 52.5 554.241 67 558.28 86 c 1
 516.353 44 463.526 26 439.526 26 c 0
 393.727 26 365.775 34.7002 347.479 54 c 0
 323.792 79 322.932 122 330.584 158 c 0
 357.791 286 527.211 415 642.211 415 c 0
 690.211 415 715.598 398 728.134 377 c 1
 772.148 410 l 1
 796.811 399 l 1
 684.033 146 l 2
 672.507 120 659.343 91 657.005 80 c 0
EndSplineSet
EndChar

StartChar: A
Encoding: 65 65 24
Width: 740
VWidth: 999
Flags: HW
HStem: -2 34<3.77002 69.5762 167.992 237.23 421.77 500.035 664.842 733.23> 235 48<250.587 425> 638 20G<426.5 441.203>
DStem2: 106.983 102 165 79 0.390001 0.920814<-25.5008 179.412 231.412 451.365> 323.835 614 336.175 520 0.390001 0.920814<-540.408 -382.79 -329.399 -81.7439> 434 658 343.096 520 0.338836 -0.940845<99.0351 349.768 401.027 600.306>
AnchorPoint: "unten_punkt" 299.619 -110 basechar 0
AnchorPoint: "unten_anhang" 582.062 5 basechar 0
AnchorPoint: "top_akzent" 549.673 850 basechar 0
LayerCount: 2
Fore
SplineSet
333.153 283 m 2
 485.153 283 l 1
 453.63 520 l 1
 446.729 520 l 1
 310.78 296.3 l 2
 304.791 286 311.153 283 333.153 283 c 2
181.792 79 m 2
 157.355 37.9004 203.755 34.5996 240.802 32 c 1
 245.526 26 240.851 4 233.575 -2 c 1
 196.787 -1 142 0 101 0 c 0
 62 0 43.7871 -1 6.5752 -2 c 1
 1.85059 4 6.52637 26 13.8018 32 c 1
 57.9395 35 89.3232 40.0996 128.681 102 c 2
 454.31 614 l 1
 489.51 614 556.949 649 573.862 658 c 1
 658.28 86 l 2
 665.761 35.0996 698.746 35.5 736.802 32 c 1
 741.526 26 736.851 4 729.575 -2 c 1
 692.787 -1 637 0 596 0 c 0
 557 0 461.787 -1 424.575 -2 c 1
 419.851 4 424.526 26 431.802 32 c 1
 480.125 35.4004 519.589 31 514.304 72 c 2
 492.951 235 l 1
 302.951 235 l 2
 278.951 235 272.101 231 264.337 218 c 2
 181.792 79 l 2
EndSplineSet
Substitution2: "LinLibertine-'c2sc' Versale nach Kapitaelchen 1" a.sc
Position2: "'cpsp' Versalabstaende 1" dx=2 dy=0 dh=5 dv=0
EndChar

StartChar: B
Encoding: 66 66 25
Width: 654
Flags: HW
HStem: -2 42<245.223 398.568> -2 34<13.6167 82.4056> 334 42<242 372.404> 605 42<245.143 375.483> 613 34<13.6167 82.4056>
VStem: 102 140<47 334 376 598> 414 140<424.816 568.13> 461 147<100.315 274.622>
LayerCount: 2
Fore
SplineSet
361.457 562 m 2
 321.921 376 l 1
 377.921 376 l 2
 448.921 376 500.936 409 517.94 489 c 0
 538.771 587 486.597 605 440.597 605 c 0
 375.597 605 367.621 591 361.457 562 c 2
312.994 334 m 1
 259.854 84 l 2
 253.69 55 256.502 40 316.502 40 c 0
 448.502 40 487.995 127 500.748 187 c 0
 519.028 273 486.994 334 383.994 334 c 2
 312.994 334 l 1
310.099 645 m 0
 341.799 645 402.524 647 452.524 647 c 0
 654.324 647 673.031 560 658.365 491 c 0
 647.525 440 593.834 385 534.732 361 c 1
 534.308 359 l 1
 634.356 331 666.24 274 647.535 186 c 0
 625.854 84 541.575 -2 336.575 -2 c 0
 276.575 -2 213 0 173 0 c 0
 133 0 18.5752 -2 18.5752 -2 c 1
 9.85059 4 14.5264 26 25.8018 32 c 1
 81.4395 35 110.29 39 127.932 122 c 2
 213.167 523 l 2
 230.81 606 203.659 610 149.297 613 c 1
 140.572 619 145.249 641 156.524 647 c 1
 156.524 647 270.099 645 310.099 645 c 0
EndSplineSet
Substitution2: "LinLibertine-'c2sc' Versale nach Kapitaelchen 1" b.sc
Position2: "'cpsp' Versalabstaende 1" dx=2 dy=0 dh=5 dv=0
EndChar

StartChar: C
Encoding: 67 67 26
Width: 706
VWidth: 999
Flags: HW
HStem: -10 52<319.411 502.57> 616 42<309.587 490.254>
VStem: 37 151<207.875 440.266> 596 43<455.199 507.434>
AnchorPoint: "mittelpunkt" 412.955 315 basechar 0
AnchorPoint: "unten_punkt" 339.619 -110 basechar 0
AnchorPoint: "unten_anhang" 354.512 -7 basechar 0
AnchorPoint: "top_akzent" 520.673 850 basechar 0
LayerCount: 2
Fore
SplineSet
394.874 -10 m 0
 297.874 -10 223.488 7 169.266 53 c 0
 101.33 110.7 83.9961 221.1 103.955 315 c 0
 150.761 535.2 341.862 658 537.862 658 c 0
 660.862 658 697.36 618 747.297 613 c 1
 744.606 558 742.404 510 736.351 458 c 1
 723.775 452 703.438 449 692.288 453 c 1
 684.568 539 655.935 616 517.935 616 c 0
 398.935 616 292.025 489.4 258.994 334 c 0
 225.835 178 288.928 42 404.928 42 c 0
 474.928 42 561.454 68 649.033 146 c 1
 660.033 146 674.482 134 677.569 125 c 1
 590.652 36 491.874 -10 394.874 -10 c 0
EndSplineSet
Substitution2: "LinLibertine-'c2sc' Versale nach Kapitaelchen 1" c.sc
Position2: "'cpsp' Versalabstaende 1" dx=2 dy=0 dh=5 dv=0
EndChar

StartChar: D
Encoding: 68 68 27
Width: 734
Flags: HW
HStem: -2 42<269.225 426.596> -2 34<25.6167 94.4056> 604 42<268.527 415.668> 613 34<25.6167 94.4056>
VStem: 114 140<54.7283 590.272> 535 151<175.935 431.978>
LayerCount: 2
Fore
SplineSet
279.294 119 m 2
 265.053 52 288.502 40 358.502 40 c 0
 434.502 40 556.681 102 595.366 284 c 0
 627.462 435 641.384 604 444.384 604 c 0
 408.384 604 378.133 584 366.442 529 c 2
 279.294 119 l 2
185 0 m 0
 145 0 30.5752 -2 30.5752 -2 c 1
 21.8506 4 26.5264 26 37.8018 32 c 1
 93.4395 35 122.29 39 139.932 122 c 2
 225.167 523 l 2
 242.81 606 215.659 610 161.297 613 c 1
 152.572 619 157.249 641 168.524 647 c 1
 168.524 647 282.099 645 322.099 645 c 0
 362.099 645 404.312 646 457.312 646 c 0
 703.312 646 791.003 494 751.68 309 c 0
 730.084 207.4 679.357 124 622.43 82 c 0
 538.594 20.2002 434.075 -2 346.575 -2 c 0
 306.575 -2 225 0 185 0 c 0
EndSplineSet
Substitution2: "LinLibertine-'c2sc' Versale nach Kapitaelchen 1" d.sc
Position2: "'cpsp' Versalabstaende 1" dx=2 dy=0 dh=5 dv=0
EndChar

StartChar: E
Encoding: 69 69 28
Width: 604
VWidth: 999
Flags: HMW
HStem: -2 34<6.77002 80.9433> 0 42<241.31 449.205> 317 50<237 396.134> 603 42<241.649 436.3> 613 34<7.25781 80.9433>
VStem: 97 140<44.9117 317 367 599.635> 409 43<252.086 302.875 377.375 431.914> 481 43<498.655 551.392> 520 45<116.761 167.944>
AnchorPoint: "unten_anhang" 334.851 4 basechar 0
AnchorPoint: "unten_punkt" 310.619 -110 basechar 0
AnchorPoint: "top_akzent" 508.673 850 basechar 0
LayerCount: 2
Fore
SplineSet
396.008 367 m 2
 463.008 367 485.496 374 500.187 429 c 1
 507.462 435 538.462 435 543.187 429 c 1
 535.811 399 530.134 377 522.907 343 c 0
 515.68 309 512.642 290 506.202 255 c 1
 498.927 249 467.927 249 463.202 255 c 1
 469.767 300 454.381 317 385.381 317 c 2
 304.381 317 l 1
 256.13 90 l 2
 250.391 63 264.928 42 286.928 42 c 2
 387.928 42 l 2
 463.928 42 520.83 98 556.135 170 c 1
 569.915 173.2 590.926 170.9 600.072 165 c 1
 581.231 114 562.203 48 537.575 -2 c 1
 537.575 -2 448 0 400 0 c 2
 165 0 l 1
 165 0 58.7871 -1 9.5752 -2 c 1
 4.85059 4 9.52637 26 16.8018 32 c 1
 87.4395 35 105.29 39 122.932 122 c 2
 207.954 522 l 2
 225.597 605 209.659 610 140.297 613 c 1
 135.572 619 140.249 641 147.524 647 c 1
 197.312 646 301.099 645 301.099 645 c 1
 596.099 645 l 2
 620.099 645 628.312 646 645.949 649 c 0
 648.949 649 649.736 648 649.312 646 c 0
 649.611 638 634.206 542 630.491 501 c 1
 619.691 496.3 598.445 494.2 586.428 496 c 1
 579.095 565 566.172 603 491.172 603 c 2
 406.172 603 l 2
 382.172 603 359.857 578 354.756 554 c 2
 315.008 367 l 1
 396.008 367 l 2
EndSplineSet
Substitution2: "LinLibertine-'c2sc' Versale nach Kapitaelchen 1" e.sc
Position2: "'cpsp' Versalabstaende 1" dx=2 dy=0 dh=5 dv=0
EndChar

StartChar: F
Encoding: 70 70 29
Width: 540
Flags: HW
HStem: -2 34<8.6167 77.4056 261.36 335.383> 297 50<237 396.134> 603 42<244.747 436.358> 613 34<7.25781 80.9433>
VStem: 97 140<50.5764 297 347 596.345> 409 43<232.086 282.875 357.375 411.914> 486 43<493.655 545.134>
AnchorPoint: "top_akzent" 508.673 850 basechar 0
AnchorPoint: "unten_punkt" 310.619 -110 basechar 0
LayerCount: 2
Fore
SplineSet
262.932 122 m 2
 245.29 39 282.439 35 336.802 32 c 1
 345.526 26 340.851 4 329.575 -2 c 1
 289.787 -1 208 0 168 0 c 0
 128 0 53.7871 -1 13.5752 -2 c 1
 4.85059 4 9.52637 26 20.8018 32 c 1
 76.4395 35 105.29 39 122.932 122 c 2
 207.954 522 l 2
 225.597 605 209.659 610 140.297 613 c 1
 135.572 619 140.249 641 147.524 647 c 1
 197.312 646 301.099 645 301.099 645 c 1
 601.099 645 l 2
 625.099 645 633.312 646 650.949 649 c 0
 653.949 649 654.736 648 654.312 646 c 0
 654.611 638 638.143 537 634.428 496 c 1
 623.629 491.3 602.383 489.2 590.365 491 c 1
 583.031 560 571.172 603 496.172 603 c 2
 406.172 603 l 2
 382.172 603 359.857 578 354.756 554 c 2
 310.757 347 l 1
 391.757 347 l 2
 458.757 347 481.245 354 495.936 409 c 1
 503.211 415 534.211 415 538.936 409 c 1
 531.559 379 525.883 357 518.656 323 c 0
 511.429 289 508.391 270 501.951 235 c 1
 494.676 229 463.676 229 458.951 235 c 1
 465.516 280 450.129 297 381.129 297 c 2
 300.129 297 l 1
 262.932 122 l 2
EndSplineSet
Substitution2: "LinLibertine-'c2sc' Versale nach Kapitaelchen 1" f.sc
Position2: "'cpsp' Versalabstaende 1" dx=2 dy=0 dh=5 dv=0
EndChar

StartChar: G
Encoding: 71 71 30
Width: 755
VWidth: 999
Flags: HW
HStem: -10 42<327.927 511.946> 271 37<454.77 530.366 691.908 734.23> 616 42<307.193 507.087>
VStem: 32 151<199.242 425.667> 540 145<78.4212 260.935> 633 44<458.045 503.422>
AnchorPoint: "mittelpunkt" 409.206 335 basechar 0
AnchorPoint: "unten_anhang" 397.425 2 basechar 0
AnchorPoint: "unten_punkt" 373.619 -110 basechar 0
AnchorPoint: "top_akzent" 575.673 850 basechar 0
LayerCount: 2
Fore
SplineSet
546.862 658 m 0
 668.862 658 727.423 623 787.423 623 c 1
 779.119 551 774.491 501 774.563 459 c 1
 729.288 453 l 1
 721.568 539 668.935 616 523.935 616 c 0
 475.435 616 409.435 595.3 357.206 542 c 0
 307.022 490.8 270.722 412.7 252.506 327 c 0
 224.448 195 253.802 32 431.802 32 c 0
 485.802 32 514.928 42 555.729 74 c 1
 587.4 223 l 2
 595.924 263.1 569.61 266.8 515.603 271 c 1
 510.878 277 516.192 302 523.468 308 c 1
 570.255 307 638.042 306 677.042 306 c 0
 717.042 306 766.255 307 796.468 308 c 1
 801.192 302 795.878 277 788.603 271 c 1
 758.965 268 739.84 258 732.4 223 c 2
 707.531 106 l 2
 705.193 95 708.492 87 717.579 78 c 1
 639.102 24 517.874 -10 399.874 -10 c 0
 303.475 -10 211.235 12.4004 156.028 66 c 0
 96.1787 124.1 78.125 217 97.2549 307 c 0
 120.317 415.5 188.705 505.3 272.201 565.5 c 0
 357.958 627.4 459.662 658 546.862 658 c 0
EndSplineSet
Substitution2: "LinLibertine-'c2sc' Versale nach Kapitaelchen 1" g.sc
Position2: "'cpsp' Versalabstaende 1" dx=2 dy=0 dh=5 dv=0
EndChar

StartChar: grave
Encoding: 96 96 31
Width: 392
VWidth: 999
Flags: HW
LayerCount: 2
Fore
SplineSet
341.263 674 m 1
 383.906 550 l 2
 386.418 543 389.08 532 387.38 524 c 0
 385.467 515 375.979 508 366.979 508 c 0
 358.979 508 350.163 513.1 336.229 528 c 2
 237.548 633 l 1
 241.887 644 l 1
 251.8 653 285.688 676 321.688 676 c 0
 326.688 676 337.476 675 341.263 674 c 1
EndSplineSet
Substitution2: "LinLibertine-'case' Versalformen 1" uni0358
EndChar

StartChar: ograve
Encoding: 242 242 32
Width: 551
VWidth: 999
Flags: HW
HStem: -10 42<240.884 341.151> 402 42<214.256 315.486>
VStem: 35 140<118.075 311.105> 382 140<116.913 317.204>
LayerCount: 2
Fore
SplineSet
387.263 674 m 1
 429.906 550 l 2
 432.418 543 435.08 532 433.38 524 c 0
 431.467 515 421.979 508 412.979 508 c 0
 404.979 508 396.163 513.1 382.229 528 c 2
 283.548 633 l 1
 287.887 644 l 1
 297.8 653 331.688 676 367.688 676 c 0
 372.688 676 383.476 675 387.263 674 c 1
345.447 402 m 0
 278.447 402 245.23 321 225.676 229 c 0
 209.946 155 215.802 32 297.802 32 c 0
 333.802 32 387.582 63.9004 413.11 184 c 0
 442.23 321 413.447 402 345.447 402 c 0
80.999 207 m 0
 93.5615 266.1 123.179 326.4 170.346 370 c 0
 219.496 415.4 287.476 444 370.375 444 c 0
 518.875 444 587.715 346.8 559.912 216 c 0
 548.073 160.3 516.219 92.2998 455.99 47 c 0
 407.068 10.2002 343.374 -10 272.874 -10 c 0
 138.475 -10 53.2393 76.4004 80.999 207 c 0
EndSplineSet
Substitution2: "LinLibertine-'smcp' Gemeine nach Kapitaelchen 1" ograve.sc
AlternateSubs2: "LinLibertine-'aalt' Alle Alternativen zeigen 1" ograve.sc
EndChar

StartChar: oacute
Encoding: 243 243 33
Width: 551
VWidth: 999
Flags: HW
HStem: -10 42<240.884 341.151> 402 42<214.256 315.486>
VStem: 35 140<118.075 311.105> 382 140<116.913 317.204>
LayerCount: 2
Fore
SplineSet
425.263 674 m 1
 428.476 675 436.688 676 441.688 676 c 0
 471.688 676 487.713 662 493.587 652 c 1
 498.698 629 l 1
 355.742 521 l 2
 339.191 509 324.341 505 314.341 505 c 0
 306.341 505 300.041 513 301.316 519 c 0
 302.592 525 306.505 534 314.418 543 c 2
 425.263 674 l 1
345.447 402 m 0
 278.447 402 245.23 321 225.676 229 c 0
 209.946 155 215.802 32 297.802 32 c 0
 333.802 32 387.582 63.9004 413.11 184 c 0
 442.23 321 413.447 402 345.447 402 c 0
80.999 207 m 0
 93.5615 266.1 123.179 326.4 170.346 370 c 0
 219.496 415.4 287.476 444 370.375 444 c 0
 518.875 444 587.715 346.8 559.912 216 c 0
 548.073 160.3 516.219 92.2998 455.99 47 c 0
 407.068 10.2002 343.374 -10 272.874 -10 c 0
 138.475 -10 53.2393 76.4004 80.999 207 c 0
EndSplineSet
Substitution2: "LinLibertine-'smcp' Gemeine nach Kapitaelchen 1" oacute.sc
AlternateSubs2: "LinLibertine-'aalt' Alle Alternativen zeigen 1" oacute.sc
EndChar

StartChar: ocircumflex
Encoding: 244 244 34
Width: 551
VWidth: 999
Flags: HW
HStem: -10 42<240.884 341.151> 402 42<214.256 315.486>
VStem: 35 140<118.075 311.105> 382 140<116.913 317.204>
LayerCount: 2
Fore
SplineSet
443.925 663 m 1
 463.51 614 492.157 570 520.442 529 c 1
 491.404 510 l 1
 453.931 536 429.182 556 402.046 593 c 1
 355.756 554 323.931 536 278.404 510 c 1
 257.442 529 l 1
 302.157 570 351.723 615 391.925 663 c 1
 443.925 663 l 1
345.447 402 m 0
 278.447 402 245.23 321 225.676 229 c 0
 209.946 155 215.802 32 297.802 32 c 0
 333.802 32 387.582 63.9004 413.11 184 c 0
 442.23 321 413.447 402 345.447 402 c 0
80.999 207 m 0
 93.5615 266.1 123.179 326.4 170.346 370 c 0
 219.496 415.4 287.476 444 370.375 444 c 0
 518.875 444 587.715 346.8 559.912 216 c 0
 548.073 160.3 516.219 92.2998 455.99 47 c 0
 407.068 10.2002 343.374 -10 272.874 -10 c 0
 138.475 -10 53.2393 76.4004 80.999 207 c 0
EndSplineSet
Substitution2: "LinLibertine-'smcp' Gemeine nach Kapitaelchen 1" ocircumflex.sc
AlternateSubs2: "LinLibertine-'aalt' Alle Alternativen zeigen 1" ocircumflex.sc
EndChar

StartChar: otilde
Encoding: 245 245 35
Width: 551
VWidth: 999
Flags: HW
HStem: -10 42<240.884 341.151> 402 42<214.256 315.486> 519 70<259.399 360.905> 557 71<152.858 252.467>
VStem: 35 140<118.075 311.105> 113 26<521.865 543.979> 374 28<609.298 625.118> 382 140<116.913 317.204>
LayerCount: 2
Fore
SplineSet
450.195 589 m 0
 464.195 589 486.684 596 508.336 632 c 1
 522.336 632 534.636 624 532.085 612 c 1
 502.756 554 458.316 519 421.316 519 c 0
 398.316 519 377.592 525 360.78 540 c 1
 343.544 553 324.394 557 306.394 557 c 0
 284.394 557 267.969 555 248.892 517 c 1
 236.892 517 223.742 521 226.718 535 c 1
 253.559 586 294.485 628 329.485 628 c 0
 360.485 628 381.572 619 398.172 603 c 0
 413.195 589 439.195 589 450.195 589 c 0
345.447 402 m 0
 278.447 402 245.23 321 225.676 229 c 0
 209.946 155 215.802 32 297.802 32 c 0
 333.802 32 387.582 63.9004 413.11 184 c 0
 442.23 321 413.447 402 345.447 402 c 0
80.999 207 m 0
 93.5615 266.1 123.179 326.4 170.346 370 c 0
 219.496 415.4 287.476 444 370.375 444 c 0
 518.875 444 587.715 346.8 559.912 216 c 0
 548.073 160.3 516.219 92.2998 455.99 47 c 0
 407.068 10.2002 343.374 -10 272.874 -10 c 0
 138.475 -10 53.2393 76.4004 80.999 207 c 0
EndSplineSet
Substitution2: "LinLibertine-'smcp' Gemeine nach Kapitaelchen 1" otilde.sc
AlternateSubs2: "LinLibertine-'aalt' Alle Alternativen zeigen 1" otilde.sc
EndChar

StartChar: odieresis
Encoding: 246 246 36
Width: 551
VWidth: 999
Flags: HW
HStem: -10 42<240.884 341.151> 402 42<214.256 315.486> 519 109<133.037 221.257 312.743 400.963>
VStem: 35 140<118.075 311.105> 122 110<530.463 616.462> 302 110<530.463 616.462> 382 140<116.913 317.204>
LayerCount: 2
Fore
SplineSet
431.795 573 m 0
 438.384 604 467.485 628 498.485 628 c 0
 528.485 628 548.384 604 541.795 573 c 0
 535.418 543 505.316 519 475.316 519 c 0
 444.316 519 425.418 543 431.795 573 c 0
245.795 573 m 0
 252.384 604 282.485 628 312.485 628 c 0
 343.485 628 362.384 604 355.795 573 c 0
 349.418 543 320.316 519 289.316 519 c 0
 259.316 519 239.418 543 245.795 573 c 0
345.447 402 m 0
 278.447 402 245.23 321 225.676 229 c 0
 209.946 155 215.802 32 297.802 32 c 0
 333.802 32 387.582 63.9004 413.11 184 c 0
 442.23 321 413.447 402 345.447 402 c 0
80.999 207 m 0
 93.5615 266.1 123.179 326.4 170.346 370 c 0
 219.496 415.4 287.476 444 370.375 444 c 0
 518.875 444 587.715 346.8 559.912 216 c 0
 548.073 160.3 516.219 92.2998 455.99 47 c 0
 407.068 10.2002 343.374 -10 272.874 -10 c 0
 138.475 -10 53.2393 76.4004 80.999 207 c 0
EndSplineSet
Substitution2: "LinLibertine-'smcp' Gemeine nach Kapitaelchen 1" odieresis.sc
AlternateSubs2: "LinLibertine-'aalt' Alle Alternativen zeigen 1" odieresis.sc
EndChar

StartChar: divide
Encoding: 247 247 37
Width: 540
VWidth: 999
Flags: HW
HStem: 27.6 116.5<225.508 311.836> 203 66<76 461> 327.6 116.5<225.508 311.836>
VStem: 207.1 122.4<46.0234 125.601> 207.1 122.4<346.023 425.601>
LayerCount: 2
Fore
SplineSet
288.85 384.6 m 0
 295.8 417.3 329.996 444.1 363.496 444.1 c 0
 396.996 444.1 418.562 419 411.61 386.3 c 0
 404.852 354.5 370.533 327.6 337.033 327.6 c 0
 303.533 327.6 282.09 352.8 288.85 384.6 c 0
225.082 84.5996 m 0
 232.033 117.3 266.229 144.1 299.729 144.1 c 0
 333.229 144.1 354.794 119 347.844 86.2998 c 0
 341.084 54.5 306.767 27.5996 273.267 27.5996 c 0
 239.767 27.5996 218.323 52.7998 225.082 84.5996 c 0
529.54 266 m 1
 506.787 206 l 1
 107.787 206 l 1
 130.54 266 l 1
 529.54 266 l 1
EndSplineSet
EndChar

StartChar: ugrave
Encoding: 249 249 38
Width: 598
VWidth: 999
Flags: HW
HStem: -10 74<188 306.066> 18 34<526.771 582.355> 402 34<22.77 75.7019 315.77 369.604>
VStem: 93 130<86.3211 390.242> 386 130<60.129 389.887>
LayerCount: 2
Fore
SplineSet
402.263 674 m 1
 444.906 550 l 2
 447.418 543 450.08 532 448.38 524 c 0
 446.467 515 436.979 508 427.979 508 c 0
 419.979 508 411.163 513.1 397.229 528 c 2
 298.548 633 l 1
 302.887 644 l 1
 312.8 653 346.688 676 382.688 676 c 0
 387.688 676 398.476 675 402.263 674 c 1
538.27 133 m 2
 526.154 76 533.274 60.0996 586.69 55 c 1
 587.415 49 585.164 29 581.889 23 c 1
 510.976 14 448 0 408.874 -10 c 1
 394.874 -10 387.737 -5 389.488 7 c 2
 389.488 7 391.184 25.7998 394.341 51 c 1
 329.996 18.7998 251.175 -10 214.874 -10 c 0
 128.874 -10 98.2461 43.5 120.884 150 c 2
 154.042 306 l 2
 171.897 390 153.022 400 107.447 402 c 1
 102.723 408 107.399 430 114.675 436 c 1
 157.462 435 194.75 434 246.25 434 c 0
 268.449 434 285.462 435 303.675 436 c 1
 308.399 430 310.062 419 306.447 402 c 0
 301.347 378 301.897 390 284.042 306 c 2
 248.545 139 l 2
 233.561 68.5 262.604 64 302.604 64 c 0
 320.104 64 354.207 65.9004 400.143 91 c 1
 401.789 101.1 403.615 111.1 405.655 120.7 c 2
 445.042 306 l 2
 462.897 390 448.385 397 398.447 402 c 1
 393.723 408 398.399 430 405.675 436 c 1
 448.462 435 485.75 434 537.25 434 c 0
 559.449 434 576.462 435 594.675 436 c 1
 599.399 430 601.062 419 597.447 402 c 0
 592.347 378 592.897 390 575.042 306 c 2
 538.27 133 l 2
EndSplineSet
Substitution2: "LinLibertine-'smcp' Gemeine nach Kapitaelchen 1" ugrave.sc
AlternateSubs2: "LinLibertine-'aalt' Alle Alternativen zeigen 1" ugrave.sc
EndChar

StartChar: uacute
Encoding: 250 250 39
Width: 598
VWidth: 999
Flags: HW
HStem: -10 74<188 306.066> 18 34<526.771 582.355> 402 34<22.77 75.7019 315.77 369.604>
VStem: 93 130<86.3211 390.242> 386 130<60.129 389.887>
LayerCount: 2
Fore
SplineSet
452.263 674 m 1
 455.476 675 463.688 676 468.688 676 c 0
 498.688 676 514.713 662 520.587 652 c 1
 525.698 629 l 1
 382.742 521 l 2
 366.191 509 351.341 505 341.341 505 c 0
 333.341 505 327.041 513 328.316 519 c 0
 329.592 525 333.505 534 341.418 543 c 2
 452.263 674 l 1
538.27 133 m 2
 526.154 76 533.274 60.0996 586.69 55 c 1
 587.415 49 585.164 29 581.889 23 c 1
 510.976 14 448 0 408.874 -10 c 1
 394.874 -10 387.737 -5 389.488 7 c 2
 389.488 7 391.184 25.7998 394.341 51 c 1
 329.996 18.7998 251.175 -10 214.874 -10 c 0
 128.874 -10 98.2461 43.5 120.884 150 c 2
 154.042 306 l 2
 171.897 390 153.022 400 107.447 402 c 1
 102.723 408 107.399 430 114.675 436 c 1
 157.462 435 194.75 434 246.25 434 c 0
 268.449 434 285.462 435 303.675 436 c 1
 308.399 430 310.062 419 306.447 402 c 0
 301.347 378 301.897 390 284.042 306 c 2
 248.545 139 l 2
 233.561 68.5 262.604 64 302.604 64 c 0
 320.104 64 354.207 65.9004 400.143 91 c 1
 401.789 101.1 403.615 111.1 405.655 120.7 c 2
 445.042 306 l 2
 462.897 390 448.385 397 398.447 402 c 1
 393.723 408 398.399 430 405.675 436 c 1
 448.462 435 485.75 434 537.25 434 c 0
 559.449 434 576.462 435 594.675 436 c 1
 599.399 430 601.062 419 597.447 402 c 0
 592.347 378 592.897 390 575.042 306 c 2
 538.27 133 l 2
EndSplineSet
Substitution2: "LinLibertine-'smcp' Gemeine nach Kapitaelchen 1" uacute.sc
AlternateSubs2: "LinLibertine-'aalt' Alle Alternativen zeigen 1" uacute.sc
EndChar

StartChar: ucircumflex
Encoding: 251 251 40
Width: 598
VWidth: 999
Flags: HW
HStem: -10 74<188 306.066> 18 34<526.771 582.355> 402 34<22.77 75.7019 315.77 369.604>
VStem: 93 130<86.3211 390.242> 386 130<60.129 389.887>
LayerCount: 2
Fore
SplineSet
447.925 663 m 1
 467.51 614 496.157 570 524.442 529 c 1
 495.404 510 l 1
 457.931 536 433.182 556 406.046 593 c 1
 359.756 554 327.931 536 282.404 510 c 1
 261.442 529 l 1
 306.157 570 355.723 615 395.925 663 c 1
 447.925 663 l 1
538.27 133 m 2
 526.154 76 533.274 60.0996 586.69 55 c 1
 587.415 49 585.164 29 581.889 23 c 1
 510.976 14 448 0 408.874 -10 c 1
 394.874 -10 387.737 -5 389.488 7 c 2
 389.488 7 391.184 25.7998 394.341 51 c 1
 329.996 18.7998 251.175 -10 214.874 -10 c 0
 128.874 -10 98.2461 43.5 120.884 150 c 2
 154.042 306 l 2
 171.897 390 153.022 400 107.447 402 c 1
 102.723 408 107.399 430 114.675 436 c 1
 157.462 435 194.75 434 246.25 434 c 0
 268.449 434 285.462 435 303.675 436 c 1
 308.399 430 310.062 419 306.447 402 c 0
 301.347 378 301.897 390 284.042 306 c 2
 248.545 139 l 2
 233.561 68.5 262.604 64 302.604 64 c 0
 320.104 64 354.207 65.9004 400.143 91 c 1
 401.789 101.1 403.615 111.1 405.655 120.7 c 2
 445.042 306 l 2
 462.897 390 448.385 397 398.447 402 c 1
 393.723 408 398.399 430 405.675 436 c 1
 448.462 435 485.75 434 537.25 434 c 0
 559.449 434 576.462 435 594.675 436 c 1
 599.399 430 601.062 419 597.447 402 c 0
 592.347 378 592.897 390 575.042 306 c 2
 538.27 133 l 2
EndSplineSet
Substitution2: "LinLibertine-'smcp' Gemeine nach Kapitaelchen 1" ucircumflex.sc
AlternateSubs2: "LinLibertine-'aalt' Alle Alternativen zeigen 1" ucircumflex.sc
EndChar

StartChar: ebreve
Encoding: 277 277 41
Width: 484
VWidth: 999
Flags: HW
HStem: -10 86<216.361 345.445> 235 40<172 310> 402 42<205.631 284.5> 514 74<177.021 320.577>
VStem: 37 130<127.941 235 275 306.352> 110 33<621.43 659.121> 310 130<259 363.973> 358 32<624.913 659.188>
LayerCount: 2
Fore
SplineSet
284.775 667 m 1
 275.297 613 312.983 588 375.983 588 c 0
 422.983 588 483.172 603 499.775 667 c 1
 529.649 657 l 1
 497.331 552 411.254 514 360.254 514 c 0
 279.254 514 239.433 576 249.649 657 c 1
 284.775 667 l 1
230.453 275 m 1
 366.453 275 l 1
 368.878 277 371.642 290 372.917 296 c 0
 389.921 376 358.447 402 331.447 402 c 0
 320.147 402 291.18 391.8 270.221 368 c 0
 252.306 347.7 238.893 310 230.453 275 c 1
453.42 129 m 1
 463.42 129 464.594 111 461.83 98 c 1
 396.313 25 320.874 -10 251.874 -10 c 0
 180.774 -10 135.854 5.90039 105.502 40 c 0
 70.9492 78.7998 66.6514 139.5 79.0859 198 c 0
 111.607 351 246.375 444 351.375 444 c 0
 498.375 444 511.607 351 493.54 266 c 0
 490.564 252 481.951 235 457.951 235 c 2
 217.951 235 l 1
 216.888 230 215.038 226 213.55 219 c 0
 192.72 121 231.154 76 309.154 76 c 0
 347.154 76 403.492 87 453.42 129 c 1
EndSplineSet
EndChar

StartChar: Edotaccent
Encoding: 278 278 42
Width: 604
VWidth: 999
Flags: HW
HStem: -2 34<6.77002 80.9433> 0 42<241.31 449.205> 317 50<237 396.134> 603 42<241.649 436.3> 613 34<7.25781 80.9433> 705 128<242.302 342.126>
VStem: 97 140<44.9117 317 367 599.635> 226 135<723.993 815.845> 409 43<252.086 302.875 377.375 431.914> 481 43<498.655 551.392> 520 45<116.761 167.944>
LayerCount: 2
Fore
SplineSet
408.881 771 m 0
 416.108 805 450.06 833 484.06 833 c 0
 518.06 833 540.108 805 532.881 771 c 0
 525.654 737 491.702 709 457.702 709 c 0
 423.702 709 401.654 737 408.881 771 c 0
396.008 367 m 2
 463.008 367 485.496 374 500.187 429 c 1
 507.462 435 538.462 435 543.187 429 c 1
 535.811 399 530.134 377 522.907 343 c 0
 515.68 309 512.642 290 506.202 255 c 1
 498.927 249 467.927 249 463.202 255 c 1
 469.767 300 454.381 317 385.381 317 c 2
 304.381 317 l 1
 256.13 90 l 2
 250.391 63 264.928 42 286.928 42 c 2
 387.928 42 l 2
 463.928 42 520.83 98 556.135 170 c 1
 569.915 173.2 590.947 171 600.072 165 c 1
 581.231 114 562.203 48 537.575 -2 c 1
 537.575 -2 448 0 400 0 c 2
 165 0 l 1
 165 0 58.7871 -1 9.5752 -2 c 1
 4.85059 4 9.52637 26 16.8018 32 c 1
 87.4395 35 105.29 39 122.932 122 c 2
 207.954 522 l 2
 225.597 605 209.659 610 140.297 613 c 1
 135.572 619 140.249 641 147.524 647 c 1
 197.312 646 301.099 645 301.099 645 c 1
 596.099 645 l 2
 620.099 645 628.312 646 645.949 649 c 0
 648.949 649 649.736 648 649.312 646 c 0
 649.611 638 634.206 542 630.491 501 c 1
 619.691 496.3 598.445 494.2 586.428 496 c 1
 579.095 565 566.172 603 491.172 603 c 2
 406.172 603 l 2
 382.172 603 359.857 578 354.756 554 c 2
 315.008 367 l 1
 396.008 367 l 2
EndSplineSet
Position2: "'cpsp' Versalabstaende 1" dx=2 dy=0 dh=5 dv=0
EndChar

StartChar: edotaccent
Encoding: 279 279 43
Width: 484
VWidth: 999
Flags: HW
HStem: -10 86<213.361 342.445> 235 40<169 307> 402 42<202.631 281.5> 540 128<192.287 292.126>
VStem: 34 130<127.941 235 275 306.352> 176 135<558.993 650.845> 307 130<259 363.973>
LayerCount: 2
Fore
SplineSet
302.684 596 m 0
 309.061 626 338.862 658 385.862 658 c 0
 427.862 658 443.21 622 436.834 592 c 0
 431.307 566 397.655 530 352.655 530 c 0
 312.655 530 295.669 563 302.684 596 c 0
230.453 275 m 1
 366.453 275 l 1
 368.878 277 371.642 290 372.917 296 c 0
 389.921 376 358.447 402 331.447 402 c 0
 320.147 402 291.18 391.8 270.221 368 c 0
 252.306 347.7 238.893 310 230.453 275 c 1
453.42 129 m 1
 463.42 129 464.594 111 461.83 98 c 1
 396.313 25 320.874 -10 251.874 -10 c 0
 180.774 -10 135.854 5.90039 105.502 40 c 0
 70.9492 78.7998 66.6514 139.5 79.0859 198 c 0
 111.607 351 246.375 444 351.375 444 c 0
 498.375 444 511.607 351 493.54 266 c 0
 490.564 252 481.951 235 457.951 235 c 2
 217.951 235 l 1
 216.888 230 215.038 226 213.55 219 c 0
 192.72 121 231.154 76 309.154 76 c 0
 347.154 76 403.492 87 453.42 129 c 1
EndSplineSet
EndChar

StartChar: Eogonek
Encoding: 280 280 44
Width: 604
VWidth: 999
Flags: HW
HStem: -224 39<385.181 468.941> 0 25<454.256 490.88> 0 33<27 94.1445> 0 46<224.232 442.935> 323 42<224 361.625> 427 20<383 415> 600 46<224.232 421.482> 613 33<27 94.1445>
VStem: 101 123<46.578 323 365 599.422> 311 60<-173.091 -74.5789> 372 36<251.814 315.565 372.621 436.233> 474 40<482.425 531.807> 499 43<118.211 170.628>
LayerCount: 2
Fore
SplineSet
459.378 -177 m 1
 425.726 -213 377.687 -232 338.687 -232 c 0
 319.387 -232 304.49 -225.4 292.088 -216 c 0
 272.376 -201 261.611 -175.9 270.093 -136 c 0
 280.38 -87.5996 339.896 -30.5996 398.4 0 c 1
 165 0 l 1
 165 0 58.7871 -1 9.5752 -2 c 1
 4.85059 4 9.52637 26 16.8018 32 c 1
 87.4395 35 105.29 39 122.932 122 c 2
 207.954 522 l 2
 225.597 605 209.659 610 140.297 613 c 1
 135.572 619 140.249 641 147.524 647 c 1
 197.312 646 301.099 645 301.099 645 c 1
 596.099 645 l 2
 620.099 645 628.312 646 645.949 649 c 0
 648.949 649 649.736 648 649.312 646 c 0
 649.611 638 634.206 542 630.491 501 c 1
 619.691 496.3 598.445 494.2 586.428 496 c 1
 579.095 565 566.172 603 491.172 603 c 2
 406.172 603 l 2
 382.172 603 359.857 578 354.756 554 c 2
 315.008 367 l 1
 396.008 367 l 2
 463.008 367 485.496 374 500.187 429 c 1
 507.462 435 538.462 435 543.187 429 c 1
 535.811 399 530.134 377 522.907 343 c 0
 515.68 309 512.642 290 506.202 255 c 1
 498.927 249 467.927 249 463.202 255 c 1
 469.767 300 454.381 317 385.381 317 c 2
 304.381 317 l 1
 256.13 90 l 2
 250.391 63 264.928 42 286.928 42 c 2
 387.928 42 l 2
 463.928 42 520.83 98 556.135 170 c 1
 569.915 173.2 590.947 171 600.072 165 c 1
 581.231 114 562.203 48 537.575 -2 c 1
 537.575 -2 508.103 -1.40039 473.93 -0.799805 c 1
 425.834 -11.5996 376.121 -70 363.367 -130 c 0
 356.565 -162 371.94 -172 389.44 -172 c 0
 406.44 -172 431.078 -169 449.267 -154 c 1
 459.378 -177 l 1
EndSplineSet
Substitution2: "LinLibertine-'c2sc' Versale nach Kapitaelchen 1" eogonek.sc
Position2: "'cpsp' Versalabstaende 1" dx=2 dy=0 dh=5 dv=0
EndChar

StartChar: eogonek
Encoding: 281 281 45
Width: 484
VWidth: 999
Flags: HW
HStem: -218 40<269.1 348.306> -10 56<218.732 346.305> 245 40<154 316> 402 42<199.114 288.493>
VStem: 34 115<124.669 245 285 306.603> 184 72<-166.748 -67.9608> 316 115<259 363.973>
LayerCount: 2
Fore
SplineSet
230.453 275 m 1
 366.453 275 l 1
 368.878 277 371.642 290 372.917 296 c 0
 389.921 376 358.447 402 331.447 402 c 0
 320.147 402 291.18 391.8 270.221 368 c 0
 252.306 347.7 238.893 310 230.453 275 c 1
453.42 129 m 1
 463.42 129 464.594 111 461.83 98 c 1
 422.521 54.2002 379.623 24.0996 336.788 7 c 1
 292.887 -29.7002 261.354 -68.9004 249.218 -126 c 0
 244.754 -147 259.916 -158 277.416 -158 c 0
 294.416 -158 319.054 -155 337.242 -140 c 1
 347.354 -163 l 1
 313.701 -199 265.663 -218 226.663 -218 c 0
 176.663 -218 144.252 -187 155.942 -132 c 0
 165.295 -88 208.729 -45.5 256.996 -9.90039 c 1
 255.296 -9.90039 253.574 -10 251.874 -10 c 0
 180.774 -10 135.854 5.90039 105.502 40 c 0
 70.9492 78.7998 66.6514 139.5 79.0859 198 c 0
 111.607 351 246.375 444 351.375 444 c 0
 498.375 444 511.607 351 493.54 266 c 0
 490.564 252 481.951 235 457.951 235 c 2
 217.951 235 l 1
 216.888 230 215.038 226 213.55 219 c 0
 192.72 121 231.154 76 309.154 76 c 0
 347.154 76 403.492 87 453.42 129 c 1
EndSplineSet
Substitution2: "LinLibertine-'smcp' Gemeine nach Kapitaelchen 1" eogonek.sc
AlternateSubs2: "LinLibertine-'aalt' Alle Alternativen zeigen 1" eogonek.sc
EndChar

StartChar: Ecaron
Encoding: 282 282 46
Width: 604
VWidth: 999
Flags: HW
HStem: -2 34<6.77002 80.9433> 0 42<241.31 449.205> 317 50<237 396.134> 603 42<241.649 436.3> 613 34<7.25781 80.9433> 698 136
VStem: 97 140<44.9117 317 367 599.635> 199 277 409 43<252.086 302.875 377.375 431.914> 481 43<498.655 551.392> 520 45<116.761 167.944>
LayerCount: 2
Fore
SplineSet
340.746 808 m 1
 342.871 818 352.422 830 362.272 834 c 1
 398.722 822 451.833 799 474.369 778 c 1
 509.045 800 569.934 823 609.272 834 c 1
 617.422 830 619.658 817 617.533 807 c 1
 569.794 780 510.867 738 468.428 703 c 1
 453.364 698 l 1
 424.229 735 375.219 782 340.746 808 c 1
396.008 367 m 2
 463.008 367 485.496 374 500.187 429 c 1
 507.462 435 538.462 435 543.187 429 c 1
 535.811 399 530.134 377 522.907 343 c 0
 515.68 309 512.642 290 506.202 255 c 1
 498.927 249 467.927 249 463.202 255 c 1
 469.767 300 454.381 317 385.381 317 c 2
 304.381 317 l 1
 256.13 90 l 2
 250.391 63 264.928 42 286.928 42 c 2
 387.928 42 l 2
 463.928 42 520.83 98 556.135 170 c 1
 569.915 173.2 590.947 171 600.072 165 c 1
 581.231 114 562.203 48 537.575 -2 c 1
 537.575 -2 448 0 400 0 c 2
 165 0 l 1
 165 0 58.7871 -1 9.5752 -2 c 1
 4.85059 4 9.52637 26 16.8018 32 c 1
 87.4395 35 105.29 39 122.932 122 c 2
 207.954 522 l 2
 225.597 605 209.659 610 140.297 613 c 1
 135.572 619 140.249 641 147.524 647 c 1
 197.312 646 301.099 645 301.099 645 c 1
 596.099 645 l 2
 620.099 645 628.312 646 645.949 649 c 0
 648.949 649 649.736 648 649.312 646 c 0
 649.611 638 634.206 542 630.491 501 c 1
 619.691 496.3 598.445 494.2 586.428 496 c 1
 579.095 565 566.172 603 491.172 603 c 2
 406.172 603 l 2
 382.172 603 359.857 578 354.756 554 c 2
 315.008 367 l 1
 396.008 367 l 2
EndSplineSet
Substitution2: "LinLibertine-'c2sc' Versale nach Kapitaelchen 1" ecaron.sc
Position2: "'cpsp' Versalabstaende 1" dx=2 dy=0 dh=5 dv=0
EndChar

StartChar: ecaron
Encoding: 283 283 47
Width: 484
VWidth: 999
Flags: HW
HStem: -10 86<216.361 345.445> 235 40<172 310> 402 42<205.631 284.5>
VStem: 37 130<127.941 235 275 306.352> 310 130<259 363.973>
LayerCount: 2
Fore
SplineSet
380.254 514 m 1
 330.254 514 l 1
 311.031 560 282.172 603 255.674 643 c 1
 283.5 661 l 1
 316.761 634 338.723 615 367.646 577 c 1
 409.297 613 443.761 634 488.5 661 c 1
 508.674 643 l 1
 464.172 603 419.244 561 380.254 514 c 1
230.453 275 m 1
 366.453 275 l 1
 368.878 277 371.642 290 372.917 296 c 0
 389.921 376 358.447 402 331.447 402 c 0
 320.147 402 291.18 391.8 270.221 368 c 0
 252.306 347.7 238.893 310 230.453 275 c 1
453.42 129 m 1
 463.42 129 464.594 111 461.83 98 c 1
 396.313 25 320.874 -10 251.874 -10 c 0
 180.774 -10 135.854 5.90039 105.502 40 c 0
 70.9492 78.7998 66.6514 139.5 79.0859 198 c 0
 111.607 351 246.375 444 351.375 444 c 0
 498.375 444 511.607 351 493.54 266 c 0
 490.564 252 481.951 235 457.951 235 c 2
 217.951 235 l 1
 216.888 230 215.038 226 213.55 219 c 0
 192.72 121 231.154 76 309.154 76 c 0
 347.154 76 403.492 87 453.42 129 c 1
EndSplineSet
Substitution2: "LinLibertine-'smcp' Gemeine nach Kapitaelchen 1" ecaron.sc
AlternateSubs2: "LinLibertine-'aalt' Alle Alternativen zeigen 1" ecaron.sc
EndChar

StartChar: Gcircumflex
Encoding: 284 284 48
Width: 755
VWidth: 999
Flags: HW
HStem: -10 42<327.927 511.946> 271 37<454.77 530.366 691.908 734.23> 616 42<307.193 507.087> 698 136
VStem: 32 151<199.242 425.667> 280 277 540 145<78.4212 260.935> 633 44<458.045 503.422>
LayerCount: 2
Fore
SplineSet
710.891 724 m 1
 708.766 714 699.357 702.2 689.364 698 c 1
 652.915 710 599.804 733 577.268 754 c 1
 542.592 732 481.702 709 442.364 698 c 1
 434.157 702.2 431.978 715 434.104 725 c 1
 481.843 752 541.013 794.2 583.209 829 c 1
 598.272 834 l 1
 627.329 797.1 676.417 750 710.891 724 c 1
546.862 658 m 0
 668.862 658 727.423 623 787.423 623 c 1
 779.119 551 774.491 501 774.563 459 c 1
 729.288 453 l 1
 721.568 539 668.935 616 523.935 616 c 0
 475.435 616 409.435 595.3 357.206 542 c 0
 307.022 490.8 270.722 412.7 252.506 327 c 0
 224.448 195 253.802 32 431.802 32 c 0
 485.802 32 514.928 42 555.729 74 c 1
 587.4 223 l 2
 595.924 263.1 569.61 266.8 515.603 271 c 1
 510.878 277 516.192 302 523.468 308 c 1
 570.255 307 638.042 306 677.042 306 c 0
 717.042 306 766.255 307 796.468 308 c 1
 801.192 302 795.878 277 788.603 271 c 1
 758.965 268 739.84 258 732.4 223 c 2
 707.531 106 l 2
 705.193 95 708.492 87 717.579 78 c 1
 639.102 24 517.874 -10 399.874 -10 c 0
 303.475 -10 211.235 12.4004 156.028 66 c 0
 96.1787 124.1 78.125 217 97.2549 307 c 0
 120.317 415.5 188.705 505.3 272.201 565.5 c 0
 357.958 627.4 459.662 658 546.862 658 c 0
EndSplineSet
Position2: "'cpsp' Versalabstaende 1" dx=2 dy=0 dh=5 dv=0
EndChar

StartChar: gcircumflex
Encoding: 285 285 49
Width: 521
VWidth: 999
Flags: HW
HStem: -238 42<178.622 331.027> -12 68<200.45 373.262> 135 37<205.129 289.171> 409 35<196.474 280.87> 424 43<370.607 460>
VStem: 38 94<-154.282 -55.8943> 62 106<210.3 365.373> 71 84<55.4643 131.752> 316 108<211.187 370.331> 406 91<-121.914 -39.1241>
LayerCount: 2
Fore
SplineSet
408.925 663 m 1
 428.51 614 457.157 570 485.442 529 c 1
 456.404 510 l 1
 418.931 536 394.182 556 367.046 593 c 1
 320.756 554 288.931 536 243.404 510 c 1
 222.442 529 l 1
 267.157 570 316.723 615 356.925 663 c 1
 408.925 663 l 1
351.216 288 m 0
 368.008 367 356.298 406 309.298 406 c 0
 270.298 406 246.559 379 230.83 305 c 0
 219.989 254 212.26 180 274.26 180 c 0
 300.26 180 330.811 192 351.216 288 c 0
169.687 -25 m 0
 148.687 -25 136.111 -23 126.961 -19 c 1
 111.71 -39 106.821 -62 99.5947 -96 c 0
 88.7539 -147 123.339 -196 189.339 -196 c 0
 227.639 -196 278.785 -193.9 313.505 -176.4 c 0
 350.358 -157.8 375.088 -117.2 382.783 -81 c 0
 394.091 -27.7998 246.486 -25 169.687 -25 c 0
550.747 394 m 0
 525.747 394 512.211 415 510.975 428 c 1
 509.25 434 503.524 440 494.524 440 c 0
 484.524 440 447.699 422 437.573 412 c 1
 465.622 384 485.757 347 473.854 291 c 0
 464.311 246.1 436.543 210.5 402.323 185 c 0
 361.804 154.8 312.183 142 261.183 142 c 0
 230.183 142 208.896 143 190.021 153 c 1
 182.471 141 169.995 127 166.594 111 c 0
 158.092 71 184.666 69 202.666 69 c 0
 276.166 69 425.479 62 458.652 36 c 0
 493.191 8.90039 493.858 -33.5996 489.31 -55 c 0
 465.928 -165 291.411 -238 152.411 -238 c 0
 104.512 -238 39.3652 -232.1 6.42578 -205 c 0
 -16.9717 -185.7 -19.3955 -143 -11.5312 -106 c 0
 -7.91797 -89 48.1982 -32 96.7246 -6 c 1
 78.4854 0.400391 67.9434 8.2002 61.6758 22 c 0
 54.8643 37 54.3936 48.9004 58.4541 68 c 0
 62.7471 88.2002 121.971 141 158.604 167.5 c 1
 116.236 194 98.502 247 108.917 296 c 0
 119.821 347.3 155.361 385.6 201.573 412 c 0
 239.243 433.5 283.275 444 326.375 444 c 0
 371.375 444 391.95 442 407.824 432 c 1
 442.351 458 507.365 491 551.365 491 c 0
 589.365 491 609.201 462 605.162 443 c 0
 597.298 406 578.747 394 550.747 394 c 0
EndSplineSet
EndChar

StartChar: Gbreve
Encoding: 286 286 50
Width: 755
VWidth: 999
Flags: HW
HStem: -10 42<327.927 511.946> 271 37<454.77 530.366 691.908 734.23> 616 42<307.193 507.087> 705 74<314.883 459.873>
VStem: 32 151<199.242 425.667> 253 28<808.109 830.75> 497 27<810.51 830.778> 540 145<78.4212 260.935> 633 44<458.045 503.422>
LayerCount: 2
Fore
SplineSet
700.422 830 m 1
 679.33 759 604.853 705 538.853 705 c 0
 465.853 705 419.543 760 429.422 830 c 1
 458.06 833 l 1
 457.77 794 501.582 779 554.582 779 c 0
 603.582 779 658.77 794 674.06 833 c 1
 700.422 830 l 1
546.862 658 m 0
 668.862 658 727.423 623 787.423 623 c 1
 779.119 551 774.491 501 774.563 459 c 1
 729.288 453 l 1
 721.568 539 668.935 616 523.935 616 c 0
 475.435 616 409.435 595.3 357.206 542 c 0
 307.022 490.8 270.722 412.7 252.506 327 c 0
 224.448 195 253.802 32 431.802 32 c 0
 485.802 32 514.928 42 555.729 74 c 1
 587.4 223 l 2
 595.924 263.1 569.61 266.8 515.603 271 c 1
 510.878 277 516.192 302 523.468 308 c 1
 570.255 307 638.042 306 677.042 306 c 0
 717.042 306 766.255 307 796.468 308 c 1
 801.192 302 795.878 277 788.603 271 c 1
 758.965 268 739.84 258 732.4 223 c 2
 707.531 106 l 2
 705.193 95 708.492 87 717.579 78 c 1
 639.102 24 517.874 -10 399.874 -10 c 0
 303.475 -10 211.235 12.4004 156.028 66 c 0
 96.1787 124.1 78.125 217 97.2549 307 c 0
 120.317 415.5 188.705 505.3 272.201 565.5 c 0
 357.958 627.4 459.662 658 546.862 658 c 0
EndSplineSet
Substitution2: "LinLibertine-'c2sc' Versale nach Kapitaelchen 1" gbreve.sc
Position2: "'cpsp' Versalabstaende 1" dx=2 dy=0 dh=5 dv=0
EndChar

StartChar: gbreve
Encoding: 287 287 51
Width: 521
VWidth: 999
Flags: HW
HStem: -238 42<178.622 331.027> -12 68<200.45 373.262> 135 37<205.129 289.171> 409 35<196.474 280.87> 424 43<370.607 460> 494 62<164.853 299.87>
VStem: 38 94<-154.282 -55.8943> 62 106<210.3 365.373> 71 84<55.4643 131.752> 97 32<600.278 635.062> 316 108<211.187 370.331> 336 31<601.121 635.161> 406 91<-121.914 -39.1241>
LayerCount: 2
Fore
SplineSet
269.974 635 m 1
 260.495 581 298.182 556 361.182 556 c 0
 408.182 556 468.37 571 484.974 635 c 1
 514.848 625 l 1
 482.529 520 396.452 482 345.452 482 c 0
 264.452 482 224.631 544 234.848 625 c 1
 269.974 635 l 1
351.216 288 m 0
 368.008 367 356.298 406 309.298 406 c 0
 270.298 406 246.559 379 230.83 305 c 0
 219.989 254 212.26 180 274.26 180 c 0
 300.26 180 330.811 192 351.216 288 c 0
169.687 -25 m 0
 148.687 -25 136.111 -23 126.961 -19 c 1
 111.71 -39 106.821 -62 99.5947 -96 c 0
 88.7539 -147 123.339 -196 189.339 -196 c 0
 227.639 -196 278.785 -193.9 313.505 -176.4 c 0
 350.358 -157.8 375.088 -117.2 382.783 -81 c 0
 394.091 -27.7998 246.486 -25 169.687 -25 c 0
550.747 394 m 0
 525.747 394 512.211 415 510.975 428 c 1
 509.25 434 503.524 440 494.524 440 c 0
 484.524 440 447.699 422 437.573 412 c 1
 465.622 384 485.757 347 473.854 291 c 0
 464.311 246.1 436.543 210.5 402.323 185 c 0
 361.804 154.8 312.183 142 261.183 142 c 0
 230.183 142 208.896 143 190.021 153 c 1
 182.471 141 169.995 127 166.594 111 c 0
 158.092 71 184.666 69 202.666 69 c 0
 276.166 69 425.479 62 458.652 36 c 0
 493.191 8.90039 493.858 -33.5996 489.31 -55 c 0
 465.928 -165 291.411 -238 152.411 -238 c 0
 104.512 -238 39.3652 -232.1 6.42578 -205 c 0
 -16.9717 -185.7 -19.3955 -143 -11.5312 -106 c 0
 -7.91797 -89 48.1982 -32 96.7246 -6 c 1
 78.4854 0.400391 67.9434 8.2002 61.6758 22 c 0
 54.8643 37 54.3936 48.9004 58.4541 68 c 0
 62.7471 88.2002 121.971 141 158.604 167.5 c 1
 116.236 194 98.502 247 108.917 296 c 0
 119.821 347.3 155.361 385.6 201.573 412 c 0
 239.243 433.5 283.275 444 326.375 444 c 0
 371.375 444 391.95 442 407.824 432 c 1
 442.351 458 507.365 491 551.365 491 c 0
 589.365 491 609.201 462 605.162 443 c 0
 597.298 406 578.747 394 550.747 394 c 0
EndSplineSet
Substitution2: "LinLibertine-'smcp' Gemeine nach Kapitaelchen 1" gbreve.sc
AlternateSubs2: "LinLibertine-'aalt' Alle Alternativen zeigen 1" gbreve.sc
EndChar

StartChar: Gdotaccent
Encoding: 288 288 52
Width: 755
VWidth: 999
Flags: HW
HStem: -10 42<327.927 511.946> 271 37<454.77 530.366 691.908 734.23> 616 42<307.193 507.087> 705 128<337.302 437.126>
VStem: 32 151<199.242 425.667> 321 135<723.993 815.845> 540 145<78.4212 260.935> 633 44<458.045 503.422>
LayerCount: 2
Fore
SplineSet
502.881 771 m 0
 510.108 805 544.06 833 578.06 833 c 0
 612.06 833 634.108 805 626.881 771 c 0
 619.654 737 585.702 709 551.702 709 c 0
 517.702 709 495.654 737 502.881 771 c 0
546.862 658 m 0
 668.862 658 727.423 623 787.423 623 c 1
 779.119 551 774.491 501 774.563 459 c 1
 729.288 453 l 1
 721.568 539 668.935 616 523.935 616 c 0
 475.435 616 409.435 595.3 357.206 542 c 0
 307.022 490.8 270.722 412.7 252.506 327 c 0
 224.448 195 253.802 32 431.802 32 c 0
 485.802 32 514.928 42 555.729 74 c 1
 587.4 223 l 2
 595.924 263.1 569.61 266.8 515.603 271 c 1
 510.878 277 516.192 302 523.468 308 c 1
 570.255 307 638.042 306 677.042 306 c 0
 717.042 306 766.255 307 796.468 308 c 1
 801.192 302 795.878 277 788.603 271 c 1
 758.965 268 739.84 258 732.4 223 c 2
 707.531 106 l 2
 705.193 95 708.492 87 717.579 78 c 1
 639.102 24 517.874 -10 399.874 -10 c 0
 303.475 -10 211.235 12.4004 156.028 66 c 0
 96.1787 124.1 78.125 217 97.2549 307 c 0
 120.317 415.5 188.705 505.3 272.201 565.5 c 0
 357.958 627.4 459.662 658 546.862 658 c 0
EndSplineSet
Position2: "'cpsp' Versalabstaende 1" dx=2 dy=0 dh=5 dv=0
EndChar

StartChar: gdotaccent
Encoding: 289 289 53
Width: 521
VWidth: 999
Flags: HW
HStem: -238 42<167.689 332.918> -25 94<154.499 363.029> 135 38<193.298 271.19> 406 38<184.038 264.797> 430 51<359.912 466> 514 128<180.302 280.126>
VStem: 19 109<-158.325 -66.8839> 46 120<217.796 364.884> 52 99<58.4478 119> 164 135<532.993 624.845> 290 122<210.992 366.087> 392 101<-122.686 -50.2685>
LayerCount: 2
Fore
SplineSet
290.684 596 m 0
 297.061 626 326.862 658 373.862 658 c 0
 415.862 658 431.21 622 424.834 592 c 0
 419.307 566 385.655 530 340.655 530 c 0
 300.655 530 283.669 563 290.684 596 c 0
351.216 288 m 0
 368.008 367 356.298 406 309.298 406 c 0
 270.298 406 246.559 379 230.83 305 c 0
 219.989 254 212.26 180 274.26 180 c 0
 300.26 180 330.811 192 351.216 288 c 0
169.687 -25 m 0
 148.687 -25 136.111 -23 126.961 -19 c 1
 111.71 -39 106.821 -62 99.5947 -96 c 0
 88.7539 -147 123.339 -196 189.339 -196 c 0
 227.639 -196 278.785 -193.9 313.505 -176.4 c 0
 350.358 -157.8 375.088 -117.2 382.783 -81 c 0
 394.091 -27.7998 246.486 -25 169.687 -25 c 0
550.747 394 m 0
 525.747 394 512.211 415 510.975 428 c 1
 509.25 434 503.524 440 494.524 440 c 0
 484.524 440 447.699 422 437.573 412 c 1
 465.622 384 485.757 347 473.854 291 c 0
 464.311 246.1 436.543 210.5 402.323 185 c 0
 361.804 154.8 312.183 142 261.183 142 c 0
 230.183 142 208.896 143 190.021 153 c 1
 182.471 141 169.995 127 166.594 111 c 0
 158.092 71 184.666 69 202.666 69 c 0
 276.166 69 425.479 62 458.652 36 c 0
 493.191 8.90039 493.858 -33.5996 489.31 -55 c 0
 465.928 -165 291.411 -238 152.411 -238 c 0
 104.512 -238 39.3652 -232.1 6.42578 -205 c 0
 -16.9717 -185.7 -19.3955 -143 -11.5312 -106 c 0
 -7.91797 -89 48.1982 -32 96.7246 -6 c 1
 78.4854 0.400391 67.9434 8.2002 61.6758 22 c 0
 54.8643 37 54.3936 48.9004 58.4541 68 c 0
 62.7471 88.2002 121.971 141 158.604 167.5 c 1
 116.236 194 98.502 247 108.917 296 c 0
 119.821 347.3 155.361 385.6 201.573 412 c 0
 239.243 433.5 283.275 444 326.375 444 c 0
 371.375 444 391.95 442 407.824 432 c 1
 442.351 458 507.365 491 551.365 491 c 0
 589.365 491 609.201 462 605.162 443 c 0
 597.298 406 578.747 394 550.747 394 c 0
EndSplineSet
EndChar

StartChar: Gcommaaccent
Encoding: 290 290 54
Width: 755
VWidth: 999
Flags: HW
HStem: -238 28<316.372 347.68> -134 83<327.251 381.724> -10 42<327.927 511.946> 271 37<454.77 530.366 691.908 734.23> 616 42<307.193 507.087>
VStem: 32 151<199.242 425.667> 382 61<-187.192 -97.5> 540 145<78.4212 260.935> 633 44<458.045 503.422>
LayerCount: 2
Fore
SplineSet
360.159 -51 m 0
 392.159 -51 428.972 -66 415.58 -129 c 0
 403.465 -186 342.962 -226 272.411 -238 c 1
 263.687 -232 265.812 -222 272.363 -210 c 1
 314.701 -199 344.803 -175 348.629 -157 c 0
 352.88 -137 332.093 -136 324.518 -134 c 0
 303.58 -129 295.769 -114 301.082 -89 c 0
 304.696 -72 337.159 -51 360.159 -51 c 0
546.862 658 m 0
 668.862 658 727.423 623 787.423 623 c 1
 779.119 551 774.491 501 774.563 459 c 1
 729.288 453 l 1
 721.568 539 668.935 616 523.935 616 c 0
 475.435 616 409.435 595.3 357.206 542 c 0
 307.022 490.8 270.722 412.7 252.506 327 c 0
 224.448 195 253.802 32 431.802 32 c 0
 485.802 32 514.928 42 555.729 74 c 1
 587.4 223 l 2
 595.924 263.1 569.61 266.8 515.603 271 c 1
 510.878 277 516.192 302 523.468 308 c 1
 570.255 307 638.042 306 677.042 306 c 0
 717.042 306 766.255 307 796.468 308 c 1
 801.192 302 795.878 277 788.603 271 c 1
 758.965 268 739.84 258 732.4 223 c 2
 707.531 106 l 2
 705.193 95 708.492 87 717.579 78 c 1
 639.102 24 517.874 -10 399.874 -10 c 0
 303.475 -10 211.235 12.4004 156.028 66 c 0
 96.1787 124.1 78.125 217 97.2549 307 c 0
 120.317 415.5 188.705 505.3 272.201 565.5 c 0
 357.958 627.4 459.662 658 546.862 658 c 0
EndSplineSet
Position2: "'cpsp' Versalabstaende 1" dx=2 dy=0 dh=5 dv=0
EndChar

StartChar: gcommaaccent
Encoding: 291 291 55
Width: 521
VWidth: 999
Flags: HW
HStem: -238 42<178.622 331.027> -12 68<200.45 373.262> 135 37<205.129 289.171> 409 35<196.474 280.87> 424 43<370.607 460> 511 82<199.561 272.708> 673 17<251.498 273>
VStem: 38 94<-154.282 -55.8943> 62 106<210.3 365.373> 71 84<55.4643 131.752> 166 32<584 635.93> 316 108<211.187 370.331> 406 91<-121.914 -39.1241>
LayerCount: 2
Fore
SplineSet
339.979 508 m 0
 307.979 508 271.167 523 284.559 586 c 0
 296.674 643 357.176 683 427.727 695 c 1
 436.451 689 434.326 679 427.775 667 c 1
 385.438 656 355.336 632 351.51 614 c 0
 347.259 594 368.046 593 375.621 591 c 0
 396.559 586 404.37 571 399.056 546 c 0
 395.442 529 362.979 508 339.979 508 c 0
351.216 288 m 0
 368.008 367 356.298 406 309.298 406 c 0
 270.298 406 246.559 379 230.83 305 c 0
 219.989 254 212.26 180 274.26 180 c 0
 300.26 180 330.811 192 351.216 288 c 0
169.687 -25 m 0
 148.687 -25 136.111 -23 126.961 -19 c 1
 111.71 -39 106.821 -62 99.5947 -96 c 0
 88.7539 -147 123.339 -196 189.339 -196 c 0
 227.639 -196 278.785 -193.9 313.505 -176.4 c 0
 350.358 -157.8 375.088 -117.2 382.783 -81 c 0
 394.091 -27.7998 246.486 -25 169.687 -25 c 0
550.747 394 m 0
 525.747 394 512.211 415 510.975 428 c 1
 509.25 434 503.524 440 494.524 440 c 0
 484.524 440 447.699 422 437.573 412 c 1
 465.622 384 485.757 347 473.854 291 c 0
 464.311 246.1 436.543 210.5 402.323 185 c 0
 361.804 154.8 312.183 142 261.183 142 c 0
 230.183 142 208.896 143 190.021 153 c 1
 182.471 141 169.995 127 166.594 111 c 0
 158.092 71 184.666 69 202.666 69 c 0
 276.166 69 425.479 62 458.652 36 c 0
 493.191 8.90039 493.858 -33.5996 489.31 -55 c 0
 465.928 -165 291.411 -238 152.411 -238 c 0
 104.512 -238 39.3652 -232.1 6.42578 -205 c 0
 -16.9717 -185.7 -19.3955 -143 -11.5312 -106 c 0
 -7.91797 -89 48.1982 -32 96.7246 -6 c 1
 78.4854 0.400391 67.9434 8.2002 61.6758 22 c 0
 54.8643 37 54.3936 48.9004 58.4541 68 c 0
 62.7471 88.2002 121.971 141 158.604 167.5 c 1
 116.236 194 98.502 247 108.917 296 c 0
 119.821 347.3 155.361 385.6 201.573 412 c 0
 239.243 433.5 283.275 444 326.375 444 c 0
 371.375 444 391.95 442 407.824 432 c 1
 442.351 458 507.365 491 551.365 491 c 0
 589.365 491 609.201 462 605.162 443 c 0
 597.298 406 578.747 394 550.747 394 c 0
EndSplineSet
EndChar

StartChar: Hcircumflex
Encoding: 292 292 56
Width: 767
VWidth: 999
Flags: HW
HStem: -2 34<25.6167 94.4056 273.594 342.383 425.617 494.406 673.594 742.383> 319 48<222 522> 613 34<25.6167 94.4056 273.594 342.383 425.617 494.406 673.594 742.383> 698 136
VStem: 114 140<47 598> 250 277 514 140<47 598>
LayerCount: 2
Fore
SplineSet
680.891 724 m 1
 678.766 714 669.357 702.2 659.364 698 c 1
 622.915 710 569.804 733 547.268 754 c 1
 512.592 732 451.702 709 412.364 698 c 1
 404.157 702.2 401.978 715 404.104 725 c 1
 451.843 752 511.013 794.2 553.209 829 c 1
 568.272 834 l 1
 597.329 797.1 646.417 750 680.891 724 c 1
625.167 523 m 2
 642.81 606 615.659 610 561.297 613 c 1
 552.572 619 557.249 641 568.524 647 c 1
 608.312 646 682.099 645 722.099 645 c 0
 762.099 645 834.312 646 874.524 647 c 1
 883.249 641 878.572 619 867.297 613 c 1
 811.659 610 782.81 606 765.167 523 c 2
 679.932 122 l 2
 662.29 39 689.439 35 743.802 32 c 1
 752.526 26 747.851 4 736.575 -2 c 1
 696.787 -1 625 0 585 0 c 0
 545 0 470.787 -1 430.575 -2 c 1
 421.851 4 426.526 26 437.802 32 c 1
 493.439 35 522.29 39 539.932 122 c 2
 581.806 319 l 1
 321.806 319 l 1
 279.932 122 l 2
 262.29 39 289.439 35 343.802 32 c 1
 352.526 26 347.851 4 336.575 -2 c 1
 296.787 -1 225 0 185 0 c 0
 145 0 70.7871 -1 30.5752 -2 c 1
 21.8506 4 26.5264 26 37.8018 32 c 1
 93.4395 35 122.29 39 139.932 122 c 2
 225.167 523 l 2
 242.81 606 215.659 610 161.297 613 c 1
 152.572 619 157.249 641 168.524 647 c 1
 208.312 646 282.099 645 322.099 645 c 0
 362.099 645 434.312 646 474.524 647 c 1
 483.249 641 478.572 619 467.297 613 c 1
 411.659 610 382.81 606 365.167 523 c 2
 332.008 367 l 1
 592.008 367 l 1
 625.167 523 l 2
EndSplineSet
Position2: "'cpsp' Versalabstaende 1" dx=2 dy=0 dh=5 dv=0
EndChar

StartChar: hcircumflex
Encoding: 293 293 57
Width: 619
VWidth: 999
Flags: HW
HStem: -2 34<19.77 83.2627 243.609 290.23 331.77 378.004 538.737 602.23> 370 74<308.934 427> 638 34<29.1436 89.8851> 678 20<198.5 221.5>
VStem: 100 130<44.1062 341 381 631.241> 229 1<341 381> 392 130<44.1813 347.679>
LayerCount: 2
Fore
SplineSet
551.364 698 m 1
 570.949 649 599.597 605 627.882 564 c 1
 598.844 545 l 1
 561.37 571 536.621 591 509.485 628 c 1
 463.195 589 431.37 571 385.844 545 c 1
 364.882 564 l 1
 409.597 605 459.162 650 499.364 698 c 1
 551.364 698 l 1
555.207 128 m 2
 537.353 44 551.439 35 611.802 32 c 1
 616.526 26 611.851 4 604.575 -2 c 1
 561.787 -1 518.4 0 463 0 c 0
 415.4 0 382.787 -1 340.575 -2 c 1
 335.851 4 340.526 26 347.802 32 c 1
 389.439 35 407.353 44 425.207 128 c 2
 460.704 295 l 2
 472.82 352 441.646 370 401.646 370 c 0
 383.746 370 347.616 358.1 300.483 331.6 c 1
 256.995 127 l 2
 239.353 44 252.439 35 293.802 32 c 1
 298.526 26 293.851 4 286.575 -2 c 1
 243.787 -1 212.6 0 165 0 c 0
 109.6 0 64.7871 -1 22.5752 -2 c 1
 17.8506 4 22.5264 26 29.8018 32 c 1
 91.4395 35 109.353 44 126.995 127 c 2
 220.095 565 l 2
 234.676 633.6 229.974 635 168.036 640 c 1
 164.949 649 166.287 660 171.838 672 c 1
 243.476 675 325.813 686 365.364 698 c 1
 374.364 698 380.515 694 378.602 685 c 2
 378.602 685 367.736 648 353.921 583 c 2
 308.986 371.6 l 1
 373.396 407.4 452.575 444 489.375 444 c 0
 575.375 444 611.747 394 588.366 284 c 2
 555.207 128 l 2
EndSplineSet
EndChar

StartChar: Hbar
Encoding: 294 294 58
Width: 767
VWidth: 999
Flags: HW
HStem: -2 34<25.6167 94.4056 273.594 342.383 425.617 494.406 673.594 742.383> 319 48<222 522> 494 42<27 740> 613 34<25.6167 94.4056 273.594 342.383 425.617 494.406 673.594 742.383>
VStem: 114 140<47 598> 514 140<47 598>
LayerCount: 2
Fore
SplineSet
618.896 493.5 m 1
 562.182 493.9 512.003 494 492.003 494 c 0
 471.903 494 418.981 493.9 358.896 493.5 c 1
 332.008 367 l 1
 592.008 367 l 1
 618.896 493.5 l 1
581.806 319 m 1
 321.806 319 l 1
 279.932 122 l 2
 262.29 39 289.439 35 343.802 32 c 1
 352.526 26 347.851 4 336.575 -2 c 1
 296.787 -1 225 0 185 0 c 0
 145 0 70.7871 -1 30.5752 -2 c 1
 21.8506 4 26.5264 26 37.8018 32 c 1
 93.4395 35 122.29 39 139.932 122 c 2
 218.642 492.3 l 1
 173.314 491.7 136.544 490.9 122.152 490 c 1
 141.78 540 l 1
 154.789 539.1 187.262 538.5 228.034 537.9 c 1
 239.315 606.5 212.202 610.2 161.297 613 c 1
 152.572 619 157.249 641 168.524 647 c 1
 208.312 646 282.099 645 322.099 645 c 0
 362.099 645 434.312 646 474.524 647 c 1
 483.249 641 478.572 619 467.297 613 c 1
 414.902 610.2 386.216 606.5 368.357 536.6 c 1
 431.772 536.2 488.83 536 509.931 536 c 0
 528.83 536 574.752 536.1 627.715 536.4 c 1
 639.595 606.4 612.602 610.2 561.297 613 c 1
 552.572 619 557.249 641 568.524 647 c 1
 608.312 646 682.099 645 722.099 645 c 0
 762.099 645 834.312 646 874.524 647 c 1
 883.249 641 878.572 619 867.297 613 c 1
 815.102 610.2 786.516 606.5 768.592 537.7 c 1
 812.819 538.3 849.168 539 863.78 540 c 1
 844.152 490 l 1
 830.844 490.9 798.692 491.6 758.62 492.2 c 1
 679.932 122 l 2
 662.29 39 689.439 35 743.802 32 c 1
 752.526 26 747.851 4 736.575 -2 c 1
 696.787 -1 625 0 585 0 c 0
 545 0 470.787 -1 430.575 -2 c 1
 421.851 4 426.526 26 437.802 32 c 1
 493.439 35 522.29 39 539.932 122 c 2
 581.806 319 l 1
EndSplineSet
Position2: "'cpsp' Versalabstaende 1" dx=2 dy=0 dh=5 dv=0
EndChar

StartChar: hbar
Encoding: 295 295 59
Width: 619
VWidth: 999
Flags: HW
HStem: -2 34<19.77 83.2627 243.609 290.23 331.77 378.004 538.737 602.23> 370 74<308.934 427> 524 42<24 313> 638 34<29.1436 89.8851> 678 20<198.5 221.5>
VStem: 100 130<44.1062 341 381 631.241> 229 1<341 381> 392 130<44.1813 347.679>
LayerCount: 2
Fore
SplineSet
555.207 128 m 2
 537.353 44 551.439 35 611.802 32 c 1
 616.526 26 611.851 4 604.575 -2 c 1
 561.787 -1 518.4 0 463 0 c 0
 415.4 0 382.787 -1 340.575 -2 c 1
 335.851 4 340.526 26 347.802 32 c 1
 389.439 35 407.353 44 425.207 128 c 2
 460.704 295 l 2
 472.82 352 441.646 370 401.646 370 c 0
 383.746 370 347.616 358.1 300.483 331.6 c 1
 256.995 127 l 2
 239.353 44 252.439 35 293.802 32 c 1
 298.526 26 293.851 4 286.575 -2 c 1
 243.787 -1 212.6 0 165 0 c 0
 109.6 0 64.7871 -1 22.5752 -2 c 1
 17.8506 4 22.5264 26 29.8018 32 c 1
 91.4395 35 109.353 44 126.995 127 c 2
 211.252 523.4 l 1
 181.324 522.8 152.312 521.8 125.529 520 c 1
 145.157 570 l 1
 168.518 568.4 194.005 567.4 220.477 566.8 c 1
 234.576 633.6 229.474 635 168.036 640 c 1
 164.949 649 166.287 660 171.838 672 c 1
 243.476 675 325.813 686 365.364 698 c 1
 374.364 698 380.515 694 378.602 685 c 2
 378.602 685 367.736 648 353.921 583 c 2
 350.413 566.5 l 1
 382.841 567.1 414.253 568.1 443.157 570 c 1
 423.529 520 l 1
 398.091 521.7 370.225 522.8 341.252 523.4 c 1
 308.986 371.6 l 1
 373.396 407.4 452.575 444 489.375 444 c 0
 575.375 444 611.747 394 588.366 284 c 2
 555.207 128 l 2
EndSplineSet
EndChar

StartChar: Itilde
Encoding: 296 296 60
Width: 367
VWidth: 999
Flags: HW
HStem: -2 34<25.6167 94.4056 273.594 342.383> 613 34<25.6167 94.4056 273.594 342.383> 692 70<192.399 293.905> 730 71<85.8584 185.467>
VStem: 46 26<694.865 716.979> 114 140<47 598> 307 28<782.298 798.118>
LayerCount: 2
Fore
SplineSet
419.968 762 m 0
 433.968 762 456.456 769 478.108 805 c 1
 492.108 805 504.407 797 501.856 785 c 1
 472.528 727 428.089 692 391.089 692 c 0
 368.089 692 347.364 698 330.553 713 c 1
 313.316 726 294.166 730 276.166 730 c 0
 254.166 730 237.741 728 218.664 690 c 1
 206.664 690 193.515 694 196.49 708 c 1
 223.33 759 264.258 801 299.258 801 c 0
 330.258 801 351.345 792 367.944 776 c 0
 382.968 762 408.968 762 419.968 762 c 0
225.167 523 m 2
 242.81 606 215.659 610 161.297 613 c 1
 152.572 619 157.249 641 168.524 647 c 1
 208.312 646 282.099 645 322.099 645 c 0
 362.099 645 434.312 646 474.524 647 c 1
 483.249 641 478.572 619 467.297 613 c 1
 411.659 610 382.81 606 365.167 523 c 2
 279.932 122 l 2
 262.29 39 289.439 35 343.802 32 c 1
 352.526 26 347.851 4 336.575 -2 c 1
 296.787 -1 225 0 185 0 c 0
 145 0 70.7871 -1 30.5752 -2 c 1
 21.8506 4 26.5264 26 37.8018 32 c 1
 93.4395 35 122.29 39 139.932 122 c 2
 225.167 523 l 2
EndSplineSet
Position2: "'cpsp' Versalabstaende 1" dx=2 dy=0 dh=5 dv=0
EndChar

StartChar: itilde
Encoding: 297 297 61
Width: 322
VWidth: 999
Flags: HW
HStem: -2 34<26.77 89.8255 244.175 307.23> 382 34<35.6452 91.2285> 519 70<148.559 239.914> 557 71<52.6726 142.321>
VStem: 16.8 23.4<521.865 543.979> 102 130<41.4929 373.871> 251.7 25.2<609.298 625.118>
LayerCount: 2
Fore
SplineSet
332.796 589 m 0
 345.396 589 365.784 596 386.036 632 c 1
 398.636 632 409.535 624 406.984 612 c 1
 379.356 554 338.617 519 305.316 519 c 0
 284.617 519 266.092 525 251.28 540 c 1
 236.044 553 218.894 557 202.694 557 c 0
 182.894 557 168.069 555 150.092 517 c 1
 139.292 517 127.542 521 130.518 535 c 1
 155.758 586 193.485 628 224.985 628 c 0
 252.886 628 271.673 619 286.271 603 c 0
 299.496 589 322.896 589 332.796 589 c 0
257.932 122 m 2
 240.29 39 250.652 36 310.802 32 c 1
 315.526 26 310.851 4 303.575 -2 c 1
 260.787 -1 220.4 0 167 0 c 0
 113.6 0 71.7871 -1 29.5752 -2 c 1
 24.8506 4 29.5264 26 36.8018 32 c 1
 98.8643 37 110.29 39 127.932 122 c 2
 168.743 314 l 2
 180.858 371 172.038 378.9 118.622 384 c 1
 117.897 390 120.148 410 123.424 416 c 1
 194.337 425 276.537 433 307.375 444 c 1
 321.375 444 329.1 438 326.762 427 c 2
 326.762 427 310.858 371 300.295 321.3 c 2
 257.932 122 l 2
EndSplineSet
EndChar

StartChar: Imacron
Encoding: 298 298 62
Width: 367
VWidth: 999
Flags: HW
HStem: -2 34<25.6167 94.4056 273.594 342.383> 613 34<25.6167 94.4056 273.594 342.383> 755 50<26.1816 336.647>
VStem: 24 315<755.682 804.598> 114 140<47 598>
LayerCount: 2
Fore
SplineSet
473.48 755 m 2
 199.48 755 l 2
 188.48 755 186.394 764 188.307 773 c 0
 190.856 785 207.108 805 220.108 805 c 2
 496.108 805 l 2
 506.108 805 508.195 796 506.494 788 c 0
 503.731 775 487.48 755 473.48 755 c 2
225.167 523 m 2
 242.81 606 215.659 610 161.297 613 c 1
 152.572 619 157.249 641 168.524 647 c 1
 208.312 646 282.099 645 322.099 645 c 0
 362.099 645 434.312 646 474.524 647 c 1
 483.249 641 478.572 619 467.297 613 c 1
 411.659 610 382.81 606 365.167 523 c 2
 279.932 122 l 2
 262.29 39 289.439 35 343.802 32 c 1
 352.526 26 347.851 4 336.575 -2 c 1
 296.787 -1 225 0 185 0 c 0
 145 0 70.7871 -1 30.5752 -2 c 1
 21.8506 4 26.5264 26 37.8018 32 c 1
 93.4395 35 122.29 39 139.932 122 c 2
 225.167 523 l 2
EndSplineSet
Position2: "'cpsp' Versalabstaende 1" dx=2 dy=0 dh=5 dv=0
EndChar

StartChar: imacron
Encoding: 299 299 63
Width: 322
VWidth: 999
Flags: HW
HStem: -2 34<26.77 89.8255 244.175 307.23> 382 34<35.6452 91.2285> 543 50<16.0634 295.483>
VStem: 14.1 283.5<543.682 592.598> 102 130<41.4929 373.871>
LayerCount: 2
Fore
SplineSet
389.618 543 m 2
 143.019 543 l 2
 133.118 543 131.432 552 133.344 561 c 0
 135.895 573 150.946 593 162.646 593 c 2
 411.046 593 l 2
 420.046 593 421.733 584 420.032 576 c 0
 417.27 563 402.218 543 389.618 543 c 2
257.932 122 m 2
 240.29 39 250.652 36 310.802 32 c 1
 315.526 26 310.851 4 303.575 -2 c 1
 260.787 -1 220.4 0 167 0 c 0
 113.6 0 71.7871 -1 29.5752 -2 c 1
 24.8506 4 29.5264 26 36.8018 32 c 1
 98.8643 37 110.29 39 127.932 122 c 2
 168.743 314 l 2
 180.858 371 172.038 378.9 118.622 384 c 1
 117.897 390 120.148 410 123.424 416 c 1
 194.337 425 276.537 433 307.375 444 c 1
 321.375 444 329.1 438 326.762 427 c 2
 326.762 427 310.858 371 300.295 321.3 c 2
 257.932 122 l 2
EndSplineSet
EndChar

StartChar: Ibreve
Encoding: 300 300 64
Width: 367
VWidth: 999
Flags: HW
HStem: -2 34<25.6167 94.4056 273.594 342.383> 613 34<25.6167 94.4056 273.594 342.383> 705 74<108.883 253.873>
VStem: 47 28<808.109 830.75> 114 140<47 598> 291 27<810.51 830.778>
LayerCount: 2
Fore
SplineSet
494.422 830 m 1
 473.33 759 398.853 705 332.853 705 c 0
 259.853 705 213.543 760 223.422 830 c 1
 252.06 833 l 1
 251.77 794 295.582 779 348.582 779 c 0
 397.582 779 452.77 794 468.06 833 c 1
 494.422 830 l 1
225.167 523 m 2
 242.81 606 215.659 610 161.297 613 c 1
 152.572 619 157.249 641 168.524 647 c 1
 208.312 646 282.099 645 322.099 645 c 0
 362.099 645 434.312 646 474.524 647 c 1
 483.249 641 478.572 619 467.297 613 c 1
 411.659 610 382.81 606 365.167 523 c 2
 279.932 122 l 2
 262.29 39 289.439 35 343.802 32 c 1
 352.526 26 347.851 4 336.575 -2 c 1
 296.787 -1 225 0 185 0 c 0
 145 0 70.7871 -1 30.5752 -2 c 1
 21.8506 4 26.5264 26 37.8018 32 c 1
 93.4395 35 122.29 39 139.932 122 c 2
 225.167 523 l 2
EndSplineSet
Position2: "'cpsp' Versalabstaende 1" dx=2 dy=0 dh=5 dv=0
EndChar

StartChar: ibreve
Encoding: 301 301 65
Width: 322
VWidth: 999
Flags: HW
HStem: -2 34<26.77 89.8255 244.175 307.23> 382 34<35.6452 91.2285> 514 74<84.5191 213.72>
VStem: 24.2 29.7<621.43 659.121> 102 130<41.4929 373.871> 247.4 28.8<624.913 659.188>
LayerCount: 2
Fore
SplineSet
195.675 667 m 1
 185.997 613 219.383 588 276.083 588 c 0
 318.383 588 372.872 603 389.175 667 c 1
 415.85 657 l 1
 384.531 552 306.254 514 260.354 514 c 0
 187.454 514 152.933 576 163.85 657 c 1
 195.675 667 l 1
257.932 122 m 2
 240.29 39 250.652 36 310.802 32 c 1
 315.526 26 310.851 4 303.575 -2 c 1
 260.787 -1 220.4 0 167 0 c 0
 113.6 0 71.7871 -1 29.5752 -2 c 1
 24.8506 4 29.5264 26 36.8018 32 c 1
 98.8643 37 110.29 39 127.932 122 c 2
 168.743 314 l 2
 180.858 371 172.038 378.9 118.622 384 c 1
 117.897 390 120.148 410 123.424 416 c 1
 194.337 425 276.537 433 307.375 444 c 1
 321.375 444 329.1 438 326.762 427 c 2
 326.762 427 310.858 371 300.295 321.3 c 2
 257.932 122 l 2
EndSplineSet
EndChar

StartChar: Iogonek
Encoding: 302 302 66
Width: 367
VWidth: 999
Flags: HW
HStem: -232 60<158.359 241.312> -2 34<25.6167 94.4056 273.594 342.383> 1 21<233.742 247> 613 34<25.6167 94.4056 273.594 342.383>
VStem: 79 92<-169.449 -74.1839> 114 140<47 598>
LayerCount: 2
Fore
SplineSet
239.378 -177 m 1
 205.726 -213 157.687 -232 118.687 -232 c 0
 99.3867 -232 84.4902 -225.4 72.0879 -216 c 0
 52.376 -201 41.6113 -175.9 50.0928 -136 c 0
 60.3799 -87.5996 119.896 -30.5996 178.4 0 c 1
 137.278 -0.0996094 68.666 -1.09961 30.5752 -2 c 1
 21.8506 4 26.5264 26 37.8018 32 c 1
 93.4395 35 122.29 39 139.932 122 c 2
 225.167 523 l 2
 242.81 606 215.659 610 161.297 613 c 1
 152.572 619 157.249 641 168.524 647 c 1
 208.312 646 282.099 645 322.099 645 c 0
 362.099 645 434.312 646 474.524 647 c 1
 483.249 641 478.572 619 467.297 613 c 1
 411.659 610 382.81 606 365.167 523 c 2
 279.932 122 l 2
 262.29 39 289.439 35 343.802 32 c 1
 352.526 26 347.851 4 336.575 -2 c 1
 315.281 -1.5 284.809 -0.900391 254.994 -0.5 c 1
 206.525 -10.7002 156.228 -69.5 143.367 -130 c 0
 136.565 -162 151.94 -172 169.44 -172 c 0
 186.44 -172 211.078 -169 229.267 -154 c 1
 239.378 -177 l 1
EndSplineSet
Position2: "'cpsp' Versalabstaende 1" dx=2 dy=0 dh=5 dv=0
EndChar

StartChar: iogonek
Encoding: 303 303 67
Width: 322
VWidth: 999
Flags: HW
HStem: -232 60<168.359 251.312> -2 34<26.77 89.8255 244.175 307.23> 1 21<243.742 257> 382 34<35.6452 91.2285> 514 128<113.302 213.126>
VStem: 89 92<-169.449 -74.1839> 97 135<532.993 624.845> 102 130<41.4929 373.871>
LayerCount: 2
Fore
SplineSet
239.378 -177 m 1
 205.726 -213 157.687 -232 118.687 -232 c 0
 99.3867 -232 84.4902 -225.4 72.0879 -216 c 0
 52.376 -201 41.6113 -175.9 50.0928 -136 c 0
 60.3799 -87.5996 119.896 -30.5996 178.4 0 c 1
 174.7 0 170.9 0 167 0 c 0
 113.6 0 71.7871 -1 29.5752 -2 c 1
 24.8506 4 29.5264 26 36.8018 32 c 1
 98.8643 37 110.29 39 127.932 122 c 2
 168.743 314 l 2
 180.858 371 172.038 378.9 118.622 384 c 1
 117.897 390 120.148 410 123.424 416 c 1
 194.337 425 276.537 433 307.375 444 c 1
 321.375 444 329.1 438 326.762 427 c 2
 326.762 427 310.858 371 300.295 321.3 c 2
 257.932 122 l 2
 240.29 39 250.652 36 310.802 32 c 1
 315.526 26 310.851 4 303.575 -2 c 1
 286.76 -1.59961 270.345 -1.2002 253.409 -0.900391 c 1
 205.449 -12 156.078 -70.2002 143.367 -130 c 0
 136.565 -162 151.94 -172 169.44 -172 c 0
 186.44 -172 211.078 -169 229.267 -154 c 1
 239.378 -177 l 1
223.684 596 m 0
 230.061 626 259.862 658 306.862 658 c 0
 348.862 658 364.21 622 357.834 592 c 0
 352.307 566 318.655 530 273.655 530 c 0
 233.655 530 216.669 563 223.684 596 c 0
EndSplineSet
EndChar

StartChar: Idotaccent
Encoding: 304 304 68
Width: 367
VWidth: 999
Flags: HW
HStem: -2 34<25.6167 94.4056 273.594 342.383> 613 34<25.6167 94.4056 273.594 342.383> 705 128<133.302 233.126>
VStem: 114 140<47 598> 117 135<723.993 815.845>
LayerCount: 2
Fore
SplineSet
284.881 771 m 0
 292.108 805 326.06 833 360.06 833 c 0
 394.06 833 416.108 805 408.881 771 c 0
 401.654 737 367.702 709 333.702 709 c 0
 299.702 709 277.654 737 284.881 771 c 0
225.167 523 m 2
 242.81 606 215.659 610 161.297 613 c 1
 152.572 619 157.249 641 168.524 647 c 1
 208.312 646 282.099 645 322.099 645 c 0
 362.099 645 434.312 646 474.524 647 c 1
 483.249 641 478.572 619 467.297 613 c 1
 411.659 610 382.81 606 365.167 523 c 2
 279.932 122 l 2
 262.29 39 289.439 35 343.802 32 c 1
 352.526 26 347.851 4 336.575 -2 c 1
 296.787 -1 225 0 185 0 c 0
 145 0 70.7871 -1 30.5752 -2 c 1
 21.8506 4 26.5264 26 37.8018 32 c 1
 93.4395 35 122.29 39 139.932 122 c 2
 225.167 523 l 2
EndSplineSet
Substitution2: "LinLibertine-'c2sc' Versale nach Kapitaelchen 1" idotaccent.sc
Position2: "'cpsp' Versalabstaende 1" dx=2 dy=0 dh=5 dv=0
EndChar

StartChar: afii10057
Encoding: 1032 1032 69
Width: 373
VWidth: 999
Flags: HW
HStem: -10 59<13.5 122.696> 613 34<40.77 123.807 295.92 361.23>
VStem: 141 140<154.751 599.635>
AnchorPoint: "top_akzent" 455.296 1027 basechar 0
LayerCount: 2
Fore
SplineSet
391.954 522 m 2
 340.516 280 l 2
 310.12 137 241.01 85.2002 189.203 48 c 0
 140.706 13.2002 84.874 -10 25.874 -10 c 0
 -3.12598 -10 -67.0244 14 -57.0342 61 c 0
 -50.8701 90 -5.13086 117 12.8691 117 c 0
 52.8691 117 51.918 89 61.3037 72 c 0
 68.541 59 84.415 49 102.415 49 c 0
 145.415 49 157.579 78 195.84 258 c 2
 251.954 522 l 2
 269.597 605 253.659 610 174.297 613 c 1
 169.572 619 174.249 641 181.524 647 c 1
 231.312 646 282.399 645 347.099 645 c 0
 404.799 645 446.312 646 495.524 647 c 1
 500.249 641 495.572 619 488.297 613 c 1
 427.659 610 409.597 605 391.954 522 c 2
EndSplineSet
EndChar

StartChar: afii10061
Encoding: 1036 1036 70
Width: 699
VWidth: 999
Flags: HW
HStem: -2 34<25.6167 94.4056 273.594 342.383> 0 33<638.873 689.23> 310 42<245 298.139> 558 104<516.288 611.581> 613 34<25.6167 94.4056 273.594 342.383> 701 132
VStem: 114 140<47 598> 370 202
LayerCount: 2
Fore
SplineSet
225.167 523 m 2
 242.81 606 215.659 610 161.297 613 c 1
 152.572 619 157.249 641 168.524 647 c 1
 208.312 646 282.099 645 322.099 645 c 0
 362.099 645 434.312 646 474.524 647 c 1
 483.249 641 478.572 619 467.297 613 c 1
 411.659 610 382.81 606 365.167 523 c 2
 328.82 352 l 1
 415.126 352.5 442.491 368.8 493.273 440.7 c 0
 518.44 476.3 549.793 533 573.775 563.5 c 0
 612.697 613 668.713 662 726.713 662 c 0
 774.713 662 784.974 635 780.085 612 c 0
 772.22 575 738.718 535 719.718 535 c 0
 707.718 535 695.143 537 688.269 547 c 0
 682.476 555.5 669.606 558 658.606 558 c 0
 644.606 558 636.713 558.5 612.931 536 c 0
 590.018 514.3 563.12 471.5 542.5 438 c 0
 520.633 402.4 501.297 369.3 469.032 353 c 1
 467.97 348 l 1
 488.832 345 506.732 324.3 525.517 296 c 0
 559.749 244.4 580.543 161.1 612.702 102.1 c 0
 634.715 61.7002 665.258 36.5 703.015 33 c 1
 707.739 27 703.062 5 695.787 -1 c 1
 674.149 -4 631.725 -6 611.725 -6 c 0
 591.725 -6 556.813 -3.7002 538 0 c 0
 477.551 12 455.69 55 423.222 161 c 0
 403.97 223.8 372.442 306 319.871 309.9 c 1
 279.932 122 l 2
 262.29 39 289.439 35 343.802 32 c 1
 352.526 26 347.851 4 336.575 -2 c 1
 296.787 -1 225 0 185 0 c 0
 145 0 70.7871 -1 30.5752 -2 c 1
 21.8506 4 26.5264 26 37.8018 32 c 1
 93.4395 35 122.29 39 139.932 122 c 2
 225.167 523 l 2
684.06 833 m 1
 706.394 821.4 728.947 798.6 737.369 778 c 1
 731.818 766 l 1
 575.49 708 l 2
 559.757 702.2 548.002 701 539.002 701 c 0
 530.002 701 520.49 708 522.19 716 c 0
 523.679 723 525.189 728.7 536.654 737 c 0
 561.48 755 638.108 805 684.06 833 c 1
EndSplineSet
LCarets2: 1 0 
EndChar

StartChar: uni040D
Encoding: 1037 1037 71
Width: 783
VWidth: 999
Flags: HW
HStem: -1 34<20 99.155 235.539 315 468 548.095 683.276 765> 571 120 613 32<20 99.4609 236.442 315 468 547.537 685.451 764>
VStem: 106 123<38.5094 78 146 607.764> 253 212 555 122<38.2361 493 561 607.252>
DStem2: 229 146 229 78 0.617738 0.786384<0 474.258>
LayerCount: 2
Fore
SplineSet
797.944 569 m 2
 693.154 76 l 2
 686.565 45 699.015 33 739.015 33 c 2
 765.015 33 l 2
 770.015 33 773.377 30 772.102 24 c 2
 767.213 1 l 1
 764.787 -1 l 1
 764.787 -1 660.213 1 621.213 1 c 0
 585.213 1 467.787 -1 467.787 -1 c 1
 466.213 1 l 1
 471.102 24 l 2
 472.377 30 476.015 33 481.015 33 c 2
 507.015 33 l 2
 549.015 33 565.203 48 571.154 76 c 2
 659.79 493 l 1
 245.579 78 l 1
 245.367 77 l 2
 238.777 46 250.015 33 290.015 33 c 2
 317.015 33 l 2
 320.015 33 323.377 30 322.102 24 c 2
 317.213 1 l 1
 314.787 -1 l 1
 314.787 -1 208.213 1 169.213 1 c 0
 134.213 1 19.7871 -1 19.7871 -1 c 1
 18.2129 1 l 1
 23.1016 24 l 2
 24.377 30 28.0146 33 32.0146 33 c 2
 59.0146 33 l 2
 100.015 33 116.415 49 122.367 77 c 2
 227.157 570 l 2
 233.746 601 222.297 613 182.297 613 c 2
 155.297 613 l 2
 151.297 613 148.935 616 149.998 621 c 2
 155.099 645 l 1
 157.312 646 l 1
 157.312 646 263.887 644 303.887 644 c 0
 338.887 644 452.312 646 452.312 646 c 1
 454.099 645 l 1
 448.998 621 l 2
 447.935 616 444.297 613 440.297 613 c 2
 413.297 613 l 2
 372.297 613 356.108 598 350.157 570 c 2
 260.033 146 l 1
 674.244 561 l 1
 675.944 569 l 2
 682.534 600 670.297 613 630.297 613 c 2
 604.297 613 l 2
 600.297 613 596.935 616 597.998 621 c 2
 603.099 645 l 1
 605.312 646 l 1
 605.312 646 714.887 644 753.887 644 c 0
 789.887 644 901.524 647 901.524 647 c 1
 903.099 645 l 1
 898.21 622 l 2
 896.935 616 893.297 613 888.297 613 c 2
 862.297 613 l 2
 821.297 613 803.896 597 797.944 569 c 2
493.422 830 m 1
 465.871 818 434.195 796 416.731 775 c 1
 417.181 763 l 1
 548.853 705 l 2
 561.577 699 573.364 698 582.364 698 c 0
 591.364 698 603.853 705 605.553 713 c 0
 607.041 720 608.316 726 600.017 734 c 0
 582.843 752 527.471 802 493.422 830 c 1
EndSplineSet
LCarets2: 1 0 
EndChar

StartChar: afii10062
Encoding: 1038 1038 72
Width: 621
VWidth: 999
Flags: HW
HStem: -22 62<133 229.447> 618 28<1 51.985 192 235 391 425 520.846 579> 697 31<266.536 357.309>
VStem: 187 70<735.681 802.162> 366 70<734.774 802.125>
DStem2: 170 575 88 559 0.41865 -0.908148<-32.5036 379.947> 283 136 342 161 0.370296 0.928914<-102.293 0 103.423 504.868>
LayerCount: 2
Fore
SplineSet
224.928 42 m 0
 254.928 42 275.628 50 317.444 115 c 1
 206.819 559 l 2
 201.849 578.9 189.297 613 140.297 613 c 0
 134.297 613 130.935 616 131.998 621 c 2
 137.099 645 l 1
 138.312 646 l 1
 138.312 646 201.099 645 242.099 645 c 0
 292.099 645 414.312 646 414.312 646 c 1
 416.099 645 l 1
 410.998 621 l 2
 409.935 616 406.297 613 402.297 613 c 2
 364.297 613 l 2
 331.297 613 328.959 602 334.22 575 c 1
 411.989 254 l 1
 601.22 575 l 2
 622.659 610 617.297 613 576.297 613 c 2
 546.297 613 l 2
 543.297 613 540.935 616 541.998 621 c 2
 547.099 645 l 1
 549.312 646 l 1
 549.312 646 635.099 645 677.099 645 c 0
 709.099 645 757.312 646 757.312 646 c 1
 759.099 645 l 1
 753.998 621 l 2
 752.723 615 745.297 613 741.297 613 c 0
 695.297 613 683.81 606 660.307 566 c 2
 417.222 161 l 2
 351.053 52 280.324 -22 190.324 -22 c 0
 130.324 -22 85.7002 8 92.502 40 c 0
 98.4541 68 115.705 88 147.705 88 c 0
 172.705 88 186.367 77 192.816 65 c 0
 198.903 56 209.928 42 224.928 42 c 0
600.519 774 m 0
 589.466 722 522.152 697 459.152 697 c 0
 393.152 697 340.253 721 351.307 773 c 0
 355.982 795 369.896 804 396.896 804 c 0
 417.896 804 424.494 788 421.307 773 c 0
 420.881 771 418.818 766 418.605 765 c 0
 414.354 745 433.741 728 466.741 728 c 0
 496.741 728 524.717 742 529.394 764 c 0
 529.605 765 530.094 772 530.307 773 c 0
 533.494 788 545.896 804 568.896 804 c 0
 594.896 804 604.77 794 600.519 774 c 0
EndSplineSet
LCarets2: 1 0 
EndChar

StartChar: afii10020
Encoding: 1043 1043 73
Width: 551
VWidth: 999
Flags: HW
HStem: -2 34<11.6167 80.4056 259.594 328.383> 603 42<247.972 424.224> 613 34<11.6167 80.4056>
VStem: 100 140<47 598> 497 43<477.51 528.239>
LayerCount: 2
Fore
SplineSet
463.172 603 m 2
 403.172 603 l 2
 382.172 603 364.133 584 351.38 524 c 2
 265.932 122 l 2
 248.29 39 275.439 35 329.802 32 c 1
 338.526 26 333.851 4 322.575 -2 c 1
 240.787 -1 211 0 171 0 c 0
 131 0 16.5752 -2 16.5752 -2 c 1
 7.85059 4 12.5264 26 23.8018 32 c 1
 79.4395 35 108.29 39 125.932 122 c 2
 211.167 523 l 2
 228.81 606 201.659 610 147.297 613 c 1
 138.572 619 143.249 641 154.524 647 c 1
 154.524 647 269.099 645 308.099 645 c 2
 531.099 645 l 2
 560.099 645 651.524 647 651.524 647 c 1
 650.896 597 647.08 532 642.027 480 c 1
 630.965 475 609.539 473 597.965 475 c 1
 593.269 547 568.172 603 463.172 603 c 2
EndSplineSet
EndChar

StartChar: afii10021
Encoding: 1044 1044 74
Width: 696
VWidth: 999
Flags: HW
HStem: 0 44<203.009 462.408> 600 46<287.63 462.754> 611 35<149 219.411 590.322 660>
VStem: 34 43<-141 -76.4499> 464 122<44.8806 598.625> 620 43<-141 -83.4829>
LayerCount: 2
Fore
SplineSet
123.053 52 m 0
 153.005 80 186.82 145 251.979 301 c 1
 298.211 415 330.829 512 344.433 576 c 0
 349.534 600 342.872 611 316.872 611 c 2
 286.872 611 l 2
 281.872 611 279.935 616 280.785 620 c 2
 284.398 637 l 2
 285.249 641 292.312 646 299.312 646 c 2
 792.312 646 l 2
 795.312 646 796.461 642 795.823 639 c 2
 791.785 620 l 2
 790.51 614 785.872 611 781.872 611 c 2
 752.872 611 l 2
 720.872 611 712.471 595 705.031 560 c 2
 603.643 83 l 2
 595.777 46 616.015 33 633.015 33 c 0
 655.015 33 660.251 20 657.7 8 c 2
 633.029 -141 l 1
 606.029 -141 590.029 -141 590.029 -141 c 1
 589.933 -85 567 0 487 0 c 2
 202 0 l 2
 118 0 69.082 -89 47.0293 -141 c 1
 4.0293 -141 l 1
 42.7002 8 l 2
 45.251 20 59.0146 33 69.0146 33 c 0
 89.0146 33 102.015 33 123.053 52 c 0
553.534 600 m 2
 451.534 600 l 2
 424.534 600 410.559 586 403.244 561 c 0
 373.363 459 338.633 361 311.279 293 c 0
 264.21 176 220.43 82 215.966 61 c 0
 213.415 49 224.353 44 239.353 44 c 2
 436.353 44 l 2
 460.353 44 473.99 47 481.643 83 c 2
 583.244 561 l 2
 589.621 591 585.534 600 553.534 600 c 2
EndSplineSet
EndChar

StartChar: afii10024
Encoding: 1046 1046 75
Width: 1014
VWidth: 999
Flags: HW
HStem: -2 34<348.617 417.406 596.594 665.383> -1 34<-9.22998 42.4753 971.525 1023.23> 310 42<392.672 440 574 621.328> 558 104<73.4186 169.063 844.938 940.581> 613 34<348.617 417.406 596.594 665.383>
VStem: 437 140<47 598>
LayerCount: 2
Fore
SplineSet
1019.79 -1 m 1
 998.149 -4 955.725 -6 935.725 -6 c 0
 915.725 -6 881.171 -3.90039 862 0 c 0
 801.715 12.2998 779.69 55 747.222 161 c 0
 727.97 223.8 696.033 306.9 642.871 309.9 c 1
 602.932 122 l 2
 585.29 39 612.439 35 666.802 32 c 1
 675.526 26 670.851 4 659.575 -2 c 1
 619.787 -1 548 0 508 0 c 0
 468 0 393.787 -1 353.575 -2 c 1
 344.851 4 349.526 26 360.802 32 c 1
 416.439 35 445.29 39 462.932 122 c 2
 502.871 309.9 l 1
 448.434 306.9 381.17 223.8 335.222 161 c 0
 257.69 55 217.515 12.2998 152 0 c 0
 131.171 -3.90039 95.7246 -6 75.7246 -6 c 0
 55.7246 -6 14.1494 -4 -6.21289 -1 c 1
 -10.9375 5 -6.26074 27 1.01465 33 c 1
 39.8643 37 81.1787 62 120.681 102 c 0
 178.222 161 233.864 244 289.917 296 c 0
 320.868 324 347.332 345 369.97 348 c 1
 371.032 353 l 1
 345.434 369 340.447 402 334.1 438 c 0
 328.105 471.9 318.254 514 304.931 536 c 0
 290.606 558 282.606 558 268.606 558 c 0
 257.606 558 243.969 555 234.269 547 c 0
 223.143 537 209.718 535 197.718 535 c 0
 178.718 535 162.22 575 170.085 612 c 0
 174.974 635 196.713 662 244.713 662 c 0
 302.713 662 338.51 614 355.882 564 c 1
 367.505 534 373.489 477 383.737 441 c 0
 404.212 368.9 424.405 352.4 511.82 352 c 1
 548.167 523 l 2
 565.81 606 538.659 610 484.297 613 c 1
 475.572 619 480.249 641 491.524 647 c 1
 531.312 646 605.099 645 645.099 645 c 0
 685.099 645 757.312 646 797.524 647 c 1
 806.249 641 801.572 619 790.297 613 c 1
 734.659 610 705.81 606 688.167 523 c 2
 651.82 352 l 1
 739.405 352.4 766.612 368.9 817.737 441 c 0
 843.289 477 873.505 534 897.882 564 c 1
 936.51 614 992.713 662 1050.71 662 c 0
 1098.71 662 1108.97 635 1104.08 612 c 0
 1096.22 575 1062.72 535 1043.72 535 c 0
 1031.72 535 1019.14 537 1012.27 547 c 0
 1005.97 555 993.606 558 982.606 558 c 0
 968.606 558 960.606 558 936.931 536 c 0
 914.254 514 886.506 471.9 866.1 438 c 0
 844.447 402 825.434 369 793.032 353 c 1
 791.97 348 l 1
 813.332 345 830.868 324 849.917 296 c 0
 883.863 244 904.222 161 936.681 102 c 0
 959.179 62 989.864 37 1027.01 33 c 1
 1031.74 27 1027.06 5 1019.79 -1 c 1
EndSplineSet
EndChar

StartChar: afii10025
Encoding: 1047 1047 76
Width: 573
VWidth: 999
Flags: HW
HStem: -12 42<166.549 331.064> 335 39<160.004 305.936> 624 38<176.762 323.445>
VStem: 30 104<67.2217 151.592> 66 39<463 553.349> 367 119<450.826 581.599> 395 132<103.835 267.959>
LayerCount: 2
Fore
SplineSet
248.377 30 m 0
 318.377 30 406.903 56 432.41 176 c 0
 443.25 227 447.206 335 330.206 335 c 2
 247.206 335 l 2
 236.206 335 232.694 342 235.245 354 c 0
 237.583 365 244.496 374 255.496 374 c 2
 302.496 374 l 2
 421.496 374 462.863 451 474.554 506 c 0
 490.07 579 455.636 624 398.636 624 c 0
 264.636 624 219.355 538 203.414 463 c 1
 164.414 463 l 1
 208.312 646 l 1
 338.312 646 369.713 662 410.713 662 c 0
 529.713 662 617.36 618 596.954 522 c 0
 578.462 435 466.008 367 447.521 360 c 1
 513.27 340 590.555 299 567.811 192 c 0
 537.628 50 394.449 -12 256.449 -12 c 0
 175.449 -12 111.039 19 85.1396 43 c 0
 62.6035 64 49.3428 91 55.082 118 c 0
 60.6084 144 82.0723 165 105.072 165 c 0
 133.072 165 156.309 152 159.507 120 c 0
 168.203 48 172.377 30 248.377 30 c 0
EndSplineSet
EndChar

StartChar: afii10026
Encoding: 1048 1048 77
Width: 783
VWidth: 999
Flags: HW
HStem: -1 34<20 99.155 235.539 315 468 548.095 683.276 765> 613 32<20 99.4609 236.442 315 468 547.537 685.451 764>
VStem: 106 123<38.5094 78 146 607.764> 555 122<38.2361 493 561 607.252>
DStem2: 229 146 229 78 0.617738 0.786384<0 474.258>
LayerCount: 2
Fore
SplineSet
797.944 569 m 2
 693.154 76 l 2
 686.565 45 699.015 33 739.015 33 c 2
 765.015 33 l 2
 770.015 33 773.377 30 772.102 24 c 2
 767.213 1 l 1
 764.787 -1 l 1
 764.787 -1 660.213 1 621.213 1 c 0
 585.213 1 467.787 -1 467.787 -1 c 1
 466.213 1 l 1
 471.102 24 l 2
 472.377 30 476.015 33 481.015 33 c 2
 507.015 33 l 2
 549.015 33 565.203 48 571.154 76 c 2
 659.79 493 l 1
 245.579 78 l 1
 245.367 77 l 2
 238.777 46 250.015 33 290.015 33 c 2
 317.015 33 l 2
 320.015 33 323.377 30 322.102 24 c 2
 317.213 1 l 1
 314.787 -1 l 1
 314.787 -1 208.213 1 169.213 1 c 0
 134.213 1 19.7871 -1 19.7871 -1 c 1
 18.2129 1 l 1
 23.1016 24 l 2
 24.377 30 28.0146 33 32.0146 33 c 2
 59.0146 33 l 2
 100.015 33 116.415 49 122.367 77 c 2
 227.157 570 l 2
 233.746 601 222.297 613 182.297 613 c 2
 155.297 613 l 2
 151.297 613 148.935 616 149.998 621 c 2
 155.099 645 l 1
 157.312 646 l 1
 157.312 646 263.887 644 303.887 644 c 0
 338.887 644 452.312 646 452.312 646 c 1
 454.099 645 l 1
 448.998 621 l 2
 447.935 616 444.297 613 440.297 613 c 2
 413.297 613 l 2
 372.297 613 356.108 598 350.157 570 c 2
 260.033 146 l 1
 674.244 561 l 1
 675.944 569 l 2
 682.534 600 670.297 613 630.297 613 c 2
 604.297 613 l 2
 600.297 613 596.935 616 597.998 621 c 2
 603.099 645 l 1
 605.312 646 l 1
 605.312 646 714.887 644 753.887 644 c 0
 789.887 644 901.524 647 901.524 647 c 1
 903.099 645 l 1
 898.21 622 l 2
 896.935 616 893.297 613 888.297 613 c 2
 862.297 613 l 2
 821.297 613 803.896 597 797.944 569 c 2
EndSplineSet
EndChar

StartChar: afii10027
Encoding: 1049 1049 78
Width: 783
VWidth: 999
Flags: HW
HStem: -2 33<15.625 88.75 208.25 281.375 422.625 495.75 615.25 688.375> 558 20<510.373 513> 614 33<15.625 88.75 208.25 281.375 422.625 495.75 615.25 688.375> 697 31<305.585 396.415>
VStem: 106 85<43.3808 601.619> 191 0 226 69<734.873 803.004> 407 69<736.589 803.004> 513 0 513 85<43.3808 601.619>
DStem2: 208.693 178 222.351 125 0.626329 0.779559<-19.5065 424.152>
LayerCount: 2
Fore
SplineSet
797.944 569 m 2
 693.154 76 l 2
 686.565 45 699.015 33 739.015 33 c 2
 765.015 33 l 2
 770.015 33 773.377 30 772.102 24 c 2
 767.213 1 l 1
 764.787 -1 l 1
 764.787 -1 660.213 1 621.213 1 c 0
 585.213 1 467.787 -1 467.787 -1 c 1
 466.213 1 l 1
 471.102 24 l 2
 472.377 30 476.015 33 481.015 33 c 2
 507.015 33 l 2
 549.015 33 565.203 48 571.154 76 c 2
 659.79 493 l 1
 245.579 78 l 1
 245.367 77 l 2
 238.777 46 250.015 33 290.015 33 c 2
 317.015 33 l 2
 320.015 33 323.377 30 322.102 24 c 2
 317.213 1 l 1
 314.787 -1 l 1
 314.787 -1 208.213 1 169.213 1 c 0
 134.213 1 19.7871 -1 19.7871 -1 c 1
 18.2129 1 l 1
 23.1016 24 l 2
 24.377 30 28.0146 33 32.0146 33 c 2
 59.0146 33 l 2
 100.015 33 116.415 49 122.367 77 c 2
 227.157 570 l 2
 233.746 601 222.297 613 182.297 613 c 2
 155.297 613 l 2
 151.297 613 148.935 616 149.998 621 c 2
 155.099 645 l 1
 157.312 646 l 1
 157.312 646 263.887 644 303.887 644 c 0
 338.887 644 452.312 646 452.312 646 c 1
 454.099 645 l 1
 448.998 621 l 2
 447.935 616 444.297 613 440.297 613 c 2
 413.297 613 l 2
 372.297 613 356.108 598 350.157 570 c 2
 260.033 146 l 1
 674.244 561 l 1
 675.944 569 l 2
 682.534 600 670.297 613 630.297 613 c 2
 604.297 613 l 2
 600.297 613 596.935 616 597.998 621 c 2
 603.099 645 l 1
 605.312 646 l 1
 605.312 646 714.887 644 753.887 644 c 0
 789.887 644 901.524 647 901.524 647 c 1
 903.099 645 l 1
 898.21 622 l 2
 896.935 616 893.297 613 888.297 613 c 2
 862.297 613 l 2
 821.297 613 803.896 597 797.944 569 c 2
639.519 774 m 0
 628.466 722 561.152 697 498.152 697 c 0
 432.152 697 379.253 721 390.307 773 c 0
 394.982 795 408.896 804 435.896 804 c 0
 456.896 804 463.494 788 460.307 773 c 0
 459.881 771 457.818 766 457.605 765 c 0
 453.354 745 472.741 728 505.741 728 c 0
 535.741 728 563.717 742 568.394 764 c 0
 568.605 765 569.094 772 569.307 773 c 0
 572.494 788 584.896 804 607.896 804 c 0
 633.896 804 643.77 794 639.519 774 c 0
EndSplineSet
LCarets2: 1 0 
EndChar

StartChar: afii10033
Encoding: 1055 1055 79
Width: 778
VWidth: 999
Flags: HW
HStem: -1 34<19 98.8165 234.855 311 440 514.816 650.855 731> 600 45<229.654 519.608> 613 32<19 99.2757 653.794 731>
VStem: 106 122<38.748 598.335> 522 122<38.748 597.91>
LayerCount: 2
Fore
SplineSet
225.167 523 m 2
 242.81 606 215.659 610 161.297 613 c 1
 152.572 619 157.249 641 168.524 647 c 1
 208.312 646 282.099 645 322.099 645 c 0
 384.399 645 463.724 647 525.524 647 c 0
 588.624 647 668.399 645 732.099 645 c 0
 772.099 645 844.312 646 884.524 647 c 1
 893.249 641 888.572 619 877.297 613 c 1
 821.659 610 792.81 606 775.167 523 c 2
 689.932 122 l 2
 672.29 39 699.439 35 753.802 32 c 1
 762.526 26 757.851 4 746.575 -2 c 1
 706.787 -1 635 0 595 0 c 0
 555 0 480.787 -1 440.575 -2 c 1
 431.851 4 436.526 26 447.802 32 c 1
 503.439 35 532.29 39 549.932 122 c 2
 635.167 523 l 2
 652.81 606 623.534 600 569.172 603 c 1
 465.172 603 l 1
 409.534 600 382.81 606 365.167 523 c 2
 279.932 122 l 2
 262.29 39 289.439 35 343.802 32 c 1
 352.526 26 347.851 4 336.575 -2 c 1
 296.787 -1 225 0 185 0 c 0
 145 0 70.7871 -1 30.5752 -2 c 1
 21.8506 4 26.5264 26 37.8018 32 c 1
 93.4395 35 122.29 39 139.932 122 c 2
 225.167 523 l 2
EndSplineSet
EndChar

StartChar: afii10034
Encoding: 1056 1056 80
Width: 614
VWidth: 999
Flags: HW
HStem: -2 34<24 44 281 306> 279 40<221 346.677> 611 36<24 93.1927> 613 41<126.947 352.681>
VStem: 99 122<44.5532 282 319.949 606.701> 406 127<391.868 561.741>
LayerCount: 2
Fore
SplineSet
485.012 654 m 0
 560.012 654 612.631 642.8 644.998 621 c 0
 699.297 584.3 701.4 524.1 692.877 484 c 0
 681.591 430.9 650.496 366 592.081 325 c 0
 544.846 291.9 479.979 277 391.878 277 c 0
 367.878 277 371.091 278 357.516 280 c 1
 345.429 289 342.404 303 346.443 322 c 1
 360.019 320 380.806 319 395.806 319 c 0
 477.806 319 516.158 363 538.264 467 c 0
 564.195 589 502.297 613 444.297 613 c 0
 391.297 613 379.834 592 365.38 524 c 2
 279.932 122 l 2
 262.29 39 289.439 35 343.802 32 c 1
 352.526 26 347.851 4 336.575 -2 c 1
 296.787 -1 225 0 185 0 c 0
 145 0 70.7871 -1 30.5752 -2 c 1
 21.8506 4 26.5264 26 37.8018 32 c 1
 93.4395 35 122.29 39 139.932 122 c 2
 225.167 523 l 2
 242.81 606 215.659 610 161.297 613 c 1
 152.572 619 157.249 641 168.524 647 c 1
 208.524 647 445.012 654 485.012 654 c 0
EndSplineSet
EndChar

StartChar: afii10035
Encoding: 1057 1057 81
Width: 706
VWidth: 999
Flags: HW
HStem: -10 44<290.062 474.801> 437 21<558.5 612> 617 41<295.135 462.38>
VStem: 34 130<195.747 434.804> 574 38<443.526 484.717>
LayerCount: 2
Fore
SplineSet
394.874 -10 m 0
 297.874 -10 223.488 7 169.266 53 c 0
 101.33 110.7 83.9961 221.1 103.955 315 c 0
 150.761 535.2 341.862 658 537.862 658 c 0
 660.862 658 697.36 618 747.297 613 c 1
 744.606 558 742.404 510 736.351 458 c 1
 723.775 452 703.438 449 692.288 453 c 1
 684.568 539 655.935 616 517.935 616 c 0
 398.935 616 292.025 489.4 258.994 334 c 0
 225.835 178 288.928 42 404.928 42 c 0
 474.928 42 561.454 68 649.033 146 c 1
 660.033 146 674.482 134 677.569 125 c 1
 590.652 36 491.874 -10 394.874 -10 c 0
EndSplineSet
EndChar

StartChar: afii10036
Encoding: 1058 1058 82
Width: 652
VWidth: 999
Flags: HW
HStem: -2 34<151 230.816 366.855 447> 599 46<70.4923 235.855 362.438 526.846>
VStem: 8 39<518.103 570.778> 30 36<645.204 669> 238 122<37.748 595.906> 532 36<647.479 669> 550 40<518.125 570.778>
LayerCount: 2
Fore
SplineSet
431.145 123 m 2
 413.502 40 429.439 35 508.802 32 c 1
 513.526 26 508.851 4 501.575 -2 c 1
 451.787 -1 399 0 333 0 c 0
 269 0 216.787 -1 167.575 -2 c 1
 162.851 4 167.526 26 174.802 32 c 1
 255.439 35 273.502 40 291.145 123 c 2
 372.554 506 l 2
 385.52 567 383.597 605 346.597 605 c 2
 297.597 605 l 2
 231.597 605 185.07 579 148.065 499 c 1
 136.065 499 119.278 500 110.129 504 c 1
 131.331 552 152.597 605 166.162 650 c 0
 166.374 651 168.8 653 170.8 653 c 0
 208.162 650 325.099 645 402.099 645 c 2
 543.099 645 l 2
 622.099 645 734.162 650 768.8 653 c 0
 769.8 653 771.374 651 771.162 650 c 0
 762.597 605 756.544 553 753.767 507 c 1
 743.916 503 724.703 502 713.703 502 c 1
 713.07 579 676.597 605 601.597 605 c 2
 579.597 605 l 2
 543.597 605 525.52 567 511.916 503 c 2
 431.145 123 l 2
EndSplineSet
EndChar

StartChar: afii10037
Encoding: 1059 1059 83
Width: 621
VWidth: 999
Flags: HW
HStem: -22 64<180.643 263.693> 613 32<1 59.1675 206.362 277 412 484.667 556.138 620>
DStem2: 212 575 88 559 0.419188 -0.907899<-30.5778 352.637> 293 115 383 161 0.361446 0.932393<-71.674 0 153.097 525.366>
LayerCount: 2
Fore
SplineSet
224.928 42 m 0
 254.928 42 275.628 50 317.444 115 c 1
 206.819 559 l 2
 201.849 578.9 189.297 613 140.297 613 c 0
 134.297 613 130.935 616 131.998 621 c 2
 137.099 645 l 1
 138.312 646 l 1
 138.312 646 201.099 645 242.099 645 c 0
 292.099 645 414.312 646 414.312 646 c 1
 416.099 645 l 1
 410.998 621 l 2
 409.935 616 406.297 613 402.297 613 c 2
 364.297 613 l 2
 331.297 613 328.959 602 334.22 575 c 1
 411.989 254 l 1
 601.22 575 l 2
 622.659 610 617.297 613 576.297 613 c 2
 546.297 613 l 2
 543.297 613 540.935 616 541.998 621 c 2
 547.099 645 l 1
 549.312 646 l 1
 549.312 646 635.099 645 677.099 645 c 0
 709.099 645 757.312 646 757.312 646 c 1
 759.099 645 l 1
 753.998 621 l 2
 752.723 615 745.297 613 741.297 613 c 0
 695.297 613 683.81 606 660.307 566 c 2
 417.222 161 l 2
 351.053 52 280.324 -22 190.324 -22 c 0
 130.324 -22 85.7002 8 92.502 40 c 0
 98.4541 68 115.705 88 147.705 88 c 0
 172.705 88 186.367 77 192.816 65 c 0
 198.903 56 209.928 42 224.928 42 c 0
EndSplineSet
EndChar

StartChar: afii10039
Encoding: 1061 1061 84
Width: 718
VWidth: 999
Flags: HW
HStem: -2 34<6 77.2637 175.139 221 431 479.696 642.975 703> 613 32<24 81.6763 243.172 295 464 510.913 615.064 682>
DStem2: 253 572 129 549 0.578967 -0.815351<-30.4141 207.826 286.619 564.202> 388 412 565 552 0.640675 0.767812<-16.6551 209.908>
LayerCount: 2
Fore
SplineSet
452.918 89 m 1
 394.289 246 l 2
 385.699 269.1 379.366 271.3 366.84 258 c 0
 312.147 199.7 264.971 141 216.43 82 c 1
 195.053 52 206.352 36 250.015 33 c 1
 254.739 27 250.062 5 242.787 -1 c 1
 203 0 144.213 1 121.213 1 c 0
 98.2129 1 40 0 9.78711 -1 c 1
 5.0625 5 9.73926 27 17.0146 33 c 1
 62.6279 37.2998 99.6504 45.4004 135.018 81 c 2
 343.854 291 l 2
 364.454 311.7 365.068 316 351.119 344 c 2
 249.969 547 l 2
 223.455 600.1 206.659 610 165.297 613 c 1
 160.572 619 164.249 641 171.524 647 c 1
 201.312 646 287.099 645 326.099 645 c 0
 366.099 645 433.312 646 473.524 647 c 1
 478.249 641 473.572 619 466.297 613 c 1
 409.659 610 405.022 594.3 419.394 557 c 2
 468.823 428.7 l 2
 476.163 409.6 481.147 402 494.848 414.7 c 0
 546.508 462.5 589.68 516 626.882 564 c 1
 648.259 594 636.959 610 593.297 613 c 1
 588.572 619 593.249 641 600.524 647 c 1
 640.312 646 693.099 645 716.099 645 c 0
 739.099 645 788.312 646 818.524 647 c 1
 823.249 641 818.572 619 811.297 613 c 1
 765.684 608.7 733.404 600.8 698.295 565 c 2
 525.621 388.7 l 2
 504.145 366.7 502.014 359.5 517.206 327 c 2
 623.343 99 l 2
 648.486 45.0996 672.652 36 714.015 33 c 1
 718.739 27 715.062 5 707.787 -1 c 1
 678 0 605.213 1 566.213 1 c 0
 526.213 1 450 0 409.787 -1 c 1
 405.062 5 409.739 27 417.015 33 c 1
 473.652 36 470.614 53.7002 452.918 89 c 1
EndSplineSet
EndChar

StartChar: afii10040
Encoding: 1062 1062 85
Width: 722
VWidth: 487
Flags: HW
HStem: -1 34<20 88.5142> 0 42<215.974 501.971> 613 32<19 88.6542 217.213 286 433 501.091 628.883 697>
VStem: 92 122<43.533 611.651> 504 122<44.0875 611.234> 662 41<-136 -78.8302>
LayerCount: 2
Fore
SplineSet
525 0 m 2
 525 0 306 0 166 0 c 2
 19.7871 -1 l 1
 17.2129 1 l 1
 21.6758 22 l 2
 22.9512 28 28.0146 33 33.0146 33 c 2
 59.0146 33 l 2
 91.0146 33 100.502 40 109.005 80 c 2
 212.52 567 l 2
 220.81 606 216.297 613 182.297 613 c 2
 152.297 613 l 2
 149.297 613 147.51 614 148.36 618 c 2
 154.099 645 l 1
 156.312 646 l 1
 296.099 645 l 1
 423.312 646 l 1
 425.099 645 l 1
 419.36 618 l 2
 418.723 615 416.297 613 413.297 613 c 2
 383.297 613 l 2
 351.297 613 343.021 607 334.52 567 c 2
 232.705 88 l 2
 223.99 47 230.928 42 261.928 42 c 2
 473.928 42 l 2
 509.928 42 516.115 57 522.918 89 c 2
 624.52 567 l 2
 631.321 599 633.297 613 595.297 613 c 2
 566.297 613 l 2
 562.297 613 560.51 614 561.36 618 c 2
 567.099 645 l 1
 570.312 646 l 1
 689.099 645 l 1
 834.312 646 l 1
 837.099 645 l 1
 832.423 623 l 2
 831.785 620 828.297 613 824.297 613 c 2
 795.297 613 l 1
 758.085 612 753.746 601 746.52 567 c 2
 643.43 82 l 2
 638.115 57 650.015 33 674.015 33 c 0
 699.015 33 700.464 21 699.764 13 c 2
 674.092 -136 l 1
 633.092 -136 l 1
 633.184 -65 603 0 525 0 c 2
EndSplineSet
EndChar

StartChar: afii10041
Encoding: 1063 1063 86
Width: 687
VWidth: 999
Flags: HW
HStem: -1 34<386 466.5 595.051 666> 248 63<243.549 386.648> 613 33<29 94.6501 221.253 287 396 467.719 594.197 666>
VStem: 97 122<333.393 611.375> 470 122<34.8668 314 344.538 611.828>
LayerCount: 2
Fore
SplineSet
437.015 33 m 2
 473.015 33 479.777 46 487.005 80 c 2
 536.743 314 l 1
 452.902 263 381.714 248 323.714 248 c 0
 209.714 248 166.506 327 187.549 426 c 2
 218.582 572 l 2
 225.81 606 222.297 613 183.297 613 c 2
 166.297 613 l 2
 161.297 613 159.723 615 160.572 619 c 2
 166.312 646 l 1
 315.099 645 l 1
 424.312 646 l 1
 418.36 618 l 2
 417.723 615 415.297 613 411.297 613 c 2
 393.297 613 l 2
 351.297 613 347.172 603 340.582 572 c 2
 308.273 420 l 2
 290.844 338 307.105 311 379.105 311 c 0
 408.105 311 472.955 315 545.883 357 c 1
 591.37 571 l 2
 598.597 605 596.297 613 560.297 613 c 2
 530.297 613 l 2
 527.297 613 526.51 614 527.36 618 c 2
 533.312 646 l 1
 688.887 644 l 1
 803.312 646 l 1
 797.572 619 l 2
 796.723 615 794.297 613 791.297 613 c 2
 761.297 613 l 2
 727.297 613 721.234 608 713.37 571 c 2
 609.005 80 l 2
 601.14 43 604.015 33 638.015 33 c 2
 668.015 33 l 2
 671.015 33 672.377 30 671.739 27 c 2
 665.787 -1 l 1
 552.213 1 l 1
 385.787 -1 l 1
 391.739 27 l 2
 392.589 31 394.015 33 398.015 33 c 2
 437.015 33 l 2
EndSplineSet
EndChar

StartChar: afii10042
Encoding: 1064 1064 87
Width: 1087
VWidth: 487
Flags: HW
HStem: -1 34<34 103.253 984.033 1054> 2 40<230.584 479.921 606.71 856.864> 613 32<19 98.5971 237.067 313 397 474.538 612.451 690 774 851.597 989.451 1068>
VStem: 106 123<43.9395 607.491> 482 122<43.6743 607.252> 859 122<43.3821 607.252>
LayerCount: 2
Fore
SplineSet
1101.94 569 m 2
 996.941 75 l 2
 989.502 40 997.015 33 1028.01 33 c 2
 1058.01 33 l 2
 1061.01 33 1062.59 31 1061.95 28 c 2
 1056.21 1 l 1
 1053.79 -1 l 1
 939.425 2 l 1
 221.425 2 l 1
 33.7871 -1 l 1
 32.2129 1 l 1
 37.9512 28 l 2
 38.5889 31 41.0146 33 44.0146 33 c 2
 74.0146 33 l 2
 108.015 33 114.715 41 123.005 80 c 2
 226.944 569 l 2
 233.534 600 221.297 613 182.297 613 c 2
 155.297 613 l 2
 151.297 613 147.935 616 148.998 621 c 2
 154.099 645 l 1
 156.312 646 l 1
 156.312 646 264.099 645 304.099 645 c 0
 339.099 645 450.312 646 450.312 646 c 1
 452.099 645 l 1
 446.998 621 l 2
 445.935 616 442.297 613 437.297 613 c 2
 413.297 613 l 2
 372.297 613 355.896 597 349.944 569 c 2
 247.705 88 l 2
 240.903 56 237.928 42 276.928 42 c 2
 456.928 42 l 2
 487.928 42 494.115 57 500.705 88 c 2
 602.944 569 l 2
 609.534 600 597.297 613 557.297 613 c 2
 533.297 613 l 2
 529.297 613 525.935 616 526.998 621 c 2
 532.099 645 l 1
 534.312 646 l 1
 534.312 646 640.099 645 679.099 645 c 0
 715.099 645 805.312 646 805.312 646 c 1
 827.099 645 l 1
 821.998 621 l 2
 820.935 616 818.297 613 813.297 613 c 2
 789.297 613 l 2
 748.297 613 730.896 597 724.944 569 c 2
 622.705 88 l 2
 616.328 58 616.928 42 649.928 42 c 2
 828.928 42 l 2
 861.928 42 869.415 49 877.705 88 c 2
 979.944 569 l 2
 986.534 600 974.297 613 935.297 613 c 2
 911.297 613 l 2
 906.297 613 902.935 616 903.998 621 c 2
 909.099 645 l 1
 911.312 646 l 1
 911.312 646 1017.1 645 1056.1 645 c 0
 1092.1 645 1205.31 646 1205.31 646 c 1
 1207.1 645 l 1
 1202 621 l 2
 1200.93 616 1197.3 613 1192.3 613 c 2
 1166.3 613 l 2
 1125.3 613 1107.9 597 1101.94 569 c 2
EndSplineSet
EndChar

StartChar: afii10043
Encoding: 1065 1065 88
Width: 1089
VWidth: 487
Flags: HW
HStem: 0 31<34 103.32> 1 40<231.307 479.648 606.781 856.754> 613 32<19 98.5971 237.067 313 397 474.538 612.451 688 774 851.597 989.451 1068>
VStem: 106 123<43.2559 607.491> 482 122<43.5908 607.252> 859 122<42.9083 607.252> 1014 44<-141 -88.5684>
LayerCount: 2
Fore
SplineSet
349.944 569 m 2
 247.705 88 l 2
 241.328 58 239.715 41 276.715 41 c 2
 448.715 41 l 2
 486.715 41 493.053 52 500.705 88 c 2
 602.944 569 l 2
 609.534 600 597.297 613 557.297 613 c 2
 533.297 613 l 2
 529.297 613 525.935 616 526.998 621 c 2
 532.099 645 l 1
 534.312 646 l 1
 534.312 646 646.099 645 685.099 645 c 0
 721.099 645 825.312 646 825.312 646 c 1
 827.099 645 l 1
 821.998 621 l 2
 820.935 616 818.297 613 813.297 613 c 2
 789.297 613 l 2
 748.297 613 730.896 597 724.944 569 c 2
 622.705 88 l 2
 615.053 52 617.715 41 660.715 41 c 2
 828.715 41 l 2
 863.715 41 870.053 52 877.705 88 c 2
 979.944 569 l 2
 986.534 600 974.297 613 935.297 613 c 2
 911.297 613 l 2
 906.297 613 902.935 616 903.998 621 c 2
 909.099 645 l 1
 911.312 646 l 1
 911.312 646 1021.1 645 1060.1 645 c 0
 1095.1 645 1205.31 646 1205.31 646 c 1
 1207.1 645 l 1
 1202 621 l 2
 1200.93 616 1197.3 613 1192.3 613 c 2
 1166.3 613 l 2
 1125.3 613 1107.9 597 1101.94 569 c 2
 999.067 85 l 2
 990.777 46 1013.01 33 1028.01 33 c 0
 1046.01 33 1055.89 23 1053.28 6 c 2
 1028.03 -141 l 1
 984.029 -141 l 1
 986.382 -97 944.213 1 858.213 1 c 2
 188.213 1 l 1
 33.7871 -1 l 1
 32 0 l 1
 37.5264 26 l 2
 38.377 30 40.5889 31 43.5889 31 c 2
 73.5889 31 l 2
 106.589 31 113.439 35 121.729 74 c 2
 226.944 569 l 2
 233.534 600 221.297 613 182.297 613 c 2
 155.297 613 l 2
 151.297 613 147.935 616 148.998 621 c 2
 154.099 645 l 1
 156.312 646 l 1
 156.312 646 271.099 645 310.099 645 c 0
 345.099 645 450.312 646 450.312 646 c 1
 452.099 645 l 1
 446.998 621 l 2
 445.935 616 442.297 613 437.297 613 c 2
 413.297 613 l 2
 372.297 613 355.896 597 349.944 569 c 2
EndSplineSet
EndChar

StartChar: afii10044
Encoding: 1066 1066 89
Width: 780
VWidth: 999
Flags: HW
HStem: -1 35<178 258.408 393.048 541.239> 331 44<387 557.861> 602 44<130.709 261.935> 613 33<394.803 474>
VStem: 26 47<473.255 529.979> 265 122<39.0136 331 375 599.078> 613 131<97.6675 271.008>
LayerCount: 2
Fore
SplineSet
457.356 331 m 1
 404.854 84 l 2
 397.841 51 399.227 34 454.227 34 c 0
 606.227 34 638.72 121 651.897 183 c 0
 664.651 243 673.356 331 545.356 331 c 2
 457.356 331 l 1
461.099 645 m 2
 497.099 645 611.312 646 611.312 646 c 1
 613.099 645 l 1
 607.998 621 l 2
 606.935 616 603.297 613 598.297 613 c 2
 572.297 613 l 2
 531.297 613 513.896 597 507.944 569 c 2
 466.709 375 l 1
 527.709 375 l 2
 772.709 375 801.815 272 782.897 183 c 0
 747.4 16 565.787 -1 444.787 -1 c 0
 408.787 -1 357.213 1 328.213 1 c 0
 292.213 1 177.787 -1 177.787 -1 c 1
 176.213 1 l 1
 181.102 24 l 2
 182.377 30 186.015 33 191.015 33 c 2
 217.015 33 l 2
 258.015 33 275.415 49 281.367 77 c 2
 383.819 559 l 2
 389.559 586 381.959 602 353.959 602 c 2
 308.959 602 l 2
 242.959 602 190.829 512 172.689 469 c 1
 126.752 474 l 1
 147.655 530 164.133 584 179.312 646 c 1
 402.312 646 l 1
 461.099 645 l 2
EndSplineSet
EndChar

StartChar: afii10045
Encoding: 1067 1067 90
Width: 908
VWidth: 999
Flags: HW
HStem: -1 34<612 680.724 816.184 884> -1 35<19 99.4082 234.048 379.573> 331 45<228 397.119> 613 32<19 97.5488 235.462 315> 614 34<612 680.724 816.184 884>
VStem: 106 122<39.0136 331 376 607.252> 454 127<93.6435 279.371> 687 122<38.5094 608.491>
LayerCount: 2
Fore
SplineSet
813.38 524 m 2
 831.021 607 803.872 611 749.51 614 c 1
 740.785 620 745.461 642 756.736 648 c 1
 796.524 647 870.312 646 910.312 646 c 0
 950.312 646 1022.52 647 1062.74 648 c 1
 1071.46 642 1066.79 620 1055.51 614 c 1
 999.872 611 971.021 607 953.38 524 c 2
 868.145 123 l 2
 850.502 40 877.652 36 932.015 33 c 1
 940.739 27 936.062 5 924.787 -1 c 1
 885 0 813.213 1 773.213 1 c 0
 733.213 1 659 0 618.787 -1 c 1
 610.062 5 614.739 27 626.015 33 c 1
 681.652 36 710.502 40 728.145 123 c 2
 813.38 524 l 2
226.944 569 m 2
 232.896 597 222.297 613 181.297 613 c 2
 155.297 613 l 2
 150.297 613 147.935 616 148.998 621 c 2
 154.099 645 l 1
 156.312 646 l 1
 156.312 646 267.099 645 303.099 645 c 0
 342.099 645 452.312 646 452.312 646 c 1
 454.099 645 l 1
 448.998 621 l 2
 447.935 616 443.297 613 439.297 613 c 2
 413.297 613 l 2
 373.297 613 355.534 600 348.944 569 c 2
 307.921 376 l 1
 385.921 376 l 2
 630.921 376 638.815 272 619.897 183 c 0
 584.4 16 423.787 -1 302.787 -1 c 0
 266.787 -1 195.213 1 166.213 1 c 0
 137.213 1 18.7871 -1 18.7871 -1 c 1
 17.2129 1 l 1
 22.1016 24 l 2
 23.377 30 27.0146 33 32.0146 33 c 2
 58.0146 33 l 2
 99.0146 33 116.415 49 122.367 77 c 2
 226.944 569 l 2
298.356 331 m 1
 245.854 84 l 2
 238.841 51 240.227 34 295.227 34 c 0
 446.227 34 479.72 121 492.897 183 c 0
 505.651 243 514.356 331 385.356 331 c 2
 298.356 331 l 1
EndSplineSet
EndChar

StartChar: afii10046
Encoding: 1068 1068 91
Width: 617
VWidth: 999
Flags: HW
HStem: -1 35<19 99.4082 234.048 379.573> 331 45<228 397.119> 613 32<19 97.5488 235.462 315>
VStem: 106 122<39.0136 331 376 607.252> 454 127<93.6435 279.371>
LayerCount: 2
Fore
SplineSet
226.944 569 m 2
 232.896 597 222.297 613 181.297 613 c 2
 155.297 613 l 2
 150.297 613 147.935 616 148.998 621 c 2
 154.099 645 l 1
 156.312 646 l 1
 156.312 646 267.099 645 303.099 645 c 0
 342.099 645 452.312 646 452.312 646 c 1
 454.099 645 l 1
 448.998 621 l 2
 447.935 616 443.297 613 439.297 613 c 2
 413.297 613 l 2
 373.297 613 355.534 600 348.944 569 c 2
 307.921 376 l 1
 385.921 376 l 2
 630.921 376 638.815 272 619.897 183 c 0
 584.4 16 423.787 -1 302.787 -1 c 0
 266.787 -1 195.213 1 166.213 1 c 0
 137.213 1 18.7871 -1 18.7871 -1 c 1
 17.2129 1 l 1
 22.1016 24 l 2
 23.377 30 27.0146 33 32.0146 33 c 2
 58.0146 33 l 2
 99.0146 33 116.415 49 122.367 77 c 2
 226.944 569 l 2
298.356 331 m 1
 245.854 84 l 2
 238.841 51 240.227 34 295.227 34 c 0
 446.227 34 479.72 121 492.897 183 c 0
 505.651 243 514.356 331 385.356 331 c 2
 298.356 331 l 1
EndSplineSet
EndChar

StartChar: afii10047
Encoding: 1069 1069 92
Width: 625
VWidth: 999
Flags: HW
HStem: -12 38<199.301 353.574> 273 66<307.887 449.597> 311 59<161.217 283.679> 616 42<190.147 341.059>
VStem: 42 39<457.282 500.885> 54 89<77.2543 155.168> 451 131<196.438 295 341.365 467.623>
LayerCount: 2
Fore
SplineSet
513.704 295 m 1
 464.028 273 429.028 273 418.028 273 c 0
 356.028 273 321.105 311 262.105 311 c 0
 224.105 311 204.704 295 196.704 295 c 0
 192.704 295 189.404 303 191.317 312 c 0
 196.419 336 266.646 370 325.646 370 c 0
 391.646 370 414.057 339 472.057 339 c 0
 491.057 339 508.694 342 524.545 346 c 1
 558.906 550 481.935 616 401.935 616 c 0
 306.935 616 220.78 540 177.501 454 c 1
 139.351 458 l 1
 161.616 511 179.606 558 193.297 613 c 1
 251.935 616 313.862 658 418.862 658 c 0
 583.862 658 698.906 550 652.781 333 c 0
 606.019 113 442.449 -12 272.449 -12 c 0
 186.449 -12 137.039 19 111.14 43 c 0
 88.6035 64 74.1934 95 79.9316 122 c 0
 85.458 148 105.072 165 123.072 165 c 0
 152.072 165 164.309 152 168.507 120 c 0
 177.945 48.2002 219.526 26 291.526 26 c 0
 414.526 26 483.222 161 513.704 295 c 1
EndSplineSet
EndChar

StartChar: afii10048
Encoding: 1070 1070 93
Width: 937
VWidth: 999
Flags: HW
HStem: -12 39<554.854 687.491> -1 34<24 92.7241 228.184 296> 300 49<221 317> 613 32<24 91.5375 229.451 296> 619 39<533.072 673.166>
VStem: 99 122<38.5094 300 349 607.491> 317 126<178.838 300 349 443.243> 771 127<190.805 458.298>
LayerCount: 2
Fore
SplineSet
724.572 619 m 0
 640.572 619 557.143 537 512.506 327 c 0
 471.695 135 521.739 27 629.739 27 c 0
 732.739 27 798.845 131 836.893 310 c 0
 881.104 518 849.572 619 724.572 619 c 0
237.367 77 m 2
 231.415 49 242.015 33 283.015 33 c 2
 297.015 33 l 2
 302.015 33 304.377 30 303.102 24 c 2
 298.213 1 l 1
 295.787 -1 l 1
 295.787 -1 196.213 1 160.213 1 c 0
 121.213 1 23.7871 -1 23.7871 -1 c 1
 22.2129 1 l 1
 27.1016 24 l 2
 28.377 30 33.0146 33 37.0146 33 c 2
 51.0146 33 l 2
 91.0146 33 108.565 45 115.367 77 c 2
 219.944 569 l 2
 226.746 601 214.297 613 174.297 613 c 2
 160.297 613 l 2
 156.297 613 152.935 616 153.998 621 c 2
 159.099 645 l 1
 161.312 646 l 1
 161.312 646 258.099 645 297.099 645 c 0
 333.099 645 433.312 646 433.312 646 c 1
 435.099 645 l 1
 429.998 621 l 2
 428.935 616 425.297 613 420.297 613 c 2
 406.297 613 l 2
 365.297 613 347.896 597 341.944 569 c 2
 295.183 349 l 1
 392.183 349 l 1
 444.805 526 589.862 658 744.862 658 c 0
 911.862 658 1010.02 527 967.931 329 c 0
 925.42 129 781.449 -12 603.449 -12 c 0
 445.449 -12 344.169 109 380.767 300 c 1
 284.767 300 l 1
 237.367 77 l 2
EndSplineSet
EndChar

StartChar: afii10049
Encoding: 1071 1071 94
Width: 612
VWidth: 999
Flags: HW
HStem: -1 34<11 57.5665 296 376.155 511.524 593> 320 48<298.94 383> 606 40<215.181 381.843> 613 33<510.485 596>
VStem: 69 108<410.473 564.69> 383 122<38.2361 320 368 602.434>
LayerCount: 2
Fore
SplineSet
451.019 320 m 1
 345.019 320 343.02 281.9 285.26 180 c 0
 222.879 70 179.213 1 107 0 c 2
 10.7871 -1 l 1
 10.2129 1 l 1
 15.1016 24 l 2
 16.377 30 20.0146 33 24.0146 33 c 2
 33.0146 33 l 2
 66.0146 33 130.894 103 212.163 236 c 0
 237.157 276.9 258.105 311 287.931 329 c 1
 222.057 339 150.834 385 172.515 487 c 0
 187.182 556 250.312 646 436.312 646 c 0
 471.312 646 552.099 645 584.099 645 c 0
 616.099 645 733.312 646 733.312 646 c 1
 727.785 620 l 2
 726.935 616 724.297 613 718.297 613 c 2
 689.297 613 l 2
 647.297 613 633.172 603 625.944 569 c 2
 521.154 76 l 2
 514.565 45 528.015 33 567.015 33 c 2
 593.015 33 l 2
 598.015 33 601.377 30 600.102 24 c 2
 595.213 1 l 1
 592.787 -1 l 1
 592.787 -1 486.213 1 447.213 1 c 0
 411.213 1 295.787 -1 295.787 -1 c 1
 294.213 1 l 1
 299.102 24 l 2
 300.377 30 304.015 33 309.015 33 c 2
 336.015 33 l 2
 377.015 33 393.203 48 399.154 76 c 2
 451.019 320 l 1
504.157 570 m 2
 511.172 603 507.81 606 420.81 606 c 0
 364.81 606 303.471 595 283.703 502 c 0
 261.173 396 301.221 368 384.221 368 c 2
 461.221 368 l 1
 504.157 570 l 2
EndSplineSet
EndChar

StartChar: afii10089
Encoding: 1095 1095 95
Width: 581
VWidth: 999
Flags: HW
HStem: -1 34<310 367.151 483.217 540> 146 40<195.202 332.641> 402 34<18 67.6078 184.253 241 310 366.902 483.294 550>
VStem: 71 110<211.872 400.259> 370 110<34.624 189 212.403 400.488>
LayerCount: 2
Fore
SplineSet
445.245 354 m 2
 453.535 393 450.447 402 415.447 402 c 2
 399.447 402 l 2
 396.447 402 394.66 403 395.511 407 c 2
 401.25 434 l 1
 402.675 436 l 1
 512.25 434 l 1
 642.675 436 l 1
 644.25 434 l 1
 638.511 407 l 2
 637.873 404 635.447 402 631.447 402 c 2
 606.447 402 l 2
 572.447 402 563.96 395 555.245 354 c 2
 497.217 81 l 2
 489.14 43 491.015 33 528.015 33 c 2
 544.015 33 l 2
 548.015 33 548.589 31 547.951 28 c 2
 542.213 1 l 1
 539.787 -1 l 1
 539.787 -1 449.213 1 412.213 1 c 0
 372.213 1 309.787 -1 309.787 -1 c 1
 308.213 1 l 1
 313.739 27 l 2
 314.589 31 317.015 33 320.015 33 c 2
 337.015 33 l 2
 373.015 33 378.928 42 387.217 81 c 2
 410.173 189 l 1
 365.009 160 330.033 146 270.033 146 c 0
 172.033 146 111.599 191 134.129 297 c 2
 146.458 355 l 2
 154.535 393 150.447 402 115.447 402 c 2
 107.447 402 l 2
 104.447 402 102.66 403 103.511 407 c 2
 109.25 434 l 1
 110.675 436 l 1
 213.037 433 l 1
 333.675 436 l 1
 334.25 434 l 1
 328.723 408 l 2
 327.873 404 325.447 402 321.447 402 c 2
 306.447 402 l 2
 273.447 402 264.322 392 257.521 360 c 2
 243.279 293 l 2
 226.699 215 227.535 186 289.535 186 c 0
 338.535 186 380.086 198 418.676 229 c 1
 445.245 354 l 2
EndSplineSet
EndChar

StartChar: afii10090
Encoding: 1096 1096 96
Width: 923
VWidth: 999
Flags: HW
HStem: -1 34<43 102.064 816.857 890> 0 41<215.46 401.772 517.304 702.1> 402 34<33 100.608 215.968 277 340 400.902 517.294 583 636 701.902 817.932 880>
VStem: 104 109<43.0804 400.422> 404 110<43.0065 400.488> 705 110<43.4492 400.499>
LayerCount: 2
Fore
SplineSet
890.458 355 m 2
 830.729 74 l 2
 822.227 34 829.015 33 863.015 33 c 2
 893.015 33 l 2
 897.015 33 898.377 30 897.739 27 c 2
 892.213 1 l 1
 889.787 -1 l 1
 758 0 l 1
 154 0 l 1
 42.7871 -1 l 1
 42.2129 1 l 1
 47.9512 28 l 2
 48.5889 31 50.0146 33 54.0146 33 c 2
 70.0146 33 l 2
 105.015 33 111.652 36 119.941 75 c 2
 179.458 355 l 2
 187.535 393 183.447 402 148.447 402 c 2
 122.447 402 l 2
 119.447 402 117.66 403 118.511 407 c 2
 124.25 434 l 1
 125.675 436 l 1
 246.037 433 l 1
 369.675 436 l 1
 371.25 434 l 1
 365.723 408 l 2
 364.873 404 362.447 402 358.447 402 c 2
 339.447 402 l 2
 305.447 402 297.173 396 288.458 355 c 2
 232.13 90 l 2
 223.628 50 227.715 41 262.715 41 c 2
 372.715 41 l 2
 407.715 41 415.053 52 422.918 89 c 2
 479.245 354 l 2
 487.535 393 484.447 402 449.447 402 c 2
 429.447 402 l 2
 426.447 402 424.66 403 425.511 407 c 2
 431.25 434 l 1
 432.675 436 l 1
 546.25 434 l 1
 675.675 436 l 1
 676.25 434 l 1
 670.511 407 l 2
 669.873 404 668.447 402 664.447 402 c 2
 640.447 402 l 2
 606.447 402 597.96 395 589.245 354 c 2
 533.13 90 l 2
 524.203 48 534.715 41 563.715 41 c 2
 673.715 41 l 2
 710.715 41 717.541 59 724.13 90 c 2
 780.458 355 l 2
 788.535 393 785.447 402 750.447 402 c 2
 725.447 402 l 2
 722.447 402 720.66 403 721.511 407 c 2
 727.25 434 l 1
 728.675 436 l 1
 847.037 433 l 1
 972.675 436 l 1
 974.25 434 l 1
 968.723 408 l 2
 967.873 404 965.447 402 961.447 402 c 2
 940.447 402 l 2
 907.447 402 899.173 396 890.458 355 c 2
EndSplineSet
EndChar

StartChar: afii10091
Encoding: 1097 1097 97
Width: 917
VWidth: 999
Flags: HW
HStem: -1 34<43 101.812> 0 40<215.46 401.502 517.304 702.1> 402 34<33 100.608 215.968 277 340 400.902 517.294 583 636 701.902 817.932 880>
VStem: 104 109<42.1362 400.422> 404 110<41.8323 400.488> 705 110<42.9362 400.499> 843 43<-128 -68.6074>
LayerCount: 2
Fore
SplineSet
890.458 355 m 2
 831.792 79 l 2
 826.479 54 835.015 33 858.015 33 c 0
 872.015 33 884.526 26 881.7 8 c 2
 858.793 -128 l 1
 815.793 -128 l 1
 814.208 -79 804 0 724 0 c 2
 155 0 l 1
 42.7871 -1 l 1
 42.2129 1 l 1
 47.7393 27 l 2
 48.5889 31 50.0146 33 54.0146 33 c 2
 70.0146 33 l 2
 105.015 33 111.864 37 119.941 75 c 2
 179.458 355 l 2
 187.535 393 183.447 402 148.447 402 c 2
 122.447 402 l 2
 119.447 402 117.66 403 118.511 407 c 2
 124.25 434 l 1
 125.675 436 l 1
 246.037 433 l 1
 369.675 436 l 1
 371.25 434 l 1
 365.723 408 l 2
 364.873 404 362.447 402 358.447 402 c 2
 339.447 402 l 2
 305.447 402 297.173 396 288.458 355 c 2
 231.705 88 l 2
 223.415 49 227.502 40 262.502 40 c 2
 372.502 40 l 2
 407.502 40 414.841 51 422.705 88 c 2
 479.245 354 l 2
 487.535 393 484.447 402 449.447 402 c 2
 429.447 402 l 2
 426.447 402 424.66 403 425.511 407 c 2
 431.25 434 l 1
 432.675 436 l 1
 546.25 434 l 1
 675.675 436 l 1
 676.25 434 l 1
 670.511 407 l 2
 669.873 404 668.447 402 664.447 402 c 2
 640.447 402 l 2
 606.447 402 597.96 395 589.245 354 c 2
 532.705 88 l 2
 523.777 46 534.502 40 563.502 40 c 2
 673.715 41 l 2
 710.778 41.2998 716.903 56 723.918 89 c 2
 780.458 355 l 2
 788.535 393 785.447 402 750.447 402 c 2
 725.447 402 l 2
 722.447 402 720.66 403 721.511 407 c 2
 727.25 434 l 1
 728.675 436 l 1
 847.037 433 l 1
 972.675 436 l 1
 974.25 434 l 1
 968.723 408 l 2
 967.873 404 965.447 402 961.447 402 c 2
 940.447 402 l 2
 907.447 402 899.173 396 890.458 355 c 2
EndSplineSet
EndChar

StartChar: afii10092
Encoding: 1098 1098 98
Width: 590
VWidth: 999
Flags: HW
HStem: -1 34<128 190.926 315.978 425.383> 224 37<306 429.16> 393 41<96.8817 193.94> 402 34<308.281 380>
VStem: 26 35<279 343.414> 196 110<42.1465 224 261 392.378> 449 110<64.672 203.325>
LayerCount: 2
Fore
SplineSet
212.367 77 m 2
 269.757 347 l 2
 277.622 384 272.535 393 250.535 393 c 0
 168.535 393 153.883 357 119.453 275 c 1
 85.5156 280 l 1
 102.293 326 117.134 377 130.462 435 c 1
 343.25 434 l 1
 472.675 436 l 1
 474.25 434 l 1
 468.298 406 l 2
 467.447 402 465.447 402 462.447 402 c 2
 431.447 402 l 2
 395.447 402 389.747 394 382.308 359 c 2
 361.478 261 l 1
 427.478 261 l 2
 523.478 261 607.888 230 587.908 136 c 0
 570.053 52 488 0 376 0 c 2
 249.213 1 l 2
 213.213 1 127.787 -1 127.787 -1 c 1
 126.213 1 l 1
 131.102 24 l 2
 132.377 30 136.015 33 141.015 33 c 2
 160.015 33 l 2
 194.015 33 206.203 48 212.367 77 c 2
475.782 126 m 0
 487.048 179 491.612 224 420.612 224 c 2
 353.612 224 l 1
 323.643 83 l 2
 315.99 47 330.652 36 376.652 36 c 0
 426.652 36 458.353 44 475.782 126 c 0
EndSplineSet
EndChar

StartChar: afii10093
Encoding: 1099 1099 99
Width: 749
VWidth: 999
Flags: HW
HStem: -1 34<38 100.926 223.805 335.983 475 537.648 658.352 721> 224 37<216 339.16> 401 34<38 100.926 221.352 284> 402 34<475 537.648 658.352 721>
VStem: 106 110<40.9339 224 261 397.844> 359 110<64.672 203.325> 543 110<36.1563 398.688>
LayerCount: 2
Fore
SplineSet
619.096 358 m 2
 625.047 386 618.447 402 585.447 402 c 2
 566.447 402 l 2
 561.447 402 559.085 405 560.148 410 c 2
 565.25 434 l 1
 567.675 436 l 1
 567.675 436 652.25 434 688.25 434 c 0
 727.25 434 813.675 436 813.675 436 c 1
 815.25 434 l 1
 810.148 410 l 2
 809.085 405 804.447 402 800.447 402 c 2
 781.447 402 l 2
 748.447 402 735.047 386 729.096 358 c 2
 669.367 77 l 2
 663.203 48 670.015 33 703.015 33 c 2
 722.015 33 l 2
 726.015 33 729.377 30 728.102 24 c 2
 723.213 1 l 1
 720.787 -1 l 1
 720.787 -1 635.213 1 596.213 1 c 0
 560.213 1 474.787 -1 474.787 -1 c 1
 473.213 1 l 1
 478.102 24 l 2
 479.377 30 483.015 33 488.015 33 c 2
 507.015 33 l 2
 540.015 33 553.203 48 559.367 77 c 2
 619.096 358 l 2
385.782 126 m 0
 397.048 179 401.612 224 330.612 224 c 2
 263.612 224 l 1
 232.792 79 l 2
 225.14 43 240.652 36 286.652 36 c 0
 336.652 36 368.353 44 385.782 126 c 0
122.367 77 m 2
 181.883 357 l 2
 188.047 386 182.235 401 148.235 401 c 2
 129.235 401 l 2
 124.235 401 121.873 404 123.148 410 c 2
 128.037 433 l 1
 130.462 435 l 1
 130.462 435 216.037 433 251.037 433 c 0
 290.037 433 376.462 435 376.462 435 c 1
 378.037 433 l 1
 373.148 410 l 2
 371.873 404 367.235 401 363.235 401 c 2
 344.235 401 l 2
 311.235 401 298.047 386 291.883 357 c 2
 271.478 261 l 1
 337.478 261 l 2
 433.478 261 517.888 230 497.907 136 c 0
 480.053 52 398 0 287 0 c 2
 159.213 1 l 2
 124.213 1 37.7871 -1 37.7871 -1 c 1
 36.2129 1 l 1
 41.1016 24 l 2
 42.377 30 46.0146 33 51.0146 33 c 2
 70.0146 33 l 2
 104.015 33 116.203 48 122.367 77 c 2
EndSplineSet
EndChar

StartChar: afii10094
Encoding: 1100 1100 100
Width: 500
VWidth: 999
Flags: HW
HStem: -1 34<38 100.926 223.805 335.983> 224 37<216 339.16> 401 34<38 100.926 221.352 284>
VStem: 106 110<40.9339 224 261 397.844> 359 110<64.672 203.325>
LayerCount: 2
Fore
SplineSet
385.782 126 m 0
 397.048 179 401.612 224 330.612 224 c 2
 263.612 224 l 1
 232.792 79 l 2
 225.14 43 240.652 36 286.652 36 c 0
 336.652 36 368.353 44 385.782 126 c 0
122.367 77 m 2
 181.883 357 l 2
 188.047 386 182.235 401 148.235 401 c 2
 129.235 401 l 2
 124.235 401 121.873 404 123.148 410 c 2
 128.037 433 l 1
 130.462 435 l 1
 130.462 435 216.037 433 251.037 433 c 0
 290.037 433 376.462 435 376.462 435 c 1
 378.037 433 l 1
 373.148 410 l 2
 371.873 404 367.235 401 363.235 401 c 2
 344.235 401 l 2
 311.235 401 298.047 386 291.883 357 c 2
 271.478 261 l 1
 337.478 261 l 2
 433.478 261 517.888 230 497.907 136 c 0
 480.053 52 398 0 287 0 c 2
 159.213 1 l 2
 124.213 1 37.7871 -1 37.7871 -1 c 1
 36.2129 1 l 1
 41.1016 24 l 2
 42.377 30 46.0146 33 51.0146 33 c 2
 70.0146 33 l 2
 104.015 33 116.203 48 122.367 77 c 2
EndSplineSet
EndChar

StartChar: afii10095
Encoding: 1101 1101 101
Width: 452
VWidth: 999
Flags: HW
HStem: -12 35<135.21 247.128> 180 49<160.832 296.342> 207 41<92.6331 188.46> 406 36<125.918 245.651>
VStem: 37 77<40.7447 108.21> 40 35<296.2 346.239> 297 111<121.734 199 229.057 318.451>
LayerCount: 2
Fore
SplineSet
346.101 231 m 1
 359.617 304 369.298 406 277.298 406 c 0
 196.298 406 164.245 354 137.279 293 c 1
 103.129 297 l 1
 118.481 341 128.709 375 142.399 430 c 1
 212.399 430 222.95 442 294.95 442 c 0
 417.95 442 479.206 335 455.825 225 c 0
 422.454 68 290.449 -12 184.449 -12 c 0
 101.449 -12 43.8018 32 54.8545 84 c 0
 57.8301 98 77.0186 113 95.0186 113 c 0
 106.019 113 132.169 109 130.154 76 c 0
 128.928 42 155.889 23 197.889 23 c 0
 288.889 23 321.932 122 339.299 199 c 1
 317.173 189 290.26 180 266.26 180 c 0
 222.26 180 198.999 207 163.999 207 c 0
 151.999 207 140.937 202 132.937 202 c 0
 126.937 202 127.85 211 128.699 215 c 0
 131.888 230 180.714 248 223.714 248 c 0
 268.714 248 281.676 229 319.676 229 c 0
 329.676 229 337.888 230 346.101 231 c 1
EndSplineSet
EndChar

StartChar: afii10096
Encoding: 1102 1102 102
Width: 774
VWidth: 999
Flags: HW
HStem: -10 43<491.623 588.559> -1 34<29 91.6475 212.352 275> 402 34<29 91.6475 212.352 275> 403 41<472.16 567.482>
VStem: 97 110<36.1563 398.688> 200 119<196 240> 311.3 115.9<119.406 317.729> 624.8 115<118.762 320.282>
LayerCount: 2
Fore
SplineSet
173.096 358 m 2
 179.047 386 172.447 402 139.447 402 c 2
 120.447 402 l 2
 115.447 402 113.085 405 114.148 410 c 2
 119.25 434 l 1
 121.675 436 l 1
 121.675 436 206.25 434 242.25 434 c 0
 281.25 434 367.675 436 367.675 436 c 1
 369.25 434 l 1
 364.148 410 l 2
 363.085 405 358.447 402 354.447 402 c 2
 335.447 402 l 2
 302.447 402 289.047 386 283.096 358 c 2
 258.014 240 l 1
 366.813 240 l 1
 381.896 287.9 407.9 334.5 444.746 370 c 0
 491.896 415.4 556.775 444 635.575 444 c 0
 776.675 444 841.015 346.8 813.212 216 c 0
 801.373 160.3 770.419 92.2998 712.69 47 c 0
 665.768 10.2002 604.975 -10 538.074 -10 c 0
 414.074 -10 335.02 71.5996 356.062 196 c 1
 248.661 196 l 1
 223.367 77 l 2
 217.203 48 224.015 33 257.015 33 c 2
 276.015 33 l 2
 280.015 33 283.377 30 282.102 24 c 2
 277.213 1 l 1
 274.787 -1 l 1
 274.787 -1 189.213 1 150.213 1 c 0
 114.213 1 28.7871 -1 28.7871 -1 c 1
 27.2129 1 l 1
 32.1016 24 l 2
 33.377 30 37.0146 33 42.0146 33 c 2
 61.0146 33 l 2
 94.0146 33 107.203 48 113.367 77 c 2
 173.096 358 l 2
611.447 402 m 0
 547.748 402 515.431 321 495.875 229 c 0
 480.146 155 484.401 32 562.302 32 c 0
 596.502 32 647.883 63.9004 673.41 184 c 0
 702.53 321 676.048 402 611.447 402 c 0
EndSplineSet
EndChar

StartChar: afii10097
Encoding: 1103 1103 103
Width: 479
VWidth: 999
Flags: HW
HStem: -1 34<19 64.1167 231 284.833 389.366 450> 195 40<220.82 287> 204 31<163 174> 402 33<171.489 285.05 382.047 448>
VStem: 42 110<251.526 368.984> 287 92<38.896 195 235 399.272>
LayerCount: 2
Fore
SplineSet
336.951 235 m 1
 364.796 366 l 2
 371.598 398 365.447 402 326.447 402 c 0
 239.447 402 230.221 368 220.23 321 c 0
 209.603 271 212.951 235 268.951 235 c 2
 336.951 235 l 1
137.907 136 m 0
 162.622 177 188.086 198 217.361 204 c 1
 162.361 204 92.8008 239 107.893 310 c 0
 123.622 384 224.462 435 298.462 435 c 2
 375.462 435 l 1
 435.25 434 l 1
 540.675 436 l 1
 542.25 434 l 1
 536.085 405 l 2
 535.66 403 534.447 402 531.447 402 c 2
 506.447 402 l 2
 481.447 402 462.535 393 458.071 372 c 2
 396.217 81 l 2
 390.69 55 406.015 33 425.015 33 c 2
 446.015 33 l 2
 454.015 33 455.313 25 455.102 24 c 2
 449.787 -1 l 1
 449.787 -1 384.213 1 341.213 1 c 0
 298.213 1 230.787 -1 230.787 -1 c 1
 236.526 26 l 2
 237.377 30 240.015 33 244.015 33 c 2
 258.015 33 l 2
 292.015 33 295.928 42 304.217 81 c 2
 328.448 195 l 1
 300.448 195 l 2
 261.448 195 226.82 145 192.854 84 c 1
 171.14 43 132 0 100 0 c 2
 18.7871 -1 l 1
 16.2129 1 l 1
 20.251 20 l 2
 21.7393 27 27.9512 28 31.9512 28 c 2
 39.9512 28 l 2
 68.9512 28 115.83 98 137.907 136 c 0
EndSplineSet
EndChar

StartChar: uni04AE
Encoding: 1198 1198 104
Width: 541
Flags: HW
HStem: -1 36<154 228.839 358.336 435> 611 36<-9 41.811 186.001 236 379 429.999 514.645 584>
VStem: 232 123<36.304 280>
DStem2: 313 377 235 280 0.502568 -0.864537<-258.021 0> 313 377 353 292 0.468767 0.883322<0 253.301>
LayerCount: 2
Fore
SplineSet
247.941 75 m 2
 291.941 282 l 1
 294.516 280 l 1
 258.921 376 223.539 473 187.944 569 c 0
 179.833 592 175.384 604 171.021 607 c 0
 167.447 609 161.872 611 154.872 611 c 2
 139.872 611 l 1
 131.085 612 111.723 615 113.21 622 c 2
 116.611 638 l 1
 128.524 647 l 1
 128.524 647 233.099 645 246.099 645 c 0
 252.099 645 373.524 647 373.524 647 c 1
 381.611 638 l 1
 378.423 623 l 2
 377.147 617 366.872 611 347.872 611 c 2
 318.872 611 l 2
 316.872 611 315.234 608 313.959 602 c 0
 312.259 594 313.346 585 317.22 575 c 0
 346.278 500 364.501 454 393.134 377 c 1
 444.162 443 494.191 509 543.22 575 c 0
 551.559 586 556.471 595 557.959 602 c 0
 559.447 609 558.872 611 555.872 611 c 2
 525.872 611 l 1
 504.297 613 501.36 618 502.21 622 c 2
 505.611 638 l 1
 516.524 647 l 1
 516.524 647 608.099 645 621.099 645 c 0
 629.099 645 721.524 647 721.524 647 c 1
 728.611 638 l 1
 725.423 623 l 2
 723.51 614 711.872 611 691.872 611 c 2
 670.872 611 l 2
 655.872 611 644.534 600 620.944 569 c 2
 415.066 292 l 1
 417.279 293 l 1
 370.941 75 l 2
 364.99 47 372.439 35 395.439 35 c 2
 421.439 35 l 2
 437.439 35 450.589 31 448.889 23 c 2
 445.7 8 l 1
 434.787 -1 l 1
 434.787 -1 334.213 1 296.213 1 c 0
 261.213 1 153.787 -1 153.787 -1 c 1
 146.7 8 l 1
 149.889 23 l 2
 151.589 31 163.439 35 181.439 35 c 2
 207.439 35 l 2
 231.439 35 242.628 50 247.941 75 c 2
EndSplineSet
EndChar

StartChar: uni04C0
Encoding: 1216 1216 105
Width: 317
VWidth: 999
Flags: HW
HStem: -2 34<36 104.724 240.184 308> 613 34<36 104.724 240.184 308>
VStem: 111 122<37.5094 607.491>
LayerCount: 2
Fore
SplineSet
237.167 523 m 2
 254.81 606 227.659 610 173.297 613 c 1
 164.572 619 169.249 641 180.524 647 c 1
 220.312 646 294.099 645 334.099 645 c 0
 374.099 645 446.312 646 486.524 647 c 1
 495.249 641 490.572 619 479.297 613 c 1
 423.659 610 394.81 606 377.167 523 c 2
 291.932 122 l 2
 274.29 39 301.439 35 355.802 32 c 1
 364.526 26 359.851 4 348.575 -2 c 1
 308.787 -1 237 0 197 0 c 0
 157 0 82.7871 -1 42.5752 -2 c 1
 33.8506 4 38.5264 26 49.8018 32 c 1
 105.439 35 134.29 39 151.932 122 c 2
 237.167 523 l 2
EndSplineSet
EndChar

StartChar: uni04D0
Encoding: 1232 1232 106
Width: 740
VWidth: 999
Flags: HW
HStem: -2 33<3.625 68.0908 159.081 227.375 436.625 513.951 621.148 688.375> 241 42<241.019 440> 638 20<381.5 396.203> 698 31<313.585 404.415>
VStem: 234 69<735.873 804.004> 415 69<737.589 804.004>
DStem2: 106.983 102 155 79 0.390001 0.920814<-30.5131 181.817 227.512 466.368> 334 638 340 555 0.390001 0.920814<-561.337 -408.806 -359.549 -74.0876> 389 658 346 555 0.338836 -0.940845<82.3371 370.098 415.035 619.885>
LayerCount: 2
Fore
SplineSet
333.153 283 m 2
 485.153 283 l 1
 453.63 520 l 1
 446.729 520 l 1
 310.78 296.3 l 2
 304.791 286 311.153 283 333.153 283 c 2
181.792 79 m 2
 157.355 37.9004 203.755 34.5996 240.802 32 c 1
 245.526 26 240.851 4 233.575 -2 c 1
 196.787 -1 142 0 101 0 c 0
 62 0 43.7871 -1 6.5752 -2 c 1
 1.85059 4 6.52637 26 13.8018 32 c 1
 57.9395 35 89.3232 40.0996 128.681 102 c 2
 454.31 614 l 1
 489.51 614 556.949 649 573.862 658 c 1
 658.28 86 l 2
 665.761 35.0996 698.746 35.5 736.802 32 c 1
 741.526 26 736.851 4 729.575 -2 c 1
 692.787 -1 637 0 596 0 c 0
 557 0 461.787 -1 424.575 -2 c 1
 419.851 4 424.526 26 431.802 32 c 1
 480.125 35.4004 519.589 31 514.304 72 c 2
 492.951 235 l 1
 302.951 235 l 2
 278.951 235 272.101 231 264.337 218 c 2
 181.792 79 l 2
647.731 775 m 0
 636.679 723 569.364 698 506.364 698 c 0
 440.364 698 387.466 722 398.519 774 c 0
 403.195 796 417.108 805 444.108 805 c 0
 465.108 805 471.707 789 468.519 774 c 0
 468.094 772 466.031 767 465.818 766 c 0
 461.567 746 480.954 729 513.954 729 c 0
 543.954 729 571.93 743 576.605 765 c 0
 576.818 766 577.307 773 577.519 774 c 0
 580.707 789 593.108 805 616.108 805 c 0
 642.108 805 651.982 795 647.731 775 c 0
EndSplineSet
LCarets2: 1 0 
EndChar

StartChar: uni04D1
Encoding: 1233 1233 107
Width: 506
VWidth: 999
Flags: HW
HStem: -10 41<139.654 240.143 343.315 429.949> 406 33<144.709 258.364> 503 31<171.971 246.548>
VStem: 36 83<50.144 160.39> 55 74<295.655 377.387> 88 73<540.553 619.612> 257 73<541.079 620.243> 293 78<68.9033 233 264.049 372.119>
DStem2: 201 243 214 212 0.971457 0.237216<-61.6983 87.0019>
LayerCount: 2
Fore
SplineSet
305.509 48.5 m 1
 299.203 48 l 1
 260.676 22 195.874 -10 166.874 -10 c 0
 79.874 -10 49.5264 26 64.1934 95 c 0
 80.9844 174 160.749 203 273.163 236 c 2
 344.627 257 l 1
 371.622 384 335.447 402 293.447 402 c 0
 259.947 402 250.261 390.3 246.401 379.2 c 0
 240.424 361.9 243.875 345.2 241.068 332 c 0
 235.925 307.8 198.349 285.8 162.948 285.8 c 0
 123.349 285.8 115.903 307.7 121.982 336.3 c 0
 136.012 402.3 263.375 444 336.375 444 c 0
 418.375 444 506.211 415 475.603 271 c 1
 442.995 127 l 2
 432.579 78 434.753 60 456.753 60 c 0
 475.753 60 486.604 64 501.729 74 c 1
 511.604 64 516.328 58 513.777 46 c 1
 469.338 11 426.175 -10 370.874 -10 c 0
 326.874 -10 303.7 8 305.509 48.5 c 1
336.337 218 m 1
 280.724 201 l 2
 205.114 177.9 195.267 147.1 187.381 110 c 0
 180.792 79 189.628 50 232.628 50 c 0
 250.628 50 279.028 66 308.28 86 c 1
 336.337 218 l 1
454.983 588 m 0
 443.293 533 378.278 500 314.278 500 c 0
 249.278 500 201.293 533 212.771 587 c 0
 216.597 605 235.785 620 258.785 620 c 0
 280.785 620 289.81 606 286.408 590 c 0
 285.983 588 284.346 585 283.708 582 c 0
 282.07 579 281.433 576 281.008 574 c 0
 276.331 552 291.867 531 321.867 531 c 0
 350.867 531 376.119 551 380.795 573 c 0
 381.433 576 382.07 579 381.708 582 c 0
 381.133 584 381.771 587 382.195 589 c 0
 385.81 606 404.785 620 423.785 620 c 0
 447.785 620 459.021 607 454.983 588 c 0
EndSplineSet
LCarets2: 1 0 
EndChar

StartChar: uni04D2
Encoding: 1234 1234 108
Width: 740
VWidth: 999
Flags: HW
HStem: -1 34<10 60.0229 142.897 211 414 482.841 622.594 692> 241 47<234.168 403> 638 20<348.5 364.5> 703 107<235.97 322.324 416.676 503.03>
VStem: 225 108<714.388 798.537> 406 108<714.388 798.537>
DStem2: 89 91 148 79 0.384126 0.923281<-23.1403 196.063 246.684 479.281> 399 627 320 514 0.352654 -0.935754<77.8806 318.631 368.607 561.264>
LayerCount: 2
Fore
SplineSet
580.692 756 m 0
 587.282 787 616.384 811 647.384 811 c 0
 677.384 811 697.282 787 690.692 756 c 0
 684.316 726 654.215 702 624.215 702 c 0
 593.215 702 574.316 726 580.692 756 c 0
394.692 756 m 0
 401.282 787 431.384 811 461.384 811 c 0
 492.384 811 511.282 787 504.692 756 c 0
 498.316 726 469.215 702 438.215 702 c 0
 408.215 702 388.316 726 394.692 756 c 0
333.153 283 m 2
 485.153 283 l 1
 453.63 520 l 1
 446.729 520 l 1
 310.78 296.3 l 2
 304.791 286 311.153 283 333.153 283 c 2
181.792 79 m 2
 157.355 37.9004 203.755 34.5996 240.802 32 c 1
 245.526 26 240.851 4 233.575 -2 c 1
 196.787 -1 142 0 101 0 c 0
 62 0 43.7871 -1 6.5752 -2 c 1
 1.85059 4 6.52637 26 13.8018 32 c 1
 57.9395 35 89.3232 40.0996 128.681 102 c 2
 454.31 614 l 1
 489.51 614 556.949 649 573.862 658 c 1
 658.28 86 l 2
 665.761 35.0996 698.746 35.5 736.802 32 c 1
 741.526 26 736.851 4 729.575 -2 c 1
 692.787 -1 637 0 596 0 c 0
 557 0 461.787 -1 424.575 -2 c 1
 419.851 4 424.526 26 431.802 32 c 1
 480.125 35.4004 519.589 31 514.304 72 c 2
 492.951 235 l 1
 302.951 235 l 2
 278.951 235 272.101 231 264.337 218 c 2
 181.792 79 l 2
EndSplineSet
LCarets2: 1 0 
EndChar

StartChar: uni04D3
Encoding: 1235 1235 109
Width: 506
VWidth: 999
Flags: HW
HStem: -10 55<110.871 229.853 351 447.215> 406 38<148.426 256.61> 518 107<91.9699 178.324 272.676 359.03>
VStem: 36 105<56.7004 159.155> 48 93<295.994 379.736> 81 108<529.388 613.537> 262 108<529.388 613.537> 282 108<69.6589 219 257 374.929>
DStem2: 210 236 225 202 0.96 0.28<-70.2096 64.36>
LayerCount: 2
Fore
SplineSet
397.795 573 m 0
 404.384 604 433.485 628 464.485 628 c 0
 494.485 628 514.384 604 507.795 573 c 0
 501.418 543 471.316 519 441.316 519 c 0
 410.316 519 391.418 543 397.795 573 c 0
211.795 573 m 0
 218.384 604 248.485 628 278.485 628 c 0
 309.485 628 328.384 604 321.795 573 c 0
 315.418 543 286.316 519 255.316 519 c 0
 225.316 519 205.418 543 211.795 573 c 0
305.509 48.5 m 1
 299.203 48 l 1
 260.676 22 195.874 -10 166.874 -10 c 0
 79.874 -10 49.5264 26 64.1934 95 c 0
 80.9844 174 160.749 203 273.163 236 c 2
 344.627 257 l 1
 371.622 384 335.447 402 293.447 402 c 0
 259.947 402 250.261 390.3 246.401 379.2 c 0
 240.424 361.9 243.875 345.2 241.068 332 c 0
 235.925 307.8 198.349 285.8 162.948 285.8 c 0
 123.349 285.8 115.903 307.7 121.982 336.3 c 0
 136.012 402.3 263.375 444 336.375 444 c 0
 418.375 444 506.211 415 475.603 271 c 1
 442.995 127 l 2
 432.579 78 434.753 60 456.753 60 c 0
 475.753 60 486.604 64 501.729 74 c 1
 511.604 64 516.328 58 513.777 46 c 1
 469.338 11 426.175 -10 370.874 -10 c 0
 326.874 -10 303.7 8 305.509 48.5 c 1
336.337 218 m 1
 280.724 201 l 2
 205.114 177.9 195.267 147.1 187.381 110 c 0
 180.792 79 189.628 50 232.628 50 c 0
 250.628 50 279.028 66 308.28 86 c 1
 336.337 218 l 1
EndSplineSet
LCarets2: 1 0 
EndChar

StartChar: uni04D4
Encoding: 1236 1236 110
Width: 956
VWidth: 999
Flags: HW
HStem: -1 34<4 81.5469 161.374 218 362 442.155> 1 46<571.232 790.184> 266 39<291 449> 324 42<571 708.75> 428 20<730 762> 601 45<571.232 768.482> 613 33<296 356.281>
VStem: 449 122<47.4756 266 305 324 366 558.22> 719 36<252.814 316.565 373.435 437.232> 821 40<483.425 532.807> 846 44<116.362 171.591>
DStem2: 95 70 165 68 0.465821 0.884879<8.60003 255.421 299.247 590.236>
LayerCount: 2
Fore
SplineSet
133.681 102 m 2
 483.457 562 l 2
 510.93 598.1 488.297 613 442.297 613 c 0
 436.297 613 434.935 616 435.785 620 c 2
 441.099 645 l 1
 443.524 647 l 1
 650.099 645 l 1
 948.099 645 l 2
 972.099 645 980.312 646 997.949 649 c 0
 1000.95 649 1001.74 648 1001.31 646 c 0
 1001.61 638 986.206 542 982.491 501 c 1
 971.691 496.3 950.445 494.2 938.428 496 c 1
 931.095 565 918.172 603 843.172 603 c 2
 758.172 603 l 2
 734.172 603 711.857 578 706.756 554 c 2
 667.008 367 l 1
 748.008 367 l 2
 815.008 367 837.496 374 852.187 429 c 1
 859.462 435 890.462 435 895.187 429 c 1
 887.811 399 882.134 377 874.907 343 c 0
 867.68 309 864.642 290 858.202 255 c 1
 850.927 249 819.927 249 815.202 255 c 1
 821.767 300 806.381 317 737.381 317 c 2
 656.381 317 l 1
 608.13 90 l 2
 602.391 63 616.928 42 638.928 42 c 2
 739.928 42 l 2
 815.928 42 872.83 98 908.135 170 c 1
 921.915 173.2 942.947 171 952.072 165 c 1
 933.231 114 914.203 48 889.575 -2 c 1
 889.575 -2 800 0 752 0 c 2
 516 0 l 1
 516 0 410.787 -1 361.575 -2 c 1
 356.851 4 361.526 26 368.802 32 c 1
 439.439 35 457.29 39 474.932 122 c 2
 505.54 266 l 1
 327.54 266 l 1
 186.792 79 l 2
 157.402 40 208.755 34.5996 245.802 32 c 1
 250.526 26 245.851 4 238.575 -2 c 1
 201.787 -1 147 0 106 0 c 0
 67 0 48.7871 -1 11.5752 -2 c 1
 6.85059 4 11.5264 26 18.8018 32 c 1
 62.9395 35 89.5527 44 133.681 102 c 2
364.168 316 m 1
 516.168 316 l 1
 564.844 545 l 2
 570.37 571 559.958 578 536.056 546 c 2
 364.168 316 l 1
EndSplineSet
EndChar

StartChar: uni04D5
Encoding: 1237 1237 111
Width: 715
VWidth: 999
Flags: HW
HStem: -12 50<170.4 265.865 476.5 578.383> 209 44<222.016 301> 399 45<457.148 555.404> 407 37<161.99 261.109>
VStem: 47 104<57.8405 157.134> 58 97<311.521 385.652> 301 105<117.991 209 260 335.245> 574 104<295.592 383.979>
LayerCount: 2
Fore
SplineSet
587.447 402 m 0
 535.447 402 497.994 334 472.202 255 c 1
 543.38 259.6 614.55 260.4 639.153 283 c 1
 652.119 344 643.447 402 587.447 402 c 0
303.768 93 m 0
 313.687 107.2 324.435 162 335.424 209 c 1
 237.874 197 184.159 156 174.594 111 c 0
 171.745 97.5996 169.915 82.4004 171.304 72 c 0
 174.056 50.5996 186.603 40 205.502 40 c 0
 229.603 40 275.053 52 303.768 93 c 0
539.092 71 m 0
 577.092 71 646.492 87 696.42 129 c 1
 706.42 129 707.594 111 704.83 98 c 1
 639.313 25 573.874 -10 504.874 -10 c 0
 456.374 -10 412.509 -0.900391 389.826 18 c 0
 373.338 31.7002 357.14 43 351.241 67 c 1
 295.551 12 207.374 -10 179.874 -10 c 0
 139.374 -10 108.725 -6 86.4873 11.7002 c 0
 63.9131 29.7002 50.3057 62.5996 58.043 99 c 0
 75.707 182.1 173.738 234 343.714 248 c 1
 366.032 353 350.447 402 303.447 402 c 0
 266.447 402 238.535 393 233.858 371 c 0
 229.607 351 234.27 340 231.719 328 c 0
 228.743 314 211.004 287 166.004 287 c 0
 131.004 287 119.53 313 125.057 339 c 0
 137.811 399 242.375 444 314.375 444 c 0
 367.375 444 432.975 428 447.496 374 c 1
 499.612 431 550.375 444 607.375 444 c 0
 756.675 444 759.783 357 746.583 294.9 c 0
 742.119 273.9 737.457 264.2 732.289 246 c 1
 685.813 219.3 569.113 219.3 462.125 217 c 1
 441.656 116 478.092 71 539.092 71 c 0
EndSplineSet
EndChar

StartChar: uni04D6
Encoding: 1238 1238 112
Width: 604
VWidth: 999
Flags: HW
HStem: -2 33<6.625 79.75> 0 39<186.719 418.897> 323 38<182 350.322> 605 40<187.062 389.552> 614 33<7.25781 79.75> 698 31<228.585 319.415>
VStem: 97 85<43.3808 323 361 601.619> 149 69<735.873 804.004> 330 69<737.589 804.004> 364 33<251.625 306.925 373.446 432.375> 436 33<498.32 539.828> 485 35<122.11 168.353>
LayerCount: 2
Fore
SplineSet
396.008 367 m 2
 463.008 367 485.496 374 500.187 429 c 1
 507.462 435 538.462 435 543.187 429 c 1
 535.811 399 530.134 377 522.907 343 c 0
 515.68 309 512.642 290 506.202 255 c 1
 498.927 249 467.927 249 463.202 255 c 1
 469.767 300 454.381 317 385.381 317 c 2
 304.381 317 l 1
 256.13 90 l 2
 250.391 63 264.928 42 286.928 42 c 2
 387.928 42 l 2
 463.928 42 520.83 98 556.135 170 c 1
 569.915 173.2 590.947 171 600.072 165 c 1
 581.231 114 562.203 48 537.575 -2 c 1
 537.575 -2 448 0 400 0 c 2
 165 0 l 1
 165 0 58.7871 -1 9.5752 -2 c 1
 4.85059 4 9.52637 26 16.8018 32 c 1
 87.4395 35 105.29 39 122.932 122 c 2
 207.954 522 l 2
 225.597 605 209.659 610 140.297 613 c 1
 135.572 619 140.249 641 147.524 647 c 1
 197.312 646 301.099 645 301.099 645 c 1
 596.099 645 l 2
 620.099 645 628.312 646 645.949 649 c 0
 648.949 649 649.736 648 649.312 646 c 0
 649.611 638 634.206 542 630.491 501 c 1
 619.691 496.3 598.445 494.2 586.428 496 c 1
 579.095 565 566.172 603 491.172 603 c 2
 406.172 603 l 2
 382.172 603 359.857 578 354.756 554 c 2
 315.008 367 l 1
 396.008 367 l 2
562.731 775 m 0
 551.679 723 484.364 698 421.364 698 c 0
 355.364 698 302.466 722 313.519 774 c 0
 318.195 796 332.108 805 359.108 805 c 0
 380.108 805 386.707 789 383.519 774 c 0
 383.094 772 381.031 767 380.818 766 c 0
 376.567 746 395.954 729 428.954 729 c 0
 458.954 729 486.93 743 491.605 765 c 0
 491.818 766 492.307 773 492.519 774 c 0
 495.707 789 508.108 805 531.108 805 c 0
 557.108 805 566.982 795 562.731 775 c 0
EndSplineSet
LCarets2: 1 0 
EndChar

StartChar: uni04D7
Encoding: 1239 1239 113
Width: 484
VWidth: 999
Flags: HW
HStem: -10 49<198.819 330.136> 248 34<124 319.997> 404 33<182.425 285.355> 503 31<186.971 261.548>
VStem: 37 84<130.927 248 282 306.625> 103 73<540.553 619.612> 272 73<541.079 620.243> 320 86<257.5 365.153>
LayerCount: 2
Fore
SplineSet
230.453 275 m 1
 366.453 275 l 1
 368.878 277 371.642 290 372.917 296 c 0
 389.921 376 358.447 402 331.447 402 c 0
 320.147 402 291.18 391.8 270.221 368 c 0
 252.306 347.7 238.893 310 230.453 275 c 1
453.42 129 m 1
 463.42 129 464.594 111 461.83 98 c 1
 396.313 25 320.874 -10 251.874 -10 c 0
 180.774 -10 135.854 5.90039 105.502 40 c 0
 70.9492 78.7998 66.6514 139.5 79.0859 198 c 0
 111.607 351 246.375 444 351.375 444 c 0
 498.375 444 511.607 351 493.54 266 c 0
 490.564 252 481.951 235 457.951 235 c 2
 217.951 235 l 1
 216.888 230 215.038 226 213.55 219 c 0
 192.72 121 231.154 76 309.154 76 c 0
 347.154 76 403.492 87 453.42 129 c 1
469.983 588 m 0
 458.293 533 393.278 500 329.278 500 c 0
 264.278 500 216.293 533 227.771 587 c 0
 231.597 605 250.785 620 273.785 620 c 0
 295.785 620 304.81 606 301.408 590 c 0
 300.983 588 299.346 585 298.708 582 c 0
 297.07 579 296.433 576 296.008 574 c 0
 291.331 552 306.867 531 336.867 531 c 0
 365.867 531 391.119 551 395.795 573 c 0
 396.433 576 397.07 579 396.708 582 c 0
 396.133 584 396.771 587 397.195 589 c 0
 400.81 606 419.785 620 438.785 620 c 0
 462.785 620 474.021 607 469.983 588 c 0
EndSplineSet
LCarets2: 1 0 
EndChar

StartChar: uni04D8
Encoding: 1240 1240 114
Width: 692
VWidth: 999
Flags: HW
HStem: -12 41<271.879 417.179> 213 52<163 523> 617 41<239.681 396.442>
VStem: 534 132<228.384 438.088>
LayerCount: 2
Fore
SplineSet
568.274 213 m 1
 208.274 213 l 1
 214.13 90 272.164 29 356.164 29 c 0
 445.164 29 529.082 118 568.274 213 c 1
221.916 503 m 1
 190.844 545 l 1
 287.785 620 355.862 658 475.862 658 c 0
 703.862 658 769.09 485 735.506 327 c 0
 693.845 131 544.449 -12 340.449 -12 c 0
 134.449 -12 77.5068 120 96.3271 265 c 1
 589.327 265 l 1
 592.24 274 595.004 287 597.129 297 c 0
 635.814 479 573.147 617 453.147 617 c 0
 373.147 617 295.244 561 221.916 503 c 1
EndSplineSet
EndChar

StartChar: afii10846
Encoding: 1241 1241 115
Width: 484
VWidth: 999
Flags: HW
HStem: -11 42<172.507 261.886> 148 40<145 307> 387 56<114.695 242.268>
VStem: 30 115<69.027 174> 312 115<126.397 148 188 308.331>
LayerCount: 2
Fore
SplineSet
336.584 158 m 1
 200.584 158 l 1
 198.159 156 195.396 143 194.12 137 c 0
 177.115 57 208.589 31 235.589 31 c 0
 246.89 31 275.857 41.2002 296.816 65 c 0
 314.731 85.2998 328.145 123 336.584 158 c 1
113.617 304 m 1
 103.617 304 102.443 322 105.206 335 c 1
 170.723 408 246.162 443 315.162 443 c 0
 386.263 443 431.183 427.1 461.535 393 c 0
 496.088 354.2 500.386 293.5 487.951 235 c 0
 455.43 82 320.662 -11 215.662 -11 c 0
 68.6621 -11 55.4297 82 73.4971 167 c 0
 76.4727 181 85.0859 198 109.086 198 c 2
 349.086 198 l 1
 350.149 203 351.999 207 353.487 214 c 0
 374.317 312 335.883 357 257.883 357 c 0
 219.883 357 163.545 346 113.617 304 c 1
EndSplineSet
EndChar

StartChar: uni04DA
Encoding: 1242 1242 116
Width: 692
VWidth: 999
Flags: HW
HStem: -12 34<246.269 393.278> 216 44<122 511> 624 34<207.892 368.818> 711 96<191.332 270.668 380.332 459.668>
VStem: 183 96<719.332 798.668> 372 96<719.332 798.668> 521 90<221.919 443.038>
LayerCount: 2
Fore
SplineSet
568.274 213 m 1
 208.274 213 l 1
 214.13 90 272.164 29 356.164 29 c 0
 445.164 29 529.082 118 568.274 213 c 1
221.916 503 m 1
 190.844 545 l 1
 287.785 620 355.862 658 475.862 658 c 0
 703.862 658 769.09 485 735.506 327 c 0
 693.845 131 544.449 -12 340.449 -12 c 0
 134.449 -12 77.5068 120 96.3271 265 c 1
 589.327 265 l 1
 592.24 274 595.004 287 597.129 297 c 0
 635.814 479 573.147 617 453.147 617 c 0
 373.147 617 295.244 561 221.916 503 c 1
339.243 768 m 0
 346.045 800 375.359 825 407.359 825 c 0
 439.359 825 458.045 800 451.243 768 c 0
 444.441 736 415.34 712 383.34 712 c 0
 351.34 712 332.441 736 339.243 768 c 0
526.243 768 m 0
 533.045 800 563.359 825 595.359 825 c 0
 627.359 825 645.045 800 638.243 768 c 0
 631.441 736 603.34 712 571.34 712 c 0
 539.34 712 519.441 736 526.243 768 c 0
EndSplineSet
LCarets2: 1 0 
EndChar

StartChar: uni04DB
Encoding: 1243 1243 117
Width: 484
VWidth: 999
Flags: HW
HStem: -9 33<142.645 245.575> 146 34<108.003 304> 389 49<97.864 229.181> 526 95<91.0156 168.984 260.016 337.984>
VStem: 22 86<62.847 170.5> 83 94<533.394 613.312> 252 94<533.394 613.312> 307 84<121.375 146 180 297.073>
LayerCount: 2
Fore
SplineSet
336.584 158 m 1
 200.584 158 l 1
 198.159 156 195.396 143 194.12 137 c 0
 177.115 57 208.589 31 235.589 31 c 0
 246.89 31 275.857 41.2002 296.816 65 c 0
 314.731 85.2998 328.145 123 336.584 158 c 1
113.617 304 m 1
 103.617 304 102.443 322 105.206 335 c 1
 170.723 408 246.162 443 315.162 443 c 0
 386.263 443 431.183 427.1 461.535 393 c 0
 496.088 354.2 500.386 293.5 487.951 235 c 0
 455.43 82 320.662 -11 215.662 -11 c 0
 68.6621 -11 55.4297 82 73.4971 167 c 0
 76.4727 181 85.0859 198 109.086 198 c 2
 349.086 198 l 1
 350.149 203 351.999 207 353.487 214 c 0
 374.317 312 335.883 357 257.883 357 c 0
 219.883 357 163.545 346 113.617 304 c 1
397.37 571 m 0
 403.959 602 433.061 626 464.061 626 c 0
 494.061 626 513.959 602 507.37 571 c 0
 500.993 541 470.892 517 440.892 517 c 0
 409.892 517 390.993 541 397.37 571 c 0
211.37 571 m 0
 217.959 602 248.061 626 278.061 626 c 0
 309.061 626 327.959 602 321.37 571 c 0
 314.993 541 285.892 517 254.892 517 c 0
 224.892 517 204.993 541 211.37 571 c 0
EndSplineSet
LCarets2: 1 0 
EndChar

StartChar: uni04E0
Encoding: 1248 1248 118
Width: 632
VWidth: 999
Flags: HW
HStem: -208 48<239.267 370.096> 600 46<156.06 435>
VStem: 57 56<468.375 534.227> 464 132<-45.3333 153.188>
DStem2: 238 243 398 289 0.483142 0.875542<117.578 407.747>
LayerCount: 2
Fore
SplineSet
669.312 646 m 2
 705.312 646 717.823 639 715.698 629 c 0
 714.21 622 699.172 603 686.559 586 c 2
 459.429 289 l 1
 588.627 257 630.222 161 607.479 54 c 0
 577.933 -85 431.788 -208 240.788 -208 c 0
 153.788 -208 -1.55957 -172 12.6816 -105 c 0
 17.9951 -80 39.9473 -52 89.9473 -52 c 0
 125.947 -52 157.759 -67 168.295 -88 c 0
 188.802 -128.9 228.991 -160 268.991 -160 c 0
 345.991 -160 448.908 -71 473.565 45 c 0
 506.512 200 418.564 252 357.564 252 c 0
 345.564 252 335.564 252 289.651 243 c 1
 562.534 600 l 1
 325.534 600 l 1
 269.321 599 225.191 509 211.626 464 c 1
 156.689 469 l 1
 222.263 674 l 1
 257.562 666 255.713 662 264.075 659 c 0
 280.587 652 297.312 646 305.312 646 c 2
 669.312 646 l 2
EndSplineSet
EndChar

StartChar: uni04E1
Encoding: 1249 1249 119
Width: 450
VWidth: 999
Flags: HW
HStem: -227 37<160.355 250.096> 386 47<121 269>
VStem: 316 117<-114.702 49.9858>
DStem2: 110 98 254 156 0.483318 0.875445<120.374 328.976>
LayerCount: 2
Fore
SplineSet
216.524 440 m 0
 215.462 435 214.037 433 213.037 433 c 2
 440.037 433 l 2
 474.037 433 484.975 428 482.424 416 c 0
 481.786 413 474.447 402 463.047 386 c 2
 287.159 156 l 1
 397.333 138 447.666 69 426.623 -30 c 0
 406.005 -127 301.75 -227 144.75 -227 c 0
 41.75 -227 -18.5352 -186 -11.0957 -151 c 0
 -7.48242 -134 9.13086 -117 46.1309 -117 c 0
 80.1309 -117 100.643 -124 109.754 -147 c 0
 117.29 -168 134.614 -190 161.614 -190 c 0
 203.614 -190 285.18 -145 309.411 -31 c 0
 326.841 51 283.807 112 217.807 112 c 0
 202.807 112 173.743 107 130.83 98 c 1
 351.047 386 l 1
 233.047 386 l 2
 214.047 386 192.283 373 154.004 287 c 1
 102.279 293 l 1
 169.501 454 l 1
 218.8 446 l 1
 217.375 444 216.737 441 216.524 440 c 0
EndSplineSet
EndChar

StartChar: uni04E6
Encoding: 1254 1254 120
Width: 730
VWidth: 999
Flags: HW
HStem: -10 34<293.705 441.328> 624 34<262.838 411.203> 711 96<212.332 291.668 401.332 480.668>
VStem: 37 96<199.09 441.882> 204 96<719.332 798.668> 393 96<719.332 798.668> 570 96<196.124 451.881>
LayerCount: 2
Fore
SplineSet
481.935 616 m 0
 392.835 616 301.293 533 257.931 329 c 0
 217.971 141 280.802 32 390.802 32 c 0
 491.802 32 573.162 141.9 608.468 308 c 0
 651.616 511 588.935 616 481.935 616 c 0
763.931 329 m 0
 743.079 230.9 694.765 148.5 626.918 89 c 0
 556.36 27.0996 464.874 -10 361.874 -10 c 0
 191.874 -10 60.5938 111 102.68 309 c 0
 122.32 401.4 169.12 484.2 234.156 546 c 0
 306.986 615.3 402.462 658 502.862 658 c 0
 685.862 658 806.229 528 763.931 329 c 0
360.243 768 m 0
 367.045 800 396.359 825 428.359 825 c 0
 460.359 825 479.045 800 472.243 768 c 0
 465.441 736 436.34 712 404.34 712 c 0
 372.34 712 353.441 736 360.243 768 c 0
547.243 768 m 0
 554.045 800 584.359 825 616.359 825 c 0
 648.359 825 666.045 800 659.243 768 c 0
 652.441 736 624.34 712 592.34 712 c 0
 560.34 712 540.441 736 547.243 768 c 0
EndSplineSet
LCarets2: 1 0 
EndChar

StartChar: uni04E7
Encoding: 1255 1255 121
Width: 551
VWidth: 999
Flags: HW
HStem: -10 43<223.814 325.852> 403 41<203.326 303.665> 519 107<122.97 209.324 303.676 390.03>
VStem: 34 122<119.406 317.729> 112 108<530.388 614.537> 293 108<530.388 614.537> 364 121<118.762 320.282>
LayerCount: 2
Fore
SplineSet
345.447 402 m 0
 278.447 402 245.23 321 225.676 229 c 0
 209.946 155 215.802 32 297.802 32 c 0
 333.802 32 387.582 63.9004 413.11 184 c 0
 442.23 321 413.447 402 345.447 402 c 0
80.999 207 m 0
 93.5615 266.1 123.179 326.4 170.346 370 c 0
 219.496 415.4 287.476 444 370.375 444 c 0
 518.875 444 587.715 346.8 559.912 216 c 0
 548.073 160.3 516.219 92.2998 455.99 47 c 0
 407.068 10.2002 343.374 -10 272.874 -10 c 0
 138.475 -10 53.2393 76.4004 80.999 207 c 0
428.582 572 m 0
 435.172 603 464.273 627 495.273 627 c 0
 525.273 627 545.172 603 538.582 572 c 0
 532.206 542 502.104 518 472.104 518 c 0
 441.104 518 422.206 542 428.582 572 c 0
242.582 572 m 0
 249.172 603 279.273 627 309.273 627 c 0
 340.273 627 359.172 603 352.582 572 c 0
 346.206 542 317.104 518 286.104 518 c 0
 256.104 518 236.206 542 242.582 572 c 0
EndSplineSet
LCarets2: 1 0 
EndChar

StartChar: uni04E8
Encoding: 1256 1256 122
Width: 730
VWidth: 999
Flags: HW
HStem: -10 41<303.11 453.742> 265 58<379.47 528.369> 311 58<169.37 336.519> 617 41<284.435 429.841>
VStem: 37 131<190.561 438.95> 95 15<267.333 271.216> 562 132<199.461 449.883>
LayerCount: 2
Fore
SplineSet
763.931 329 m 0
 743.079 230.9 694.765 148.5 626.918 89 c 0
 556.36 27.0996 464.874 -10 361.874 -10 c 0
 191.874 -10 60.5938 111 102.68 309 c 0
 122.32 401.4 169.12 484.2 234.156 546 c 0
 306.986 615.3 402.462 658 502.862 658 c 0
 685.862 658 806.229 528 763.931 329 c 0
614.985 342.9 m 1
 644.067 523 582.635 616 481.935 616 c 0
 396.734 616 309.302 540.1 263.857 355 c 1
 294.298 364.6 324.434 369 345.434 369 c 0
 444.434 369 464.656 323 527.656 323 c 0
 551.156 323 584.022 329.9 614.985 342.9 c 1
605.498 294.5 m 1
 565.922 272.5 527.128 265 497.327 265 c 0
 405.327 265 391.105 311 316.105 311 c 0
 300.305 311 277.329 309.7 253.33 305 c 1
 223.515 131.8 285.602 32 390.802 32 c 0
 489.002 32 568.708 136 605.498 294.5 c 1
EndSplineSet
EndChar

StartChar: uni04E9
Encoding: 1257 1257 123
Width: 551
VWidth: 999
Flags: HW
HStem: -10 43<223.814 325.852> 176 54<224.827 349.161> 207 45<148.343 245.732> 403 41<203.326 303.665>
VStem: 34 122<119.406 317.729> 364 121<118.762 320.282>
AnchorPoint: "unten_punkt" 223.257 -107 basechar 0
AnchorPoint: "top_punkt" 360.906 550 basechar 0
AnchorPoint: "top_akzent" 373.099 645 basechar 0
LayerCount: 2
Fore
SplineSet
80.999 207 m 0
 93.5615 266.1 123.179 326.4 170.346 370 c 0
 219.496 415.4 287.476 444 370.375 444 c 0
 518.875 444 587.715 346.8 559.912 216 c 0
 548.073 160.3 516.219 92.2998 455.99 47 c 0
 407.068 10.2002 343.374 -10 272.874 -10 c 0
 138.475 -10 53.2393 76.4004 80.999 207 c 0
422.579 243.6 m 1
 432.362 344.2 402.947 402 345.447 402 c 0
 281.748 402 248.589 328.8 228.645 242.5 c 1
 247.235 248.1 267.564 252 283.564 252 c 0
 323.564 252 338.888 230 372.888 230 c 0
 390.088 230 407.912 236.7 422.579 243.6 c 1
418.623 213.7 m 1
 395.656 198.8 354.31 176 322.41 176 c 0
 283.41 176 258.999 207 227.999 207 c 0
 226.299 207 224.156 206.8 221.771 206.4 c 1
 211.742 132.4 223.702 32 297.802 32 c 0
 333.802 32 387.582 63.9004 413.11 184 c 0
 415.278 194.2 417.083 204.1 418.623 213.7 c 1
EndSplineSet
EndChar

StartChar: uni04EA
Encoding: 1258 1258 124
Width: 730
VWidth: 999
Flags: HW
HStem: -10 34<293.705 441.328> 266 57<382.324 529.392> 312 58<172.336 335.102> 624 34<262.838 411.203> 713 96<209.332 288.668 398.332 477.668>
VStem: 37 96<199.09 441.882> 95 15<267.333 271.234> 201 96<721.332 800.668> 390 96<721.332 800.668> 570 96<196.124 451.881>
LayerCount: 2
Fore
SplineSet
763.931 329 m 0
 743.079 230.9 694.765 148.5 626.918 89 c 0
 556.36 27.0996 464.874 -10 361.874 -10 c 0
 191.874 -10 60.5938 111 102.68 309 c 0
 122.32 401.4 169.12 484.2 234.156 546 c 0
 306.986 615.3 402.462 658 502.862 658 c 0
 685.862 658 806.229 528 763.931 329 c 0
357.669 770 m 0
 364.471 802 393.784 827 425.784 827 c 0
 457.784 827 476.471 802 469.669 770 c 0
 462.867 738 433.766 714 401.766 714 c 0
 369.766 714 350.867 738 357.669 770 c 0
544.669 770 m 0
 551.471 802 581.784 827 613.784 827 c 0
 645.784 827 663.471 802 656.669 770 c 0
 649.867 738 621.766 714 589.766 714 c 0
 557.766 714 537.867 738 544.669 770 c 0
614.985 342.9 m 1
 644.067 523 582.635 616 481.935 616 c 0
 396.734 616 309.302 540.1 263.857 355 c 1
 294.298 364.6 324.434 369 345.434 369 c 0
 444.434 369 464.656 323 527.656 323 c 0
 551.156 323 584.022 329.9 614.985 342.9 c 1
605.498 294.5 m 1
 565.922 272.5 527.128 265 497.327 265 c 0
 405.327 265 391.105 311 316.105 311 c 0
 300.305 311 277.329 309.7 253.33 305 c 1
 223.515 131.8 285.602 32 390.802 32 c 0
 489.002 32 568.708 136 605.498 294.5 c 1
EndSplineSet
LCarets2: 1 0 
EndChar

StartChar: uni04EB
Encoding: 1259 1259 125
Width: 551
VWidth: 999
Flags: HW
HStem: -10 33<208.521 319.011> 179 50<214.959 359.048> 207 42<127.26 244.294> 406 33<182.113 294.766> 526 95<124.016 201.984 293.016 370.984>
VStem: 41 86<115.624 315.171> 116 94<533.394 613.312> 285 94<533.394 613.312> 377 86<111.049 316.574>
LayerCount: 2
Fore
SplineSet
430.37 571 m 0
 436.959 602 466.061 626 497.061 626 c 0
 527.061 626 546.959 602 540.37 571 c 0
 533.993 541 503.892 517 473.892 517 c 0
 442.892 517 423.993 541 430.37 571 c 0
244.37 571 m 0
 250.959 602 281.061 626 311.061 626 c 0
 342.061 626 360.959 602 354.37 571 c 0
 347.993 541 318.892 517 287.892 517 c 0
 257.892 517 237.993 541 244.37 571 c 0
80.999 207 m 0
 93.5615 266.1 123.179 326.4 170.346 370 c 0
 219.496 415.4 287.476 444 370.375 444 c 0
 518.875 444 587.715 346.8 559.912 216 c 0
 548.073 160.3 516.219 92.2998 455.99 47 c 0
 407.068 10.2002 343.374 -10 272.874 -10 c 0
 138.475 -10 53.2393 76.4004 80.999 207 c 0
422.579 243.6 m 1
 432.362 344.2 402.947 402 345.447 402 c 0
 281.748 402 248.589 328.8 228.645 242.5 c 1
 247.235 248.1 267.564 252 283.564 252 c 0
 323.564 252 338.888 230 372.888 230 c 0
 390.088 230 407.912 236.7 422.579 243.6 c 1
418.623 213.7 m 1
 395.656 198.8 354.31 176 322.41 176 c 0
 283.41 176 258.999 207 227.999 207 c 0
 226.299 207 224.156 206.8 221.771 206.4 c 1
 211.742 132.4 223.702 32 297.802 32 c 0
 333.802 32 387.582 63.9004 413.11 184 c 0
 415.278 194.2 417.083 204.1 418.623 213.7 c 1
EndSplineSet
LCarets2: 1 0 
EndChar

StartChar: uni04EF
Encoding: 1263 1263 126
Width: 558
VWidth: 999
Flags: HW
HStem: -232.2 65.3<98.4399 174.076> 402 34<13 65.4406 195.582 240 340 384.791 462.58 516> 536 48<130.823 429.922>
VStem: 129 303<536.402 583.772>
DStem2: 199 357 92 336 0.37552 -0.926814<-34.5285 268.481> 215 -61 266 -71 0.373718 0.927542<-120.484 52.1765 182.748 398.364>
LayerCount: 2
Fore
SplineSet
206.29 -168 m 0
 190.86 -187.9 157.938 -212 134.812 -222 c 0
 119.631 -228.5 88.8867 -232 75.6865 -232 c 0
 62.2871 -232 47.5537 -225.1 40.5127 -214 c 0
 33.415 -202.7 34.2305 -187.1 37.0156 -174 c 0
 41.2666 -154 68.793 -128 106.793 -128 c 0
 120.793 -128 122.942 -132 140.942 -132 c 0
 168.942 -132 184.933 -113.7 204.658 -83 c 2
 240.049 -28 l 2
 251.874 -10 236.7 8 224.802 32 c 1
 158.719 328 l 2
 144.746 390.7 138.598 398 95.4473 402 c 1
 90.7227 408 95.3994 430 102.675 436 c 1
 122.462 435 179.25 434 213.25 434 c 0
 249.25 434 309.462 435 346.675 436 c 1
 351.399 430 346.723 408 339.447 402 c 1
 277.385 397 283.359 379 292.844 338 c 2
 341.42 129 l 2
 341.938 127.2 342.061 125.9 341.97 125 c 1
 342.176 125.5 342.524 126.2 342.995 127 c 2
 495.096 358 l 2
 518.747 394 487.811 399 456.447 402 c 1
 451.723 408 456.399 430 463.675 436 c 1
 500.462 435 534.25 434 569.25 434 c 0
 597.25 434 615.462 435 640.675 436 c 1
 645.399 430 640.723 408 633.447 402 c 1
 595.811 399 559.221 368 539.057 339 c 0
 462.25 227 390.294 119 269.271 -74 c 0
 250.895 -104 228.063 -139.9 206.29 -168 c 0
534.22 575 m 2
 260.22 575 l 2
 249.22 575 247.133 584 249.046 593 c 0
 251.597 605 267.848 625 280.848 625 c 2
 556.848 625 l 2
 566.848 625 568.935 616 567.234 608 c 0
 564.471 595 548.22 575 534.22 575 c 2
EndSplineSet
LCarets2: 1 0 
EndChar

StartChar: uni04F1
Encoding: 1265 1265 127
Width: 558
VWidth: 999
Flags: HW
HStem: -232 80<67.752 163.025> 398 33<12.625 62.5342 164.928 213.375 337.625 389.171 461.975 506.375> 526 95<157.016 234.984 326.016 403.984>
VStem: 149 94<533.394 613.312> 318 94<533.394 613.312>
DStem2: 177.233 333 94.9014 323 0.395053 -0.918658<-54.1669 236.484> 222 -34 245 -74 0.397404 0.917644<-98.3122 43.0767 162.026 450.625>
LayerCount: 2
Fore
SplineSet
463.37 571 m 0
 469.959 602 499.061 626 530.061 626 c 0
 560.061 626 579.959 602 573.37 571 c 0
 566.993 541 536.892 517 506.892 517 c 0
 475.892 517 456.993 541 463.37 571 c 0
277.37 571 m 0
 283.959 602 314.061 626 344.061 626 c 0
 375.061 626 393.959 602 387.37 571 c 0
 380.993 541 351.892 517 320.892 517 c 0
 290.892 517 270.993 541 277.37 571 c 0
206.29 -168 m 0
 190.86 -187.9 157.938 -212 134.812 -222 c 0
 119.631 -228.5 88.8867 -232 75.6865 -232 c 0
 62.2871 -232 47.5537 -225.1 40.5127 -214 c 0
 33.415 -202.7 34.2305 -187.1 37.0156 -174 c 0
 41.2666 -154 68.793 -128 106.793 -128 c 0
 120.793 -128 122.942 -132 140.942 -132 c 0
 168.942 -132 184.933 -113.7 204.658 -83 c 2
 240.049 -28 l 2
 251.874 -10 236.7 8 224.802 32 c 1
 158.719 328 l 2
 144.746 390.7 138.598 398 95.4473 402 c 1
 90.7227 408 95.3994 430 102.675 436 c 1
 122.462 435 179.25 434 213.25 434 c 0
 249.25 434 309.462 435 346.675 436 c 1
 351.399 430 346.723 408 339.447 402 c 1
 277.385 397 283.359 379 292.844 338 c 2
 341.42 129 l 2
 341.938 127.2 342.061 125.9 341.97 125 c 1
 342.176 125.5 342.524 126.2 342.995 127 c 2
 495.096 358 l 2
 518.747 394 487.811 399 456.447 402 c 1
 451.723 408 456.399 430 463.675 436 c 1
 500.462 435 534.25 434 569.25 434 c 0
 597.25 434 615.462 435 640.675 436 c 1
 645.399 430 640.723 408 633.447 402 c 1
 595.811 399 559.221 368 539.057 339 c 0
 462.25 227 390.294 119 269.271 -74 c 0
 250.895 -104 228.063 -139.9 206.29 -168 c 0
EndSplineSet
LCarets2: 1 0 
EndChar

StartChar: uni04F3
Encoding: 1267 1267 128
Width: 558
VWidth: 999
Flags: HW
HStem: -232 80<67.752 163.025> 398 33<12.625 62.5342 164.928 213.375 337.625 389.171 461.975 506.375>
DStem2: 177.233 333 94.9014 323 0.395053 -0.918658<-54.1669 236.484> 222 -34 245 -74 0.397404 0.917644<-98.3122 43.0767 162.026 450.625>
LayerCount: 2
Fore
SplineSet
604.184 608.7 m 0
 601.696 597 595.612 591.9 586.239 584.5 c 2
 468.493 491.6 l 2
 462.23 486.6 456.741 484.3 452.041 484.3 c 0
 444.441 484.3 437.874 490.1 439.766 499 c 0
 440.616 503 443.115 507.7 447.241 513 c 2
 540.861 634 l 2
 542.935 636.7 553.629 652.2 572.629 652.2 c 0
 597.129 652.2 609.306 632.8 604.184 608.7 c 0
477.998 621 m 0
 476.935 616 474.659 610 469.597 605 c 2
 354.528 496 l 2
 343.275 485.4 333.939 481 327.34 481 c 0
 319.54 481 315.679 487.3 317.635 496.5 c 0
 318.484 500.5 320.562 505.1 323.704 510 c 2
 410.887 644 l 2
 418.146 655.1 432.649 657 443.649 657 c 0
 465.949 657 482.079 640.2 477.998 621 c 0
206.29 -168 m 0
 190.86 -187.9 157.938 -212 134.812 -222 c 0
 119.631 -228.5 88.8867 -232 75.6865 -232 c 0
 62.2871 -232 47.5537 -225.1 40.5127 -214 c 0
 33.415 -202.7 34.2305 -187.1 37.0156 -174 c 0
 41.2666 -154 68.793 -128 106.793 -128 c 0
 120.793 -128 122.942 -132 140.942 -132 c 0
 168.942 -132 184.933 -113.7 204.658 -83 c 2
 240.049 -28 l 2
 251.874 -10 236.7 8 224.802 32 c 1
 158.719 328 l 2
 144.746 390.7 138.598 398 95.4473 402 c 1
 90.7227 408 95.3994 430 102.675 436 c 1
 122.462 435 179.25 434 213.25 434 c 0
 249.25 434 309.462 435 346.675 436 c 1
 351.399 430 346.723 408 339.447 402 c 1
 277.385 397 283.359 379 292.844 338 c 2
 341.42 129 l 2
 341.938 127.2 342.061 125.9 341.97 125 c 1
 342.176 125.5 342.524 126.2 342.995 127 c 2
 495.096 358 l 2
 518.747 394 487.811 399 456.447 402 c 1
 451.723 408 456.399 430 463.675 436 c 1
 500.462 435 534.25 434 569.25 434 c 0
 597.25 434 615.462 435 640.675 436 c 1
 645.399 430 640.723 408 633.447 402 c 1
 595.811 399 559.221 368 539.057 339 c 0
 462.25 227 390.294 119 269.271 -74 c 0
 250.895 -104 228.063 -139.9 206.29 -168 c 0
EndSplineSet
LCarets2: 1 0 
EndChar

StartChar: uni1E00
Encoding: 7680 7680 129
Width: 740
VWidth: 999
Flags: HW
HStem: -215 32<313.025 383.277> -80 31<313.945 382.472> -1 34<10 60.0229 142.897 211 414 482.841 622.594 692> 241 47<234.168 403> 638 20<348.5 364.5>
VStem: 263 36<-170.655 -92.2363> 397 37<-171.322 -91.8533>
DStem2: 89 91 148 79 0.384126 0.923281<-23.1403 196.063 246.684 479.281> 399 627 320 514 0.352654 -0.935754<77.8806 318.631 368.607 561.264>
LayerCount: 2
Fore
SplineSet
330.357 -83 m 0
 302.357 -83 278.895 -104 272.942 -132 c 0
 267.416 -158 280.527 -181 309.527 -181 c 0
 338.527 -181 362.416 -158 367.942 -132 c 0
 374.106 -103 357.357 -83 330.357 -83 c 0
234.942 -132 m 0
 244.72 -86 290.585 -49 337.585 -49 c 0
 382.585 -49 415.933 -85 405.942 -132 c 0
 396.378 -177 349.301 -215 302.301 -215 c 0
 256.301 -215 225.165 -178 234.942 -132 c 0
333.153 283 m 2
 485.153 283 l 1
 453.63 520 l 1
 446.729 520 l 1
 310.78 296.3 l 2
 304.791 286 311.153 283 333.153 283 c 2
181.792 79 m 2
 157.355 37.9004 203.755 34.5996 240.802 32 c 1
 245.526 26 240.851 4 233.575 -2 c 1
 196.787 -1 142 0 101 0 c 0
 62 0 43.7871 -1 6.5752 -2 c 1
 1.85059 4 6.52637 26 13.8018 32 c 1
 57.9395 35 89.3232 40.0996 128.681 102 c 2
 454.31 614 l 1
 489.51 614 556.949 649 573.862 658 c 1
 658.28 86 l 2
 665.761 35.0996 698.746 35.5 736.802 32 c 1
 741.526 26 736.851 4 729.575 -2 c 1
 692.787 -1 637 0 596 0 c 0
 557 0 461.787 -1 424.575 -2 c 1
 419.851 4 424.526 26 431.802 32 c 1
 480.125 35.4004 519.589 31 514.304 72 c 2
 492.951 235 l 1
 302.951 235 l 2
 278.951 235 272.101 231 264.337 218 c 2
 181.792 79 l 2
EndSplineSet
LCarets2: 1 0 
EndChar

StartChar: uni1E01
Encoding: 7681 7681 130
Width: 506
VWidth: 999
Flags: HW
HStem: -216 32<201.025 271.277> -81 31<201.945 270.472> -10 55<110.871 229.853 351 447.215> 406 38<148.426 256.61>
VStem: 36 105<56.7004 159.155> 48 93<295.994 379.736> 151 36<-171.655 -93.2363> 282 108<69.6589 219 257 374.929> 285 37<-172.322 -92.8533>
DStem2: 210 236 225 202 0.96 0.28<-70.2096 64.36>
LayerCount: 2
Fore
SplineSet
218.146 -84 m 0
 190.146 -84 166.682 -105 160.73 -133 c 0
 155.203 -159 168.314 -182 197.314 -182 c 0
 226.314 -182 250.203 -159 255.73 -133 c 0
 261.895 -104 245.146 -84 218.146 -84 c 0
122.73 -133 m 0
 132.508 -87 178.372 -50 225.372 -50 c 0
 270.372 -50 303.72 -86 293.73 -133 c 0
 284.165 -178 237.088 -216 190.088 -216 c 0
 144.088 -216 112.952 -179 122.73 -133 c 0
305.509 48.5 m 1
 299.203 48 l 1
 260.676 22 195.874 -10 166.874 -10 c 0
 79.874 -10 49.5264 26 64.1934 95 c 0
 80.9844 174 160.749 203 273.163 236 c 2
 344.627 257 l 1
 371.622 384 335.447 402 293.447 402 c 0
 259.947 402 250.261 390.3 246.401 379.2 c 0
 240.424 361.9 243.875 345.2 241.068 332 c 0
 235.925 307.8 198.349 285.8 162.948 285.8 c 0
 123.349 285.8 115.903 307.7 121.982 336.3 c 0
 136.012 402.3 263.375 444 336.375 444 c 0
 418.375 444 506.211 415 475.603 271 c 1
 442.995 127 l 2
 432.579 78 434.753 60 456.753 60 c 0
 475.753 60 486.604 64 501.729 74 c 1
 511.604 64 516.328 58 513.777 46 c 1
 469.338 11 426.175 -10 370.874 -10 c 0
 326.874 -10 303.7 8 305.509 48.5 c 1
336.337 218 m 1
 280.724 201 l 2
 205.114 177.9 195.267 147.1 187.381 110 c 0
 180.792 79 189.628 50 232.628 50 c 0
 250.628 50 279.028 66 308.28 86 c 1
 336.337 218 l 1
EndSplineSet
LCarets2: 1 0 
EndChar

StartChar: uni1E02
Encoding: 7682 7682 131
Width: 654
VWidth: 999
Flags: HW
HStem: 0 33<23 96.4211> 0 40<225.077 375.965> 334 42<221 356.422> 605 42<224.143 359.733> 613 34<24 96.3856> 682 120<248.745 341.255>
VStem: 99 122<45.449 334 376 599.529> 235 120<695.745 788.255> 403 120<424.816 565.405> 450 127<106.58 268.4>
LayerCount: 2
Fore
SplineSet
377.152 697 m 0
 383.528 727 413.33 759 460.33 759 c 0
 502.33 759 517.679 723 511.302 693 c 0
 508.092 677.9 495.359 659.4 476.439 646.6 c 1
 655.814 639.9 672.437 557.2 658.365 491 c 0
 647.525 440 593.834 385 534.732 361 c 1
 534.308 359 l 1
 634.356 331 666.24 274 647.535 186 c 0
 625.854 84 541.575 -2 336.575 -2 c 0
 276.575 -2 213 0 173 0 c 0
 133 0 18.5752 -2 18.5752 -2 c 1
 9.85059 4 14.5264 26 25.8018 32 c 1
 81.4395 35 110.29 39 127.932 122 c 2
 213.167 523 l 2
 230.81 606 203.659 610 149.297 613 c 1
 140.572 619 145.249 641 156.524 647 c 1
 156.524 647 270.099 645 310.099 645 c 0
 328.899 645 357.848 645.7 388.775 646.3 c 1
 377.075 659 373.113 678 377.152 697 c 0
361.457 562 m 2
 321.921 376 l 1
 377.921 376 l 2
 448.921 376 500.936 409 517.94 489 c 0
 538.771 587 486.597 605 440.597 605 c 0
 375.597 605 367.621 591 361.457 562 c 2
312.994 334 m 1
 259.854 84 l 2
 253.69 55 256.502 40 316.502 40 c 0
 448.502 40 487.995 127 500.748 187 c 0
 519.028 273 486.994 334 383.994 334 c 2
 312.994 334 l 1
EndSplineSet
LCarets2: 1 0 
EndChar

StartChar: uni1E03
Encoding: 7683 7683 132
Width: 535
VWidth: 999
Flags: HW
HStem: -10 41<188.988 292.544> 393 51<215.683 304.122> 512 120<230.745 323.255> 638 34<6.01603 44> 678 20<158.465 175.5>
VStem: 74 110<40.573 375.172 402 635.227> 217 120<525.745 618.255> 353 115<135.572 330.968>
LayerCount: 2
Fore
SplineSet
323.018 527 m 0
 329.394 557 359.195 589 406.195 589 c 0
 448.195 589 463.544 553 457.167 523 c 0
 451.641 497 417.988 461 372.988 461 c 0
 332.988 461 316.003 494 323.018 527 c 0
100.995 127 m 2
 194.095 565 l 2
 208.676 633.6 203.974 635 142.036 640 c 1
 138.949 649 140.287 660 145.838 672 c 1
 217.476 675 299.813 686 339.364 698 c 1
 348.364 698 354.515 694 352.602 685 c 2
 352.602 685 341.736 648 327.921 583 c 2
 286.472 388 l 1
 319.936 409 380.375 444 411.375 444 c 0
 464.075 444 510.25 434 537.535 393 c 0
 561.934 356.3 571.725 299.8 559.651 243 c 0
 529.234 99.9004 388.874 -10 277.874 -10 c 0
 232.274 -10 173 0 140.377 30 c 1
 127.487 11.7002 114.575 -2 99.2363 -13 c 1
 88.2363 -13 77.874 -10 66.7246 -6 c 1
 78.8018 32 83.3525 44 100.995 127 c 2
277.97 348 m 1
 218.241 67 l 1
 232.353 44 252.502 32 281.802 32 c 0
 360.802 32 399.543 148.4 416.888 230 c 0
 437.719 328 410.283 373 361.283 373 c 0
 337.783 373 315.54 369.5 277.97 348 c 1
EndSplineSet
LCarets2: 1 0 
EndChar

StartChar: uni1E04
Encoding: 7684 7684 133
Width: 654
VWidth: 999
Flags: HW
HStem: -174 120<235.745 328.255> 0 33<23 96.4211> 0 40<225.077 375.965> 334 42<221 356.422> 605 42<224.143 359.733> 613 34<24 96.3856>
VStem: 99 122<45.449 334 376 599.529> 222 120<-160.255 -67.745> 403 120<424.816 565.405> 450 127<106.58 268.4>
LayerCount: 2
Fore
SplineSet
182.203 -159 m 0
 188.58 -129 218.382 -97 265.382 -97 c 0
 307.382 -97 322.73 -133 316.354 -163 c 0
 310.827 -189 277.175 -225 232.175 -225 c 0
 192.175 -225 175.189 -192 182.203 -159 c 0
361.457 562 m 2
 321.921 376 l 1
 377.921 376 l 2
 448.921 376 500.936 409 517.94 489 c 0
 538.771 587 486.597 605 440.597 605 c 0
 375.597 605 367.621 591 361.457 562 c 2
312.994 334 m 1
 259.854 84 l 2
 253.69 55 256.502 40 316.502 40 c 0
 448.502 40 487.995 127 500.748 187 c 0
 519.028 273 486.994 334 383.994 334 c 2
 312.994 334 l 1
310.099 645 m 0
 341.799 645 402.524 647 452.524 647 c 0
 654.324 647 673.031 560 658.365 491 c 0
 647.525 440 593.834 385 534.732 361 c 1
 534.308 359 l 1
 634.356 331 666.24 274 647.535 186 c 0
 625.854 84 541.575 -2 336.575 -2 c 0
 276.575 -2 213 0 173 0 c 0
 133 0 18.5752 -2 18.5752 -2 c 1
 9.85059 4 14.5264 26 25.8018 32 c 1
 81.4395 35 110.29 39 127.932 122 c 2
 213.167 523 l 2
 230.81 606 203.659 610 149.297 613 c 1
 140.572 619 145.249 641 156.524 647 c 1
 156.524 647 270.099 645 310.099 645 c 0
EndSplineSet
LCarets2: 1 0 
EndChar

StartChar: uni1E05
Encoding: 7685 7685 134
Width: 535
VWidth: 999
Flags: HW
HStem: -174 120<190.745 283.255> -10 41<188.988 292.544> 393 51<215.683 304.122> 638 34<6.01603 44> 678 20<158.465 175.5>
VStem: 74 110<40.573 375.172 402 635.227> 177 120<-160.255 -67.745> 353 115<135.572 330.968>
LayerCount: 2
Fore
SplineSet
137.203 -159 m 0
 143.58 -129 173.382 -97 220.382 -97 c 0
 262.382 -97 277.73 -133 271.354 -163 c 0
 265.827 -189 232.175 -225 187.175 -225 c 0
 147.175 -225 130.189 -192 137.203 -159 c 0
100.995 127 m 2
 194.095 565 l 2
 208.676 633.6 203.974 635 142.036 640 c 1
 138.949 649 140.287 660 145.838 672 c 1
 217.476 675 299.813 686 339.364 698 c 1
 348.364 698 354.515 694 352.602 685 c 2
 352.602 685 341.736 648 327.921 583 c 2
 286.472 388 l 1
 319.936 409 380.375 444 411.375 444 c 0
 464.075 444 510.25 434 537.535 393 c 0
 561.934 356.3 571.725 299.8 559.651 243 c 0
 529.234 99.9004 388.874 -10 277.874 -10 c 0
 232.274 -10 173 0 140.377 30 c 1
 127.487 11.7002 114.575 -2 99.2363 -13 c 1
 88.2363 -13 77.874 -10 66.7246 -6 c 1
 78.8018 32 83.3525 44 100.995 127 c 2
277.97 348 m 1
 218.241 67 l 1
 232.353 44 252.502 32 281.802 32 c 0
 360.802 32 399.543 148.4 416.888 230 c 0
 437.719 328 410.283 373 361.283 373 c 0
 337.783 373 315.54 369.5 277.97 348 c 1
EndSplineSet
LCarets2: 1 0 
EndChar

StartChar: uni1E06
Encoding: 7686 7686 135
Width: 654
VWidth: 999
Flags: HW
HStem: -106 44<137.058 414.638> 0 33<23 96.4211> 0 40<225.077 375.965> 334 42<221 356.422> 605 42<224.143 359.733> 613 34<24 96.3856>
VStem: 99 122<45.449 334 376 599.529> 136 280<-105.948 -62> 403 120<424.816 565.405> 450 127<106.58 268.4>
LayerCount: 2
Fore
SplineSet
370.469 -106 m 2
 125.469 -106 l 2
 117.469 -106 115.17 -98 116.657 -91 c 0
 119.208 -79 132.821 -62 144.821 -62 c 2
 389.821 -62 l 2
 398.821 -62 401.334 -69 399.846 -76 c 0
 397.295 -88 383.469 -106 370.469 -106 c 2
361.457 562 m 2
 321.921 376 l 1
 377.921 376 l 2
 448.921 376 500.936 409 517.94 489 c 0
 538.771 587 486.597 605 440.597 605 c 0
 375.597 605 367.621 591 361.457 562 c 2
312.994 334 m 1
 259.854 84 l 2
 253.69 55 256.502 40 316.502 40 c 0
 448.502 40 487.995 127 500.748 187 c 0
 519.028 273 486.994 334 383.994 334 c 2
 312.994 334 l 1
310.099 645 m 0
 341.799 645 402.524 647 452.524 647 c 0
 654.324 647 673.031 560 658.365 491 c 0
 647.525 440 593.834 385 534.732 361 c 1
 534.308 359 l 1
 634.356 331 666.24 274 647.535 186 c 0
 625.854 84 541.575 -2 336.575 -2 c 0
 276.575 -2 213 0 173 0 c 0
 133 0 18.5752 -2 18.5752 -2 c 1
 9.85059 4 14.5264 26 25.8018 32 c 1
 81.4395 35 110.29 39 127.932 122 c 2
 213.167 523 l 2
 230.81 606 203.659 610 149.297 613 c 1
 140.572 619 145.249 641 156.524 647 c 1
 156.524 647 270.099 645 310.099 645 c 0
EndSplineSet
LCarets2: 1 0 
EndChar

StartChar: uni1E07
Encoding: 7687 7687 136
Width: 535
VWidth: 999
Flags: HW
HStem: -110 44<107.058 384.638> -10 41<188.988 292.544> 393 51<215.683 304.122> 638 34<6.01603 44> 678 20<158.465 175.5>
VStem: 74 110<40.573 375.172 402 635.227> 106 280<-109.948 -66> 353 115<135.572 330.968>
LayerCount: 2
Fore
SplineSet
339.619 -110 m 2
 94.6191 -110 l 2
 86.6191 -110 84.3193 -102 85.8066 -95 c 0
 88.3574 -83 101.972 -66 113.972 -66 c 2
 358.972 -66 l 2
 367.972 -66 370.483 -73 368.995 -80 c 0
 366.444 -92 352.619 -110 339.619 -110 c 2
100.995 127 m 2
 194.095 565 l 2
 208.676 633.6 203.974 635 142.036 640 c 1
 138.949 649 140.287 660 145.838 672 c 1
 217.476 675 299.813 686 339.364 698 c 1
 348.364 698 354.515 694 352.602 685 c 2
 352.602 685 341.736 648 327.921 583 c 2
 286.472 388 l 1
 319.936 409 380.375 444 411.375 444 c 0
 464.075 444 510.25 434 537.535 393 c 0
 561.934 356.3 571.725 299.8 559.651 243 c 0
 529.234 99.9004 388.874 -10 277.874 -10 c 0
 232.274 -10 173 0 140.377 30 c 1
 127.487 11.7002 114.575 -2 99.2363 -13 c 1
 88.2363 -13 77.874 -10 66.7246 -6 c 1
 78.8018 32 83.3525 44 100.995 127 c 2
277.97 348 m 1
 218.241 67 l 1
 232.353 44 252.502 32 281.802 32 c 0
 360.802 32 399.543 148.4 416.888 230 c 0
 437.719 328 410.283 373 361.283 373 c 0
 337.783 373 315.54 369.5 277.97 348 c 1
EndSplineSet
LCarets2: 1 0 
EndChar

StartChar: uni1E08
Encoding: 7688 7688 137
Width: 706
VWidth: 999
Flags: HW
HStem: -185 25<286.659 383.933> -84 32<356.31 393.165> -10 44<290.062 474.801> 437 21<558.5 612> 617 41<295.135 462.38>
VStem: 34 130<195.747 434.804> 400 53<-150.949 -88.278> 574 38<443.526 484.717>
DStem2: 307 -84 356 -55 0.397156 0.917751<46.0754 95.3334>
LayerCount: 2
Fore
SplineSet
278.682 -105 m 1
 273.957 -99 l 1
 338.942 -7.7998 l 1
 268.696 -1.90039 212.564 16.2998 169.266 53 c 0
 101.33 110.7 83.9961 221.1 103.955 315 c 0
 150.761 535.2 341.862 658 537.862 658 c 0
 660.862 658 697.36 618 747.297 613 c 1
 744.606 558 742.404 510 736.351 458 c 1
 723.775 452 703.438 449 692.288 453 c 1
 684.568 539 655.935 616 517.935 616 c 0
 398.935 616 292.025 489.4 258.994 334 c 0
 225.835 178 288.928 42 404.928 42 c 0
 413.728 42 422.912 42.4004 432.204 43.2998 c 1
 430.513 50.4004 429.073 56.7998 430.391 63 c 0
 432.729 74 445.854 84 455.854 84 c 0
 465.854 84 476.579 78 473.816 65 c 0
 472.774 60.0996 470.284 54.5 467.13 48.5996 c 1
 523.359 60.5 585.888 89.7998 649.033 146 c 1
 660.033 146 674.482 134 677.569 125 c 1
 627.08 73.2998 572.573 36.0996 516.775 14 c 1
 509.599 4.7002 494.912 1 479.213 1 c 0
 478.612 1 478.013 1 477.412 1 c 0
 469.245 -1.2002 461.141 -3.09961 452.922 -4.59961 c 1
 468.07 -19.9004 490.664 -20.4004 485.01 -47 c 0
 482.885 -57 471.609 -63 463.609 -63 c 0
 437.609 -63 445.623 -30 437.3 -8 c 1
 421.415 -29.0996 419.782 -55.5996 397.186 -61.7002 c 1
 418.922 -74.7002 432.622 -95.4004 425.459 -129.1 c 0
 414.789 -179.3 354.25 -219 289.45 -219 c 0
 257.45 -219 251.726 -213 229.063 -202 c 1
 231.189 -192 234.598 -180.2 244.59 -176 c 1
 269.465 -186 279.614 -190 299.614 -190 c 0
 329.614 -190 352.59 -176 358.329 -149 c 0
 366.321 -111.4 314.257 -107 278.682 -105 c 1
373.617 -51.2002 m 1
 373.594 -49.9004 373.712 -48.4004 374.01 -47 c 0
 379.26 -22.2998 398.6 -20.7002 417.744 -9.2002 c 1
 410.117 -9.7998 402.475 -10 394.874 -10 c 0
 387.374 -10 379.896 -9.90039 372.639 -9.7002 c 1
 350.435 -45 l 1
 358.295 -46.5996 366.148 -48.7002 373.617 -51.2002 c 1
EndSplineSet
LCarets2: 1 0 
EndChar

StartChar: uni1E09
Encoding: 7689 7689 138
Width: 456
VWidth: 999
Flags: HW
HStem: -179 25<138.659 235.933> -78 32<208.31 245.165> -10 51<217.015 335.943> 402 42<202.671 287.291>
VStem: 37 114<121.53 309.251> 252 53<-144.949 -82.278> 304 107<294.396 387.973>
DStem2: 159 -78 208 -49 0.397156 0.917751<46.0754 95.3334>
LayerCount: 2
Fore
SplineSet
433.398 637 m 1
 436.611 638 444.823 639 449.823 639 c 0
 479.823 639 495.848 625 501.723 615 c 1
 506.834 592 l 1
 363.877 484 l 2
 347.327 472 332.477 468 322.477 468 c 0
 314.477 468 308.177 476 309.452 482 c 0
 310.728 488 314.641 497 322.554 506 c 2
 433.398 637 l 1
151.532 -101 m 1
 146.807 -95 l 1
 208.679 -8.09961 l 1
 161.763 -3 133.057 12.5 107.928 42 c 0
 76.8857 78.5 65.9932 136.4 79.7236 201 c 0
 111.183 349 235.375 444 353.375 444 c 0
 462.375 444 505.747 394 494.27 340 c 0
 487.68 309 459.366 284 427.366 284 c 0
 395.366 284 372.617 304 375.356 331 c 0
 379.158 363 372.447 402 335.447 402 c 0
 282.447 402 245.757 347 222.163 236 c 0
 199.207 128 242.966 61 308.966 61 c 0
 345.966 61 374.092 71 421.956 108 c 1
 431.956 108 440.405 96 440.492 87 c 1
 390.802 32 313.874 -10 247.874 -10 c 0
 246.175 -10 244.475 -10 242.774 -10 c 1
 223.285 -41 l 1
 266.751 -50.0996 309.915 -70.5 298.31 -125.1 c 0
 287.639 -175.3 227.101 -215 162.301 -215 c 0
 130.301 -215 124.576 -209 101.914 -198 c 1
 104.039 -188 107.447 -176.2 117.44 -172 c 1
 142.314 -182 152.465 -186 172.465 -186 c 0
 202.465 -186 225.44 -172 231.18 -145 c 0
 239.172 -107.4 187.106 -103 151.532 -101 c 1
EndSplineSet
LCarets2: 1 0 
EndChar

StartChar: uni1E0A
Encoding: 7690 7690 139
Width: 734
VWidth: 999
Flags: HW
HStem: 0 33<24 92.1445> 0 40<222.92 424.983> 606 40<223.637 384.847> 613 33<24 92.1445> 686 120<261.745 354.255>
VStem: 99 122<44.4801 601.64> 248 120<699.745 792.255> 549 132<185.589 421.599>
LayerCount: 2
Fore
SplineSet
391.002 701 m 0
 397.379 731 427.181 763 474.181 763 c 0
 516.181 763 531.528 727 525.152 697 c 0
 521.475 679.7 505.384 658.1 481.905 645.5 c 1
 709.101 635.6 789.664 487.7 751.68 309 c 0
 730.084 207.4 679.357 124 622.43 82 c 0
 538.594 20.2002 434.075 -2 346.575 -2 c 0
 306.575 -2 225 0 185 0 c 0
 145 0 30.5752 -2 30.5752 -2 c 1
 21.8506 4 26.5264 26 37.8018 32 c 1
 93.4395 35 122.29 39 139.932 122 c 2
 225.167 523 l 2
 242.81 606 215.659 610 161.297 613 c 1
 152.572 619 157.249 641 168.524 647 c 1
 168.524 647 282.099 645 322.099 645 c 0
 348.699 645 376.284 645.4 407.448 645.7 c 1
 391.983 658.1 386.453 679.6 391.002 701 c 0
279.294 119 m 2
 265.053 52 288.502 40 358.502 40 c 0
 434.502 40 556.681 102 595.366 284 c 0
 627.462 435 641.384 604 444.384 604 c 0
 408.384 604 378.133 584 366.442 529 c 2
 279.294 119 l 2
EndSplineSet
LCarets2: 1 0 
EndChar

StartChar: uni1E0B
Encoding: 7691 7691 140
Width: 561
VWidth: 999
Flags: HW
HStem: -10 50<201.993 305.84> 28 31<462.031 508> 402 42<202.292 301.893> 512 120<146.745 239.255> 638 34<266.016 304> 678 20<418.466 435.5>
VStem: 37 115<105.179 315.346> 133 120<525.745 618.255> 334 110<71.0411 371.307 419 635.227>
LayerCount: 2
Fore
SplineSet
239.018 527 m 0
 245.394 557 275.195 589 322.195 589 c 0
 364.195 589 379.544 553 373.167 523 c 0
 367.641 497 333.988 461 288.988 461 c 0
 248.988 461 232.003 494 239.018 527 c 0
364.902 48 m 1
 356.203 48 l 1
 332.227 34 248.874 -10 221.874 -10 c 0
 166.074 -10 143.851 4 113.802 32 c 0
 73.2363 69.7998 66.4395 138.5 79.0859 198 c 0
 107.356 331 244.375 444 373.375 444 c 0
 402.275 444 425.297 439.4 442.952 432.6 c 1
 470.669 563 l 2
 485.336 632 480.548 633 418.611 638 c 1
 415.524 647 417.287 660 422.838 672 c 1
 494.476 675 576.813 686 616.364 698 c 1
 625.364 698 631.515 694 629.602 685 c 2
 629.602 685 618.736 648 604.921 583 c 2
 509.27 133 l 2
 497.154 76 504.274 60.0996 557.69 55 c 1
 558.415 49 556.164 29 552.889 23 c 1
 481.976 14 419 0 379.874 -10 c 1
 365.874 -10 358.737 -5 360.488 7 c 2
 360.488 7 361.986 24.4004 364.902 48 c 1
371.75 94.7998 m 1
 373.179 103.4 374.785 111.9 376.507 120 c 2
 428.838 366.2 l 1
 411.574 399.3 387.647 402 361.447 402 c 0
 331.147 402 300.568 386.1 278.308 359 c 0
 252.818 328 237.005 282.3 225.676 229 c 0
 200.807 112 227.903 56 277.903 56 c 0
 289.604 56 347.059 77.9004 371.75 94.7998 c 1
EndSplineSet
LCarets2: 1 0 
EndChar

StartChar: uni1E0C
Encoding: 7692 7692 141
Width: 734
VWidth: 999
Flags: HW
HStem: -174 120<255.745 348.255> 0 33<24 92.1445> 0 40<222.92 424.983> 606 40<223.637 384.847> 613 33<24 92.1445>
VStem: 99 122<44.4801 601.64> 242 120<-160.255 -67.745> 549 132<185.589 421.599>
LayerCount: 2
Fore
SplineSet
202.203 -159 m 0
 208.58 -129 238.382 -97 285.382 -97 c 0
 327.382 -97 342.73 -133 336.354 -163 c 0
 330.827 -189 297.175 -225 252.175 -225 c 0
 212.175 -225 195.189 -192 202.203 -159 c 0
279.294 119 m 2
 265.053 52 288.502 40 358.502 40 c 0
 434.502 40 556.681 102 595.366 284 c 0
 627.462 435 641.384 604 444.384 604 c 0
 408.384 604 378.133 584 366.442 529 c 2
 279.294 119 l 2
185 0 m 0
 145 0 30.5752 -2 30.5752 -2 c 1
 21.8506 4 26.5264 26 37.8018 32 c 1
 93.4395 35 122.29 39 139.932 122 c 2
 225.167 523 l 2
 242.81 606 215.659 610 161.297 613 c 1
 152.572 619 157.249 641 168.524 647 c 1
 168.524 647 282.099 645 322.099 645 c 0
 362.099 645 404.312 646 457.312 646 c 0
 703.312 646 791.003 494 751.68 309 c 0
 730.084 207.4 679.357 124 622.43 82 c 0
 538.594 20.2002 434.075 -2 346.575 -2 c 0
 306.575 -2 225 0 185 0 c 0
EndSplineSet
LCarets2: 1 0 
EndChar

StartChar: uni1E0D
Encoding: 7693 7693 142
Width: 561
VWidth: 999
Flags: HW
HStem: -174 120<200.745 293.255> -10 50<201.993 305.84> 28 31<462.031 508> 402 42<202.292 301.893> 638 34<266.016 304> 678 20<418.466 435.5>
VStem: 37 115<105.179 315.346> 187 120<-160.255 -67.745> 334 110<71.0411 371.307 419 635.227>
LayerCount: 2
Fore
SplineSet
147.203 -159 m 0
 153.58 -129 183.382 -97 230.382 -97 c 0
 272.382 -97 287.73 -133 281.354 -163 c 0
 275.827 -189 242.175 -225 197.175 -225 c 0
 157.175 -225 140.189 -192 147.203 -159 c 0
364.902 48 m 1
 356.203 48 l 1
 332.227 34 248.874 -10 221.874 -10 c 0
 166.074 -10 143.851 4 113.802 32 c 0
 73.2363 69.7998 66.4395 138.5 79.0859 198 c 0
 107.356 331 244.375 444 373.375 444 c 0
 402.275 444 425.297 439.4 442.952 432.6 c 1
 470.669 563 l 2
 485.336 632 480.548 633 418.611 638 c 1
 415.524 647 417.287 660 422.838 672 c 1
 494.476 675 576.813 686 616.364 698 c 1
 625.364 698 631.515 694 629.602 685 c 2
 629.602 685 618.736 648 604.921 583 c 2
 509.27 133 l 2
 497.154 76 504.274 60.0996 557.69 55 c 1
 558.415 49 556.164 29 552.889 23 c 1
 481.976 14 419 0 379.874 -10 c 1
 365.874 -10 358.737 -5 360.488 7 c 2
 360.488 7 361.986 24.4004 364.902 48 c 1
371.75 94.7998 m 1
 373.179 103.4 374.785 111.9 376.507 120 c 2
 428.838 366.2 l 1
 411.574 399.3 387.647 402 361.447 402 c 0
 331.147 402 300.568 386.1 278.308 359 c 0
 252.818 328 237.005 282.3 225.676 229 c 0
 200.807 112 227.903 56 277.903 56 c 0
 289.604 56 347.059 77.9004 371.75 94.7998 c 1
EndSplineSet
LCarets2: 1 0 
EndChar

StartChar: uni1E0E
Encoding: 7694 7694 143
Width: 734
VWidth: 999
Flags: HW
HStem: -105 44<144.058 421.638> 0 33<24 92.1445> 0 40<222.92 424.983> 606 40<223.637 384.847> 613 33<24 92.1445>
VStem: 99 122<44.4801 601.64> 143 280<-104.948 -61> 549 132<185.589 421.599>
LayerCount: 2
Fore
SplineSet
377.682 -105 m 2
 132.682 -105 l 2
 124.682 -105 122.382 -97 123.87 -90 c 0
 126.421 -78 140.034 -61 152.034 -61 c 2
 397.034 -61 l 2
 406.034 -61 408.546 -68 407.059 -75 c 0
 404.508 -87 390.682 -105 377.682 -105 c 2
279.294 119 m 2
 265.053 52 288.502 40 358.502 40 c 0
 434.502 40 556.681 102 595.366 284 c 0
 627.462 435 641.384 604 444.384 604 c 0
 408.384 604 378.133 584 366.442 529 c 2
 279.294 119 l 2
185 0 m 0
 145 0 30.5752 -2 30.5752 -2 c 1
 21.8506 4 26.5264 26 37.8018 32 c 1
 93.4395 35 122.29 39 139.932 122 c 2
 225.167 523 l 2
 242.81 606 215.659 610 161.297 613 c 1
 152.572 619 157.249 641 168.524 647 c 1
 168.524 647 282.099 645 322.099 645 c 0
 362.099 645 404.312 646 457.312 646 c 0
 703.312 646 791.003 494 751.68 309 c 0
 730.084 207.4 679.357 124 622.43 82 c 0
 538.594 20.2002 434.075 -2 346.575 -2 c 0
 306.575 -2 225 0 185 0 c 0
EndSplineSet
LCarets2: 1 0 
EndChar

